<svg width="104" height="105" viewBox="0 0 104 105" fill="none" xmlns="http://www.w3.org/2000/svg">
<path d="M13 39.1172V26.1172C13 21.3288 16.8783 17.4505 21.6667 17.4505H82.3333C87.1217 17.4505 91 21.3288 91 26.1172V78.1172C91 82.9055 87.1217 86.7838 82.3333 86.7838H56.3333" stroke="#00A5FF" stroke-width="4" stroke-linecap="round" stroke-linejoin="round"/>
<path d="M38.9998 86.7838L37.9122 84.0538C37.3618 82.6715 36.5082 81.4278 35.4162 80.4182V80.4182C33.5658 78.7022 31.1348 77.7532 28.6172 77.7532H19.0492C16.5272 77.7532 14.1005 78.7065 12.2502 80.4182V80.4182C11.1582 81.4278 10.3045 82.6715 9.75417 84.0538L8.6665 86.7838" stroke="#00A5FF" stroke-width="4" stroke-linecap="round" stroke-linejoin="round"/>
<path d="M29.1935 54.3402C32.1532 57.2999 32.1532 62.1012 29.1935 65.0652C26.2339 68.0249 21.4325 68.0249 18.4685 65.0652C15.5089 62.1055 15.5089 57.3042 18.4685 54.3402C21.4325 51.3762 26.2339 51.3762 29.1935 54.3402" stroke="#00A5FF" stroke-width="4" stroke-linecap="round" stroke-linejoin="round"/>
<path opacity="0.6" d="M47.6667 67.854V41.854" stroke="#00A5FF" stroke-width="4" stroke-linecap="round" stroke-linejoin="round"/>
<path opacity="0.6" d="M60.6667 67.854V53.4673" stroke="#00A5FF" stroke-width="4" stroke-linecap="round" stroke-linejoin="round"/>
<path opacity="0.6" d="M73.6667 67.854V44.2374" stroke="#00A5FF" stroke-width="4" stroke-linecap="round" stroke-linejoin="round"/>
</svg>
