<svg width="104" height="105" viewBox="0 0 104 105" fill="none" xmlns="http://www.w3.org/2000/svg">
<path fill-rule="evenodd" clip-rule="evenodd" d="M21.9999 32.1174H82.6666C87.4549 32.1174 91.3333 35.9958 91.3333 40.7841V79.7841C91.3333 84.5724 87.4549 88.4508 82.6666 88.4508H21.9999C17.2116 88.4508 13.3333 84.5724 13.3333 79.7841V40.7841C13.3333 35.9958 17.2116 32.1174 21.9999 32.1174Z" stroke="#00A5FF" stroke-width="4" stroke-linecap="round" stroke-linejoin="round"/>
<path opacity="0.6" fill-rule="evenodd" clip-rule="evenodd" d="M54.3333 49.4507C54.3333 48.3462 53.4379 47.4507 52.3333 47.4507C51.2288 47.4507 50.3333 48.3462 50.3333 49.4507V58.2841H41.5C40.3954 58.2841 39.5 59.1795 39.5 60.2841C39.5 61.3886 40.3954 62.2841 41.5 62.2841H50.3333V71.1174C50.3333 72.222 51.2288 73.1174 52.3333 73.1174C53.4379 73.1174 54.3333 72.222 54.3333 71.1174V62.2841H63.1667C64.2712 62.2841 65.1667 61.3886 65.1667 60.2841C65.1667 59.1795 64.2712 58.2841 63.1667 58.2841H54.3333V49.4507Z" fill="#00A5FF"/>
<path d="M69.6667 32.1175L66.9757 21.3491C66.0093 17.4925 62.5427 14.7841 58.5647 14.7841H46.0977C42.1197 14.7841 38.653 17.4925 37.691 21.3491L35 32.1175" stroke="#00A5FF" stroke-width="4" stroke-linecap="round" stroke-linejoin="round"/>
</svg>
