<svg width="737" height="291" viewBox="0 0 737 291" fill="none" xmlns="http://www.w3.org/2000/svg">
<g opacity="0.6">
<path d="M647.426 162.969C627.891 162.969 612 147.078 612 127.543C612 108.008 627.891 92.1174 647.426 92.1174C666.957 92.1174 682.851 108.008 682.851 127.543C682.851 147.078 666.957 162.969 647.426 162.969ZM647.426 105.186C635.099 105.186 625.068 115.216 625.068 127.543C625.068 139.87 635.099 149.901 647.426 149.901C659.753 149.901 669.783 139.87 669.783 127.543C669.783 115.216 659.753 105.186 647.426 105.186Z" fill="url(#paint0_linear)"/>
</g>
<path opacity="0.5" fill-rule="evenodd" clip-rule="evenodd" d="M639.744 7H643.24V10.4959H639.744V7ZM677.033 7H680.529V10.4959H677.033V7ZM717.819 7H714.323V10.4959H717.819V7ZM658.389 7H661.885V10.4959H658.389V7ZM699.174 7H695.678V10.4959H699.174V7ZM732.967 7H736.463V10.4959H732.967V7ZM680.529 44.2893H677.033V47.7851H680.529V44.2893ZM714.323 44.2893H717.819V47.7851H714.323V44.2893ZM699.174 44.2893H695.678V47.7851H699.174V44.2893ZM732.967 44.2893H736.463V47.7851H732.967V44.2893ZM717.819 81.5785H714.323V85.0744H717.819V81.5785ZM732.967 81.5785H736.463V85.0744H732.967V81.5785ZM680.529 25.6446H677.033V29.1405H680.529V25.6446ZM714.323 25.6446H717.819V29.1405H714.323V25.6446ZM661.885 25.6446H658.389V29.1405H661.885V25.6446ZM695.678 25.6446H699.174V29.1405H695.678V25.6446ZM736.463 25.6446H732.967V29.1405H736.463V25.6446ZM714.323 62.9339H717.819V66.4298H714.323V62.9339ZM699.174 62.9339H695.678V66.4298H699.174V62.9339ZM732.967 62.9339H736.463V66.4298H732.967V62.9339ZM736.463 100.223H732.967V103.719H736.463V100.223Z" fill="#ADADB8"/>
<path opacity="0.5" fill-rule="evenodd" clip-rule="evenodd" d="M1.5 248.215C0.671573 248.215 0 248.886 0 249.715V250.211C0 251.039 0.671574 251.711 1.5 251.711H1.99587C2.8243 251.711 3.49587 251.039 3.49587 250.211V249.715C3.49587 248.886 2.82429 248.215 1.99587 248.215H1.5ZM113.368 248.215C112.539 248.215 111.868 248.886 111.868 249.715V250.211C111.868 251.039 112.539 251.711 113.368 251.711H113.864C114.692 251.711 115.364 251.039 115.364 250.211V249.715C115.364 248.886 114.692 248.215 113.864 248.215H113.368ZM37.2893 249.715C37.2893 248.886 37.9608 248.215 38.7893 248.215H39.2851C40.1136 248.215 40.7851 248.886 40.7851 249.715V250.211C40.7851 251.039 40.1136 251.711 39.2851 251.711H38.7893C37.9608 251.711 37.2893 251.039 37.2893 250.211V249.715ZM150.657 248.215C149.829 248.215 149.157 248.886 149.157 249.715V250.211C149.157 251.039 149.829 251.711 150.657 251.711H151.153C151.981 251.711 152.653 251.039 152.653 250.211V249.715C152.653 248.886 151.981 248.215 151.153 248.215H150.657ZM74.5785 249.715C74.5785 248.886 75.2501 248.215 76.0785 248.215H76.5744C77.4028 248.215 78.0744 248.886 78.0744 249.715V250.211C78.0744 251.039 77.4028 251.711 76.5744 251.711H76.0785C75.2501 251.711 74.5785 251.039 74.5785 250.211V249.715ZM187.946 248.215C187.118 248.215 186.446 248.886 186.446 249.715V250.211C186.446 251.039 187.118 251.711 187.946 251.711H188.442C189.271 251.711 189.942 251.039 189.942 250.211V249.715C189.942 248.886 189.271 248.215 188.442 248.215H187.946ZM18.6446 249.715C18.6446 248.886 19.3162 248.215 20.1446 248.215H20.6405C21.4689 248.215 22.1405 248.886 22.1405 249.715V250.211C22.1405 251.039 21.4689 251.711 20.6405 251.711H20.1446C19.3162 251.711 18.6446 251.039 18.6446 250.211V249.715ZM132.012 248.215C131.184 248.215 130.512 248.886 130.512 249.715V250.211C130.512 251.039 131.184 251.711 132.012 251.711H132.508C133.337 251.711 134.008 251.039 134.008 250.211V249.715C134.008 248.886 133.337 248.215 132.508 248.215H132.012ZM55.9339 249.715C55.9339 248.886 56.6055 248.215 57.4339 248.215H57.9297C58.7582 248.215 59.4298 248.886 59.4298 249.715V250.211C59.4298 251.039 58.7582 251.711 57.9298 251.711H57.4339C56.6055 251.711 55.9339 251.039 55.9339 250.211V249.715ZM169.302 248.215C168.473 248.215 167.802 248.886 167.802 249.715V250.211C167.802 251.039 168.473 251.711 169.302 251.711H169.798C170.626 251.711 171.298 251.039 171.298 250.211V249.715C171.298 248.886 170.626 248.215 169.798 248.215H169.302ZM93.2231 249.715C93.2231 248.886 93.8947 248.215 94.7231 248.215H95.219C96.0474 248.215 96.719 248.886 96.719 249.715V250.211C96.719 251.039 96.0474 251.711 95.219 251.711H94.7231C93.8947 251.711 93.2231 251.039 93.2231 250.211V249.715ZM206.591 248.215C205.762 248.215 205.091 248.886 205.091 249.715V250.211C205.091 251.039 205.762 251.711 206.591 251.711H207.087C207.915 251.711 208.587 251.039 208.587 250.211V249.715C208.587 248.886 207.915 248.215 207.087 248.215H206.591ZM0 287.004C0 286.176 0.671573 285.504 1.5 285.504H1.99587C2.82429 285.504 3.49587 286.176 3.49587 287.004V287.5C3.49587 288.328 2.8243 289 1.99587 289H1.5C0.671574 289 0 288.328 0 287.5V287.004ZM113.368 285.504C112.539 285.504 111.868 286.176 111.868 287.004V287.5C111.868 288.328 112.539 289 113.368 289H113.864C114.692 289 115.364 288.328 115.364 287.5V287.004C115.364 286.176 114.692 285.504 113.864 285.504H113.368ZM37.2893 287.004C37.2893 286.176 37.9608 285.504 38.7893 285.504H39.2851C40.1136 285.504 40.7851 286.176 40.7851 287.004V287.5C40.7851 288.328 40.1136 289 39.2851 289H38.7893C37.9608 289 37.2893 288.328 37.2893 287.5V287.004ZM150.657 285.504C149.829 285.504 149.157 286.176 149.157 287.004V287.5C149.157 288.328 149.829 289 150.657 289H151.153C151.981 289 152.653 288.328 152.653 287.5V287.004C152.653 286.176 151.981 285.504 151.153 285.504H150.657ZM74.5785 287.004C74.5785 286.176 75.2501 285.504 76.0785 285.504H76.5744C77.4028 285.504 78.0744 286.176 78.0744 287.004V287.5C78.0744 288.328 77.4028 289 76.5744 289H76.0785C75.2501 289 74.5785 288.328 74.5785 287.5V287.004ZM187.946 285.504C187.118 285.504 186.446 286.176 186.446 287.004V287.5C186.446 288.328 187.118 289 187.946 289H188.442C189.271 289 189.942 288.328 189.942 287.5V287.004C189.942 286.176 189.271 285.504 188.442 285.504H187.946ZM18.6446 287.004C18.6446 286.176 19.3162 285.504 20.1446 285.504H20.6405C21.4689 285.504 22.1405 286.176 22.1405 287.004V287.5C22.1405 288.328 21.4689 289 20.6405 289H20.1446C19.3162 289 18.6446 288.328 18.6446 287.5V287.004ZM132.012 285.504C131.184 285.504 130.512 286.176 130.512 287.004V287.5C130.512 288.328 131.184 289 132.012 289H132.508C133.337 289 134.008 288.328 134.008 287.5V287.004C134.008 286.176 133.337 285.504 132.508 285.504H132.012ZM55.9339 287.004C55.9339 286.176 56.6055 285.504 57.4339 285.504H57.9297C58.7582 285.504 59.4298 286.176 59.4298 287.004V287.5C59.4298 288.328 58.7582 289 57.9298 289H57.4339C56.6055 289 55.9339 288.328 55.9339 287.5V287.004ZM169.302 285.504C168.473 285.504 167.802 286.176 167.802 287.004V287.5C167.802 288.328 168.473 289 169.302 289H169.798C170.626 289 171.298 288.328 171.298 287.5V287.004C171.298 286.176 170.626 285.504 169.798 285.504H169.302ZM93.2231 287.004C93.2231 286.176 93.8947 285.504 94.7231 285.504H95.219C96.0474 285.504 96.719 286.176 96.719 287.004V287.5C96.719 288.328 96.0474 289 95.219 289H94.7231C93.8947 289 93.2231 288.328 93.2231 287.5V287.004ZM206.591 285.504C205.762 285.504 205.091 286.176 205.091 287.004V287.5C205.091 288.328 205.762 289 206.591 289H207.087C207.915 289 208.587 288.328 208.587 287.5V287.004C208.587 286.176 207.915 285.504 207.087 285.504H206.591ZM0 268.359C0 267.531 0.671573 266.859 1.5 266.859H1.99587C2.82429 266.859 3.49587 267.531 3.49587 268.359V268.855C3.49587 269.684 2.8243 270.355 1.99587 270.355H1.5C0.671574 270.355 0 269.684 0 268.855V268.359ZM113.368 266.859C112.539 266.859 111.868 267.531 111.868 268.359V268.855C111.868 269.684 112.539 270.355 113.368 270.355H113.864C114.692 270.355 115.364 269.684 115.364 268.855V268.359C115.364 267.531 114.692 266.859 113.864 266.859H113.368ZM37.2893 268.359C37.2893 267.531 37.9608 266.859 38.7893 266.859H39.2851C40.1136 266.859 40.7851 267.531 40.7851 268.359V268.855C40.7851 269.684 40.1136 270.355 39.2851 270.355H38.7893C37.9608 270.355 37.2893 269.684 37.2893 268.855V268.359ZM150.657 266.859C149.829 266.859 149.157 267.531 149.157 268.359V268.855C149.157 269.684 149.829 270.355 150.657 270.355H151.153C151.981 270.355 152.653 269.684 152.653 268.855V268.359C152.653 267.531 151.981 266.859 151.153 266.859H150.657ZM74.5785 268.359C74.5785 267.531 75.2501 266.859 76.0785 266.859H76.5744C77.4028 266.859 78.0744 267.531 78.0744 268.359V268.855C78.0744 269.684 77.4028 270.355 76.5744 270.355H76.0785C75.2501 270.355 74.5785 269.684 74.5785 268.855V268.359ZM187.946 266.859C187.118 266.859 186.446 267.531 186.446 268.359V268.855C186.446 269.684 187.118 270.355 187.946 270.355H188.442C189.271 270.355 189.942 269.684 189.942 268.855V268.359C189.942 267.531 189.271 266.859 188.442 266.859H187.946ZM18.6446 268.359C18.6446 267.531 19.3162 266.859 20.1446 266.859H20.6405C21.4689 266.859 22.1405 267.531 22.1405 268.359V268.855C22.1405 269.684 21.4689 270.355 20.6405 270.355H20.1446C19.3162 270.355 18.6446 269.684 18.6446 268.855V268.359ZM132.012 266.859C131.184 266.859 130.512 267.531 130.512 268.359V268.855C130.512 269.684 131.184 270.355 132.012 270.355H132.508C133.337 270.355 134.008 269.684 134.008 268.855V268.359C134.008 267.531 133.337 266.859 132.508 266.859H132.012ZM55.9339 268.359C55.9339 267.531 56.6055 266.859 57.4339 266.859H57.9297C58.7582 266.859 59.4298 267.531 59.4298 268.359V268.855C59.4298 269.684 58.7582 270.355 57.9298 270.355H57.4339C56.6055 270.355 55.9339 269.684 55.9339 268.855V268.359ZM169.302 266.859C168.473 266.859 167.802 267.531 167.802 268.359V268.855C167.802 269.684 168.473 270.355 169.302 270.355H169.798C170.626 270.355 171.298 269.684 171.298 268.855V268.359C171.298 267.531 170.626 266.859 169.798 266.859H169.302ZM93.2231 268.359C93.2231 267.531 93.8947 266.859 94.7231 266.859H95.219C96.0474 266.859 96.719 267.531 96.719 268.359V268.855C96.719 269.684 96.0474 270.355 95.219 270.355H94.7231C93.8947 270.355 93.2231 269.684 93.2231 268.855V268.359ZM206.591 266.859C205.762 266.859 205.091 267.531 205.091 268.359V268.855C205.091 269.684 205.762 270.355 206.591 270.355H207.087C207.915 270.355 208.587 269.684 208.587 268.855V268.359C208.587 267.531 207.915 266.859 207.087 266.859H206.591Z" fill="#ADADB8"/>
<rect x="168.302" y="82.0784" width="4.82645" height="4.82645" stroke="#1172EB"/>
<circle cx="47.7769" cy="85.0742" r="2.33058" fill="#1172EB"/>
<circle cx="108.372" cy="85.0742" r="2.33058" fill="#1172EB"/>
<circle cx="217.909" cy="18.6528" r="2.33058" fill="#1172EB"/>
<circle cx="168.967" cy="152.661" r="2.33058" fill="#1172EB"/>
<circle cx="168.967" cy="217.917" r="2.33058" fill="#1172EB"/>
<path d="M113.307 148V157.322M108.372 152.661H117.694" stroke="#1172EB"/>
<circle cx="589.963" cy="181.5" r="2.5" fill="#1172EB"/>
<circle cx="649.963" cy="181.5" r="2.5" fill="#1172EB"/>
<circle cx="710.963" cy="181.5" r="2.5" fill="#1172EB"/>
<circle cx="645.463" cy="247" r="2" fill="#1172EB"/>
<path d="M589.911 240.058V249.38M584.976 244.719H594.298" stroke="#1172EB"/>
<rect x="564.004" y="250.626" width="6.4417" height="6.4417" stroke="#1172EB"/>
<circle opacity="0.75" cx="371.508" cy="148.919" r="122.044" fill="url(#paint1_radial)"/>
<circle opacity="0.75" cx="372.715" cy="149.252" r="123.252" fill="url(#paint2_radial)"/>
<circle opacity="0.6" cx="390.335" cy="138.252" r="123.252" stroke="url(#paint3_linear)" stroke-linecap="round" stroke-dasharray="2 4"/>
<g opacity="0.16" filter="url(#filter0_f)">
<path fill-rule="evenodd" clip-rule="evenodd" d="M336.403 122.971C337.459 121.092 339.446 119.929 341.601 119.929C349.451 119.929 355.863 113.516 355.872 105.667V78.8249C355.872 70.9843 349.451 64.563 341.61 64.563H229.968C222.127 64.563 215.706 70.9843 215.706 78.8249V105.667C215.706 113.507 222.127 119.929 229.968 119.929H315.455C317.574 119.929 319.535 121.046 320.616 122.868L326.041 132.018C327.25 134.05 330.203 134.015 331.359 131.956L336.403 122.971Z" fill="#1B56A4"/>
</g>
<path fill-rule="evenodd" clip-rule="evenodd" d="M338.112 119.929H341.601C349.451 119.929 355.863 113.516 355.872 105.667V78.8249C355.872 70.9843 349.451 64.563 341.61 64.563H229.968C222.127 64.563 215.706 70.9843 215.706 78.8249V105.667C215.706 113.507 222.127 119.929 229.968 119.929H318.873L326.041 132.018C327.25 134.05 330.203 134.015 331.359 131.956L338.112 119.929Z" fill="white"/>
<path opacity="0.75" d="M335.445 105.414C342.78 98.0796 342.78 86.1875 335.445 78.8526C328.11 71.5178 316.218 71.5178 308.883 78.8526C301.548 86.1875 301.548 98.0796 308.883 105.414C316.218 112.749 328.11 112.749 335.445 105.414Z" fill="url(#paint4_radial)"/>
<path d="M330.697 87.1167C329.3 84.7286 325.795 83.5416 322.402 87.5077C318.994 83.5416 315.489 84.7426 314.092 87.1167C310.657 92.982 322.388 99.8947 322.388 99.8947C322.388 99.8947 334.118 92.982 330.697 87.1167Z" fill="url(#paint5_linear)"/>
<path fill-rule="evenodd" clip-rule="evenodd" d="M235.69 81.8295H287.411C289.085 81.8295 290.443 80.4717 290.443 78.7984C290.443 77.1252 289.085 75.7673 287.411 75.7673H235.69C234.017 75.7673 232.659 77.1252 232.659 78.7984C232.65 80.4717 234.008 81.8295 235.69 81.8295ZM253.858 95.4083H287.411C289.084 95.4083 290.442 94.0504 290.442 92.3772C290.442 90.704 289.084 89.3461 287.411 89.3461H253.858C252.185 89.3461 250.827 90.704 250.827 92.3772C250.819 94.0504 252.176 95.4083 253.858 95.4083ZM243.801 95.4083H235.689C234.007 95.4083 232.649 94.0504 232.658 92.3772C232.658 90.704 234.016 89.3461 235.689 89.3461H243.801C245.474 89.3461 246.832 90.704 246.832 92.3772C246.832 94.0504 245.474 95.4083 243.801 95.4083ZM269.233 102.662H235.68C234.007 102.662 232.649 104.02 232.649 105.693C232.649 107.366 234.007 108.724 235.68 108.724H269.233C270.906 108.724 272.264 107.366 272.264 105.693C272.272 104.02 270.915 102.662 269.233 102.662ZM279.288 102.662H287.4C289.082 102.662 290.44 104.02 290.431 105.693C290.431 107.366 289.074 108.724 287.4 108.724H279.288C277.615 108.724 276.257 107.366 276.257 105.693C276.257 104.02 277.615 102.662 279.288 102.662Z" fill="url(#paint6_linear)"/>
<g opacity="0.16" filter="url(#filter1_f)">
<path fill-rule="evenodd" clip-rule="evenodd" d="M458.634 215.977C459.696 214.085 461.696 212.914 463.866 212.914H549.877C557.727 212.914 564.139 206.502 564.148 198.652V171.81C564.148 163.97 557.727 157.549 549.886 157.549H438.244C430.404 157.549 423.982 163.97 423.982 171.81V198.652C423.982 206.493 430.404 212.914 438.244 212.914C440.024 212.914 441.671 213.853 442.579 215.383L448.283 225.003C449.492 227.035 452.445 227 453.601 224.941L458.634 215.977Z" fill="#1B56A4"/>
</g>
<path fill-rule="evenodd" clip-rule="evenodd" d="M460.353 212.914H549.877C557.727 212.914 564.139 206.502 564.148 198.652V171.81C564.148 163.97 557.727 157.549 549.886 157.549H438.244C430.404 157.549 423.982 163.97 423.982 171.81V198.652C423.982 206.493 430.404 212.914 438.244 212.914H441.115L448.283 225.003C449.492 227.035 452.445 227 453.601 224.941L460.353 212.914Z" fill="white"/>
<path fill-rule="evenodd" clip-rule="evenodd" d="M489.483 174.815H541.204C542.877 174.815 544.235 173.457 544.235 171.784C544.235 170.111 542.877 168.753 541.204 168.753H489.483C487.809 168.753 486.452 170.111 486.452 171.784C486.452 173.457 487.809 174.815 489.483 174.815ZM507.653 188.393H541.205C542.878 188.393 544.236 187.035 544.236 185.362C544.236 183.689 542.878 182.331 541.205 182.331H507.653C505.98 182.331 504.622 183.689 504.622 185.362C504.622 187.035 505.98 188.393 507.653 188.393ZM497.596 188.393H489.483C487.81 188.393 486.452 187.035 486.452 185.362C486.452 183.689 487.81 182.331 489.483 182.331H497.596C499.269 182.331 500.627 183.689 500.627 185.362C500.627 187.035 499.269 188.393 497.596 188.393ZM523.036 195.647H489.483C487.81 195.647 486.452 197.005 486.452 198.678C486.452 200.351 487.81 201.709 489.483 201.709H523.036C524.709 201.709 526.067 200.351 526.067 198.678C526.076 197.005 524.709 195.647 523.036 195.647ZM533.093 195.647H541.205C542.878 195.647 544.236 197.005 544.236 198.678C544.236 200.351 542.878 201.709 541.205 201.709H533.093C531.419 201.709 530.061 200.351 530.061 198.678C530.061 197.005 531.419 195.647 533.093 195.647Z" fill="url(#paint7_linear)"/>
<path opacity="0.75" d="M467.702 199.345C475.424 191.624 475.424 179.105 467.702 171.383C459.981 163.662 447.462 163.662 439.74 171.383C432.019 179.105 432.019 191.624 439.74 199.345C447.462 207.067 459.981 207.067 467.702 199.345Z" fill="url(#paint8_radial)"/>
<path fill-rule="evenodd" clip-rule="evenodd" d="M457.831 180.174C457.831 182.64 455.831 184.639 453.366 184.639C450.9 184.639 448.9 182.64 448.9 180.174C448.9 177.708 450.9 175.709 453.366 175.709C455.831 175.709 457.831 177.708 457.831 180.174ZM462.295 191.585V193.569H444.435V191.585C444.435 190.532 444.906 189.522 445.743 188.778C446.58 188.034 447.716 187.616 448.9 187.616H457.83C459.014 187.616 460.15 188.034 460.987 188.778C461.825 189.522 462.295 190.532 462.295 191.585Z" fill="url(#paint9_linear)"/>
<circle cx="486.111" cy="61.1067" r="23.8134" fill="url(#paint10_linear)"/>
<g opacity="0.4" filter="url(#filter2_f)">
<path fill-rule="evenodd" clip-rule="evenodd" d="M488.616 67.9621C488.39 67.8343 488.148 67.7341 487.894 67.6783C486.187 67.3026 485.403 68.4151 484.267 69.9386C484.267 69.9386 483.138 71.7129 481.792 71.5065C481.449 71.4543 480.42 71.1273 480.562 69.9314C480.588 69.7112 480.656 69.4976 480.748 69.2959L486.36 57.0138C486.779 56.0466 487.502 54.6875 489.016 54.6875C490.571 54.6875 491.198 55.8612 491.614 56.8362L497.147 68.6497C498.032 70.3952 496.283 72.0453 494.837 71.3709C493.879 70.9238 489.749 68.6005 488.616 67.9621Z" fill="#1172EB"/>
</g>
<path fill-rule="evenodd" clip-rule="evenodd" d="M485.249 63.963C485.022 63.8352 484.781 63.735 484.527 63.6792C482.82 63.3036 482.035 64.4161 480.899 65.9396C480.899 65.9396 479.771 67.7139 478.424 67.5075C478.082 67.4552 477.053 67.1282 477.194 65.9324C477.22 65.7121 477.289 65.4985 477.381 65.2969L482.992 53.0148C483.412 52.0476 484.134 50.6885 485.649 50.6885C487.204 50.6885 487.831 51.8621 488.246 52.8372L493.779 64.6507C494.664 66.3962 492.916 68.0463 491.469 67.3718C490.511 66.9248 486.381 64.6015 485.249 63.963Z" fill="white"/>
<path opacity="0.75" d="M554.463 101.444C554.467 102.911 554.124 104.358 553.463 105.667C552.679 107.235 551.474 108.555 549.982 109.477C548.491 110.399 546.772 110.888 545.018 110.889C543.937 110.892 542.866 110.706 541.853 110.343C541.16 110.095 540.403 110.02 539.704 110.253C537.545 110.973 535.49 108.918 536.21 106.758C536.443 106.06 536.368 105.303 536.12 104.61C535.757 103.597 535.571 102.526 535.574 101.444C535.575 99.6909 536.064 97.9721 536.986 96.4806C537.908 94.9892 539.228 93.784 540.796 93C542.105 92.3388 543.552 91.9962 545.018 92H545.574C547.89 92.1278 550.077 93.1053 551.717 94.7454C553.358 96.3855 554.335 98.573 554.463 100.889V101.444Z" fill="url(#paint11_radial)"/>
<path opacity="0.75" d="M267.463 205.444C267.467 206.911 267.124 208.358 266.463 209.667C265.679 211.235 264.474 212.555 262.982 213.477C261.491 214.399 259.772 214.888 258.018 214.889C256.552 214.893 255.105 214.55 253.796 213.889L247.463 216L249.574 209.667C248.913 208.358 248.57 206.911 248.574 205.444C248.575 203.691 249.064 201.972 249.986 200.481C250.908 198.989 252.228 197.784 253.796 197C255.105 196.339 256.552 195.996 258.018 196H258.574C260.89 196.128 263.077 197.105 264.717 198.745C266.358 200.386 267.335 202.573 267.463 204.889V205.444Z" fill="url(#paint12_radial)"/>
<defs>
<filter id="filter0_f" x="151.706" y="0.562988" width="268.166" height="196.959" filterUnits="userSpaceOnUse" color-interpolation-filters="sRGB">
<feFlood flood-opacity="0" result="BackgroundImageFix"/>
<feBlend mode="normal" in="SourceGraphic" in2="BackgroundImageFix" result="shape"/>
<feGaussianBlur stdDeviation="32" result="effect1_foregroundBlur"/>
</filter>
<filter id="filter1_f" x="359.982" y="93.5486" width="268.166" height="196.958" filterUnits="userSpaceOnUse" color-interpolation-filters="sRGB">
<feFlood flood-opacity="0" result="BackgroundImageFix"/>
<feBlend mode="normal" in="SourceGraphic" in2="BackgroundImageFix" result="shape"/>
<feGaussianBlur stdDeviation="32" result="effect1_foregroundBlur"/>
</filter>
<filter id="filter2_f" x="450.549" y="24.6875" width="76.8378" height="76.8378" filterUnits="userSpaceOnUse" color-interpolation-filters="sRGB">
<feFlood flood-opacity="0" result="BackgroundImageFix"/>
<feBlend mode="normal" in="SourceGraphic" in2="BackgroundImageFix" result="shape"/>
<feGaussianBlur stdDeviation="15" result="effect1_foregroundBlur"/>
</filter>
<linearGradient id="paint0_linear" x1="647.426" y1="92.1174" x2="647.426" y2="162.969" gradientUnits="userSpaceOnUse">
<stop stop-color="#22C532"/>
<stop offset="1" stop-color="#11C3FF"/>
</linearGradient>
<radialGradient id="paint1_radial" cx="0" cy="0" r="1" gradientUnits="userSpaceOnUse" gradientTransform="translate(-605.587 -296.839) rotate(26.6357) scale(1078.95 1034.63)">
<stop stop-color="#2B2B3A"/>
<stop offset="1" stop-color="#D8D8DF" stop-opacity="0"/>
</radialGradient>
<radialGradient id="paint2_radial" cx="0" cy="0" r="1" gradientUnits="userSpaceOnUse" gradientTransform="translate(-614.056 -300.92) rotate(21.7422) scale(1215.27 1165.34)">
<stop stop-color="#2B2B3A"/>
<stop offset="1" stop-color="#D8D8DF" stop-opacity="0"/>
</radialGradient>
<linearGradient id="paint3_linear" x1="267.082" y1="214.158" x2="510.028" y2="45.0772" gradientUnits="userSpaceOnUse">
<stop stop-color="#1172EB"/>
<stop offset="1" stop-color="#00A5FF" stop-opacity="0.37"/>
</linearGradient>
<radialGradient id="paint4_radial" cx="0" cy="0" r="1" gradientUnits="userSpaceOnUse" gradientTransform="translate(428.064 20.9216) rotate(145.775) scale(154.803 148.444)">
<stop stop-color="#2B2B3A"/>
<stop offset="1" stop-color="#D8D8DF" stop-opacity="0"/>
</radialGradient>
<linearGradient id="paint5_linear" x1="271.044" y1="38.4095" x2="326.857" y2="101.292" gradientUnits="userSpaceOnUse">
<stop stop-color="#00A5FF"/>
<stop offset="1" stop-color="#00A5FF" stop-opacity="0"/>
</linearGradient>
<linearGradient id="paint6_linear" x1="74.5855" y1="90.1294" x2="356.624" y2="90.1294" gradientUnits="userSpaceOnUse">
<stop stop-color="#22C532"/>
<stop offset="1" stop-color="#22C532" stop-opacity="0"/>
</linearGradient>
<linearGradient id="paint7_linear" x1="852.243" y1="183.114" x2="423.598" y2="183.114" gradientUnits="userSpaceOnUse">
<stop stop-color="#00A5FF"/>
<stop offset="1" stop-color="#00A5FF" stop-opacity="0.05"/>
</linearGradient>
<radialGradient id="paint8_radial" cx="0" cy="0" r="1" gradientUnits="userSpaceOnUse" gradientTransform="translate(325.368 255.335) rotate(-28.3545) scale(194.42 186.434)">
<stop stop-color="#2B2B3A"/>
<stop offset="1" stop-color="#D8D8DF" stop-opacity="0"/>
</radialGradient>
<linearGradient id="paint9_linear" x1="402.017" y1="120.236" x2="468.951" y2="183.463" gradientUnits="userSpaceOnUse">
<stop stop-color="#1172EB"/>
<stop offset="1" stop-color="#00A5FF" stop-opacity="0.36"/>
</linearGradient>
<linearGradient id="paint10_linear" x1="462.297" y1="37.2932" x2="522.281" y2="79.0953" gradientUnits="userSpaceOnUse">
<stop stop-color="#00A5FF"/>
<stop offset="0.932292" stop-color="white"/>
</linearGradient>
<radialGradient id="paint11_radial" cx="0" cy="0" r="1" gradientUnits="userSpaceOnUse" gradientTransform="translate(486.546 19.0961) rotate(55.4656) scale(127.153 91.3064)">
<stop stop-color="#2B2B3A"/>
<stop offset="1" stop-color="#D8D8DF" stop-opacity="0"/>
</radialGradient>
<radialGradient id="paint12_radial" cx="0" cy="0" r="1" gradientUnits="userSpaceOnUse" gradientTransform="translate(287.463 185) rotate(141.667) scale(54.8179 38.2933)">
<stop stop-color="#00A5FF"/>
<stop offset="1" stop-color="#73B3FF" stop-opacity="0.22"/>
</radialGradient>
</defs>
</svg>
