<svg width="738" height="352" viewBox="0 0 738 352" fill="none" xmlns="http://www.w3.org/2000/svg">
<g opacity="0.6">
<path d="M345.426 86.8514C325.891 86.8514 310 70.9605 310 51.4257C310 31.8909 325.891 16 345.426 16C364.957 16 380.851 31.8909 380.851 51.4257C380.851 70.9605 364.957 86.8514 345.426 86.8514ZM345.426 29.0681C333.099 29.0681 323.068 39.0986 323.068 51.4257C323.068 63.7528 333.099 73.7833 345.426 73.7833C357.753 73.7833 367.783 63.7528 367.783 51.4257C367.783 39.0986 357.753 29.0681 345.426 29.0681Z" fill="url(#paint0_linear)"/>
</g>
<path opacity="0.75" fill-rule="evenodd" clip-rule="evenodd" d="M548.701 20.3856L556.685 1L564.668 20.3856L557.666 16.9342C557.678 16.9968 557.685 17.0616 557.685 17.1278V26.8045C557.685 27.3568 557.237 27.8046 556.685 27.8046C556.132 27.8046 555.685 27.3568 555.685 26.8045V17.1278C555.685 17.0616 555.691 16.9968 555.703 16.9342L548.701 20.3856Z" fill="url(#paint1_radial)"/>
<path opacity="0.75" d="M325.994 212.055H368.266H455.994C459.655 212.055 462.615 215.006 462.615 218.656V222.718C462.615 226.368 459.655 229.319 455.994 229.319H368.266H325.994H310.094C306.78 229.319 304.094 226.633 304.094 223.319V218.055C304.094 214.741 306.78 212.055 310.094 212.055H325.994Z" fill="url(#paint2_radial)"/>
<path opacity="0.75" d="M469.777 108.12C449.525 108.12 433.107 91.7513 433.107 71.5598C433.107 51.3684 449.525 35 469.777 35C490.03 35 506.447 51.3684 506.447 71.5598C506.447 91.7513 490.03 108.12 469.777 108.12Z" fill="url(#paint3_radial)"/>
<path opacity="0.75" d="M380.331 161.214L464.366 161.182C465.456 161.182 466.34 160.299 466.34 159.209V151.471L466.403 143.347C466.403 123.924 482.224 108.151 501.705 108.151C502.358 108.151 502.98 108.182 503.632 108.213C503.661 108.214 503.69 108.203 503.711 108.182C503.731 108.162 503.758 108.151 503.786 108.151C522.132 108.143 537.006 122.987 537.006 141.284V229C537.006 232.314 534.32 235 531.006 235H472.34C469.026 235 466.34 232.314 466.34 229V196.002C466.34 195.481 466.743 195.048 467.263 195.013C467.326 195.013 467.358 195.013 467.39 195.013C472.165 195.013 476.749 193.013 479.995 189.491L508.676 158.263C509.599 157.279 509.535 155.724 508.517 154.803C507.53 153.883 505.97 153.946 505.047 154.962L476.367 186.19C474.043 188.729 470.764 190.284 467.295 190.316C467.09 190.316 464.411 190.369 463.979 190.378C463.939 190.379 463.9 190.379 463.86 190.379H380.331C372.245 190.379 365.72 183.842 365.72 175.812C365.688 167.752 372.245 161.214 380.331 161.214Z" fill="url(#paint4_radial)"/>
<path opacity="0.6" d="M456.058 116.12C435.805 116.12 419.388 99.7513 419.388 79.5598C419.388 59.3684 435.805 43 456.058 43C476.31 43 492.728 59.3684 492.728 79.5598C492.728 99.7513 476.31 116.12 456.058 116.12Z" stroke="url(#paint5_linear)" stroke-linecap="round" stroke-dasharray="2 4"/>
<path opacity="0.6" d="M366.611 169.214L450.646 169.182V169.182C451.736 169.182 452.62 168.299 452.62 167.209V159.471L452.684 151.347C452.684 131.924 468.504 116.151 487.985 116.151C488.638 116.151 489.26 116.182 489.912 116.213C489.942 116.214 489.97 116.203 489.991 116.182V116.182C490.011 116.162 490.038 116.151 490.066 116.151C508.413 116.143 523.286 130.987 523.286 149.284V237C523.286 240.314 520.6 243 517.286 243H458.62C455.306 243 452.62 240.314 452.62 237V204.002C452.62 203.481 453.023 203.048 453.543 203.013V203.013C453.607 203.013 453.639 203.013 453.67 203.013C458.445 203.013 463.029 201.013 466.276 197.491L494.956 166.263C495.879 165.279 495.815 163.724 494.797 162.803C493.81 161.883 492.25 161.946 491.327 162.962L462.647 194.19C460.323 196.729 457.045 198.284 453.575 198.316C453.37 198.316 450.691 198.369 450.259 198.378C450.219 198.379 450.181 198.379 450.14 198.379H366.611C358.526 198.379 352 191.842 352 183.812C351.968 175.752 358.526 169.214 366.611 169.214Z" stroke="url(#paint6_linear)" stroke-linecap="round" stroke-dasharray="2 4"/>
<path opacity="0.75" d="M293.43 109.484C296.836 108.31 300.561 110.119 301.739 113.546L328.104 190.296C328.937 192.719 331.216 194.346 333.779 194.346H428.842C432.471 194.346 435.399 197.266 435.399 200.884C435.399 204.502 432.471 207.421 428.842 207.421H324.912C322.684 207.421 320.71 206.311 319.532 204.629C319.119 204.089 318.8 203.486 318.546 202.82L289.356 117.767C288.178 114.372 290.025 110.659 293.43 109.484Z" fill="url(#paint7_radial)"/>
<path opacity="0.75" fill-rule="evenodd" clip-rule="evenodd" d="M548.701 19.3856L556.685 0L564.668 19.3856L557.666 15.9342C557.678 15.9968 557.685 16.0616 557.685 16.1278V25.8045C557.685 26.3568 557.237 26.8046 556.685 26.8046C556.132 26.8046 555.685 26.3568 555.685 25.8045V16.1278C555.685 16.0616 555.691 15.9968 555.703 15.9342L548.701 19.3856Z" fill="url(#paint8_radial)"/>
<path opacity="0.5" fill-rule="evenodd" clip-rule="evenodd" d="M641.078 4H644.581V7.50316H641.078V4ZM678.445 4H681.948V7.50316H678.445V4ZM719.315 4H715.812V7.50316H719.315V4ZM659.762 4H663.265V7.50316H659.762V4ZM700.632 4H697.129V7.50316H700.632V4ZM734.496 4H737.999V7.50316H734.496V4ZM681.948 41.3671H678.445V44.8703H681.948V41.3671ZM715.812 41.3671H719.315V44.8703H715.812V41.3671ZM700.632 41.3671H697.129V44.8703H700.632V41.3671ZM734.496 41.3671H737.999V44.8703H734.496V41.3671ZM719.315 78.7342H715.812V82.2374H719.315V78.7342ZM734.496 78.7342H737.999V82.2374H734.496V78.7342ZM681.948 22.6835H678.445V26.1867H681.948V22.6835ZM715.812 22.6835H719.315V26.1867H715.812V22.6835ZM663.265 22.6835H659.762V26.1867H663.265V22.6835ZM697.129 22.6835H700.632V26.1867H697.129V22.6835ZM737.999 22.6835H734.496V26.1867H737.999V22.6835ZM715.812 60.0507H719.315V63.5538H715.812V60.0507ZM700.632 60.0507H697.129V63.5538H700.632V60.0507ZM734.496 60.0507H737.999V63.5538H734.496V60.0507ZM737.999 97.4177H734.496V100.921H737.999V97.4177Z" fill="#ADADB8"/>
<path opacity="0.5" fill-rule="evenodd" clip-rule="evenodd" d="M1.5 245.718C0.671573 245.718 0 246.39 0 247.218V247.721C0 248.55 0.671572 249.221 1.5 249.221H2.00316C2.83159 249.221 3.50316 248.55 3.50316 247.721V247.218C3.50316 246.39 2.83159 245.718 2.00317 245.718H1.5ZM113.601 245.718C112.773 245.718 112.101 246.39 112.101 247.218V247.721C112.101 248.55 112.773 249.221 113.601 249.221H114.104C114.933 249.221 115.604 248.55 115.604 247.721V247.218C115.604 246.39 114.933 245.718 114.104 245.718H113.601ZM37.3671 247.218C37.3671 246.39 38.0386 245.718 38.8671 245.718H39.3702C40.1987 245.718 40.8702 246.39 40.8702 247.218V247.721C40.8702 248.55 40.1987 249.221 39.3702 249.221H38.8671C38.0386 249.221 37.3671 248.55 37.3671 247.721V247.218ZM150.968 245.718C150.14 245.718 149.468 246.39 149.468 247.218V247.721C149.468 248.55 150.14 249.221 150.968 249.221H151.472C152.3 249.221 152.972 248.55 152.972 247.721V247.218C152.972 246.39 152.3 245.718 151.472 245.718H150.968ZM74.7342 247.218C74.7342 246.39 75.4058 245.718 76.2342 245.718H76.7374C77.5658 245.718 78.2374 246.39 78.2374 247.218V247.721C78.2374 248.55 77.5658 249.221 76.7374 249.221H76.2342C75.4058 249.221 74.7342 248.55 74.7342 247.721V247.218ZM188.335 245.718C187.507 245.718 186.835 246.39 186.835 247.218V247.721C186.835 248.55 187.507 249.221 188.335 249.221H188.839C189.667 249.221 190.339 248.55 190.339 247.721V247.218C190.339 246.39 189.667 245.718 188.839 245.718H188.335ZM18.6836 247.218C18.6836 246.39 19.3552 245.718 20.1836 245.718H20.6868C21.5152 245.718 22.1868 246.39 22.1868 247.218V247.721C22.1868 248.55 21.5152 249.221 20.6868 249.221H20.1836C19.3552 249.221 18.6836 248.55 18.6836 247.721V247.218ZM132.285 245.718C131.456 245.718 130.785 246.39 130.785 247.218V247.721C130.785 248.55 131.456 249.221 132.285 249.221H132.788C133.616 249.221 134.288 248.55 134.288 247.721V247.218C134.288 246.39 133.616 245.718 132.788 245.718H132.285ZM56.0507 247.218C56.0507 246.39 56.7222 245.718 57.5507 245.718H58.0538C58.8823 245.718 59.5538 246.39 59.5538 247.218V247.721C59.5538 248.55 58.8823 249.221 58.0538 249.221H57.5507C56.7222 249.221 56.0507 248.55 56.0507 247.721V247.218ZM169.652 245.718C168.823 245.718 168.152 246.39 168.152 247.218V247.721C168.152 248.55 168.823 249.221 169.652 249.221H170.155C170.983 249.221 171.655 248.55 171.655 247.721V247.218C171.655 246.39 170.983 245.718 170.155 245.718H169.652ZM93.4177 247.218C93.4177 246.39 94.0893 245.718 94.9177 245.718H95.4209C96.2493 245.718 96.9209 246.39 96.9209 247.218V247.721C96.9209 248.55 96.2493 249.221 95.4209 249.221H94.9177C94.0893 249.221 93.4177 248.55 93.4177 247.721V247.218ZM207.019 245.718C206.191 245.718 205.519 246.39 205.519 247.218V247.721C205.519 248.55 206.191 249.221 207.019 249.221H207.522C208.351 249.221 209.022 248.55 209.022 247.721V247.218C209.022 246.39 208.351 245.718 207.522 245.718H207.019ZM0 284.585C0 283.757 0.671573 283.085 1.5 283.085H2.00317C2.83159 283.085 3.50316 283.757 3.50316 284.585V285.089C3.50316 285.917 2.83159 286.589 2.00316 286.589H1.5C0.671572 286.589 0 285.917 0 285.089V284.585ZM113.601 283.085C112.773 283.085 112.101 283.757 112.101 284.585V285.089C112.101 285.917 112.773 286.589 113.601 286.589H114.104C114.933 286.589 115.604 285.917 115.604 285.089V284.585C115.604 283.757 114.933 283.085 114.104 283.085H113.601ZM37.3671 284.585C37.3671 283.757 38.0386 283.085 38.8671 283.085H39.3702C40.1987 283.085 40.8702 283.757 40.8702 284.585V285.089C40.8702 285.917 40.1987 286.589 39.3702 286.589H38.8671C38.0386 286.589 37.3671 285.917 37.3671 285.089V284.585ZM150.968 283.085C150.14 283.085 149.468 283.757 149.468 284.585V285.089C149.468 285.917 150.14 286.589 150.968 286.589H151.472C152.3 286.589 152.972 285.917 152.972 285.089V284.585C152.972 283.757 152.3 283.085 151.472 283.085H150.968ZM74.7342 284.585C74.7342 283.757 75.4058 283.085 76.2342 283.085H76.7374C77.5658 283.085 78.2374 283.757 78.2374 284.585V285.089C78.2374 285.917 77.5658 286.589 76.7374 286.589H76.2342C75.4058 286.589 74.7342 285.917 74.7342 285.089V284.585ZM188.335 283.085C187.507 283.085 186.835 283.757 186.835 284.585V285.089C186.835 285.917 187.507 286.589 188.335 286.589H188.839C189.667 286.589 190.339 285.917 190.339 285.089V284.585C190.339 283.757 189.667 283.085 188.839 283.085H188.335ZM18.6836 284.585C18.6836 283.757 19.3552 283.085 20.1836 283.085H20.6868C21.5152 283.085 22.1868 283.757 22.1868 284.585V285.089C22.1868 285.917 21.5152 286.589 20.6868 286.589H20.1836C19.3552 286.589 18.6836 285.917 18.6836 285.089V284.585ZM132.285 283.085C131.456 283.085 130.785 283.757 130.785 284.585V285.089C130.785 285.917 131.456 286.589 132.285 286.589H132.788C133.616 286.589 134.288 285.917 134.288 285.089V284.585C134.288 283.757 133.616 283.085 132.788 283.085H132.285ZM56.0507 284.585C56.0507 283.757 56.7222 283.085 57.5507 283.085H58.0538C58.8823 283.085 59.5538 283.757 59.5538 284.585V285.089C59.5538 285.917 58.8823 286.589 58.0538 286.589H57.5507C56.7222 286.589 56.0507 285.917 56.0507 285.089V284.585ZM169.652 283.085C168.823 283.085 168.152 283.757 168.152 284.585V285.089C168.152 285.917 168.823 286.589 169.652 286.589H170.155C170.983 286.589 171.655 285.917 171.655 285.089V284.585C171.655 283.757 170.983 283.085 170.155 283.085H169.652ZM93.4177 284.585C93.4177 283.757 94.0893 283.085 94.9177 283.085H95.4209C96.2493 283.085 96.9209 283.757 96.9209 284.585V285.089C96.9209 285.917 96.2493 286.589 95.4209 286.589H94.9177C94.0893 286.589 93.4177 285.917 93.4177 285.089V284.585ZM207.019 283.085C206.191 283.085 205.519 283.757 205.519 284.585V285.089C205.519 285.917 206.191 286.589 207.019 286.589H207.522C208.351 286.589 209.022 285.917 209.022 285.089V284.585C209.022 283.757 208.351 283.085 207.522 283.085H207.019ZM0 265.902C0 265.073 0.671573 264.402 1.5 264.402H2.00317C2.83159 264.402 3.50316 265.073 3.50316 265.902V266.405C3.50316 267.233 2.83159 267.905 2.00316 267.905H1.5C0.671572 267.905 0 267.233 0 266.405V265.902ZM113.601 264.402C112.773 264.402 112.101 265.073 112.101 265.902V266.405C112.101 267.233 112.773 267.905 113.601 267.905H114.104C114.933 267.905 115.604 267.233 115.604 266.405V265.902C115.604 265.073 114.933 264.402 114.104 264.402H113.601ZM37.3671 265.902C37.3671 265.073 38.0386 264.402 38.8671 264.402H39.3702C40.1987 264.402 40.8702 265.073 40.8702 265.902V266.405C40.8702 267.233 40.1987 267.905 39.3702 267.905H38.8671C38.0386 267.905 37.3671 267.233 37.3671 266.405V265.902ZM150.968 264.402C150.14 264.402 149.468 265.073 149.468 265.902V266.405C149.468 267.233 150.14 267.905 150.968 267.905H151.472C152.3 267.905 152.972 267.233 152.972 266.405V265.902C152.972 265.073 152.3 264.402 151.472 264.402H150.968ZM74.7342 265.902C74.7342 265.073 75.4058 264.402 76.2342 264.402H76.7374C77.5658 264.402 78.2374 265.073 78.2374 265.902V266.405C78.2374 267.233 77.5658 267.905 76.7374 267.905H76.2342C75.4058 267.905 74.7342 267.233 74.7342 266.405V265.902ZM188.335 264.402C187.507 264.402 186.835 265.073 186.835 265.902V266.405C186.835 267.233 187.507 267.905 188.335 267.905H188.839C189.667 267.905 190.339 267.233 190.339 266.405V265.902C190.339 265.073 189.667 264.402 188.839 264.402H188.335ZM18.6836 265.902C18.6836 265.073 19.3552 264.402 20.1836 264.402H20.6868C21.5152 264.402 22.1868 265.073 22.1868 265.902V266.405C22.1868 267.233 21.5152 267.905 20.6868 267.905H20.1836C19.3552 267.905 18.6836 267.233 18.6836 266.405V265.902ZM132.285 264.402C131.456 264.402 130.785 265.073 130.785 265.902V266.405C130.785 267.233 131.456 267.905 132.285 267.905H132.788C133.616 267.905 134.288 267.233 134.288 266.405V265.902C134.288 265.073 133.616 264.402 132.788 264.402H132.285ZM56.0507 265.902C56.0507 265.073 56.7222 264.402 57.5507 264.402H58.0538C58.8823 264.402 59.5538 265.073 59.5538 265.902V266.405C59.5538 267.233 58.8823 267.905 58.0538 267.905H57.5507C56.7222 267.905 56.0507 267.233 56.0507 266.405V265.902ZM169.652 264.402C168.823 264.402 168.152 265.073 168.152 265.902V266.405C168.152 267.233 168.823 267.905 169.652 267.905H170.155C170.983 267.905 171.655 267.233 171.655 266.405V265.902C171.655 265.073 170.983 264.402 170.155 264.402H169.652ZM93.4177 265.902C93.4177 265.073 94.0893 264.402 94.9177 264.402H95.4209C96.2493 264.402 96.9209 265.073 96.9209 265.902V266.405C96.9209 267.233 96.2493 267.905 95.4209 267.905H94.9177C94.0893 267.905 93.4177 267.233 93.4177 266.405V265.902ZM207.019 264.402C206.191 264.402 205.519 265.073 205.519 265.902V266.405C205.519 267.233 206.191 267.905 207.019 267.905H207.522C208.351 267.905 209.022 267.233 209.022 266.405V265.902C209.022 265.073 208.351 264.402 207.522 264.402H207.019Z" fill="#ADADB8"/>
<rect x="168.652" y="79.2341" width="4.83861" height="4.83861" stroke="#1172EB"/>
<circle cx="47.8765" cy="82.2373" r="2.33544" fill="#1172EB"/>
<circle cx="108.598" cy="82.2373" r="2.33544" fill="#1172EB"/>
<circle cx="218.364" cy="15.6772" r="2.33544" fill="#1172EB"/>
<circle cx="169.319" cy="149.965" r="2.33544" fill="#1172EB"/>
<circle cx="169.319" cy="215.358" r="2.33544" fill="#1172EB"/>
<path d="M113.544 145.294V154.636M108.598 149.965H117.94" stroke="#1172EB"/>
<circle cx="651.5" cy="179.089" r="2.5" fill="#1172EB"/>
<circle cx="712.5" cy="179.089" r="2.5" fill="#1172EB"/>
<circle cx="647" cy="244.589" r="2" fill="#1172EB"/>
<path d="M591.141 237.544V246.886M586.195 242.215H595.537" stroke="#1172EB"/>
<g opacity="0.16" filter="url(#filter0_f)">
<rect x="519" y="100" width="95.8987" height="59.9367" rx="6" fill="#1B56A4"/>
</g>
<rect x="519" y="100" width="95.8987" height="59.9367" rx="4" fill="url(#paint9_linear)"/>
<path opacity="0.75" d="M533.235 114.235H524.244V159.937H533.235V114.235Z" fill="url(#paint10_linear)"/>
<path d="M533.235 153.194H524.244V159.937H533.235V153.194Z" fill="url(#paint11_linear)"/>
<path opacity="0.75" d="M548.968 114.235H539.229V159.937H548.968V114.235Z" fill="url(#paint12_linear)"/>
<path d="M548.968 147.949H539.229V159.937H548.968V147.949Z" fill="url(#paint13_linear)"/>
<path opacity="0.75" d="M563.952 114.235H554.962V159.937H563.952V114.235Z" fill="url(#paint14_linear)"/>
<path d="M563.952 143.454H554.962V159.937H563.952V143.454Z" fill="url(#paint15_linear)"/>
<path opacity="0.75" d="M578.936 114.235H569.197V159.937H578.936V114.235Z" fill="url(#paint16_linear)"/>
<path d="M578.936 136.711H569.197V159.937H578.936V136.711Z" fill="url(#paint17_linear)"/>
<path opacity="0.75" d="M593.171 114.235H584.181V159.937H593.171V114.235Z" fill="url(#paint18_linear)"/>
<path d="M593.171 129.968H584.181V159.937H593.171V129.968Z" fill="url(#paint19_linear)"/>
<path opacity="0.75" d="M608.905 114.235H599.914V159.937H608.905V114.235Z" fill="url(#paint20_linear)"/>
<path d="M608.905 123.226H599.914V159.937H608.905V123.226Z" fill="url(#paint21_linear)"/>
<path d="M599.378 119.984L605.158 112.411L595.704 111.238L597.075 114.463L523.495 144.952L524.425 147.2L598.006 116.711L599.378 119.984Z" fill="white"/>
<circle opacity="0.7" cx="524.993" cy="105.994" r="1.49842" fill="white"/>
<circle opacity="0.7" cx="529.488" cy="105.994" r="1.49842" fill="white"/>
<circle opacity="0.7" cx="533.984" cy="105.994" r="1.49842" fill="white"/>
<path opacity="0.75" fill-rule="evenodd" clip-rule="evenodd" d="M229.537 121.827L237.29 103L245.043 121.827L238.275 118.491C238.285 118.547 238.29 118.604 238.29 118.663L238.29 128.061C238.29 128.613 237.842 129.061 237.29 129.061C236.738 129.061 236.29 128.613 236.29 128.061L236.29 118.663C236.29 118.604 236.295 118.547 236.305 118.491L229.537 121.827Z" fill="url(#paint22_radial)"/>
<g opacity="0.7">
<g opacity="0.16" filter="url(#filter1_f)">
<rect x="260" y="221" width="100.076" height="66.7173" rx="6" fill="#1B56A4"/>
</g>
<rect x="260" y="221" width="100.076" height="66.7173" rx="4" fill="url(#paint23_linear)"/>
<path d="M355 281V263.281C347.5 263.281 347.969 268.906 340.469 268.906C332.969 268.906 331.094 245 325 245C317.5 245 317.5 268.862 310 268.862C302.5 268.862 302.5 257.964 295 257.964C287.5 257.964 287.5 268.862 280 268.862C272.5 268.862 272.5 259.689 265 259.689V281H355Z" fill="url(#paint24_linear)"/>
<path d="M355 262.849C351.056 262.849 349.111 264.419 347.167 265.988C345.333 267.5 343.556 268.895 340 268.895C336.611 268.895 334.778 263.023 333 257.326C331.111 251.279 329.111 245 325 245C320.889 245 318.889 251.279 317 257.326C315.222 263.023 313.389 268.895 310 268.895C306.5 268.895 304.778 266.453 302.889 263.895C300.944 261.221 299 258.488 294.944 258.488C290.944 258.488 288.944 261.221 287 263.895C285.167 266.453 283.389 268.895 279.889 268.895C276.389 268.895 274.611 266.919 272.778 264.767C270.889 262.616 268.889 260.349 265 260.291V261.395C268.444 261.453 270.167 263.43 272 265.523C273.944 267.733 275.889 270 279.889 270C283.889 270 285.889 267.267 287.833 264.593C289.667 262.035 291.444 259.593 294.944 259.593C298.444 259.593 300.167 262.035 302.056 264.593C304 267.267 305.944 270 310 270C314.111 270 316.111 263.721 318 257.674C319.778 251.977 321.611 246.105 325 246.105C328.389 246.105 330.222 251.977 332 257.674C333.889 263.721 335.889 270 340 270C343.944 270 345.889 268.43 347.833 266.86C349.667 265.349 351.444 263.953 355 263.953V262.849Z" fill="white"/>
</g>
<circle opacity="0.7" cx="265.498" cy="226.498" r="1.49842" fill="white"/>
<circle opacity="0.7" cx="269.995" cy="226.498" r="1.49842" fill="white"/>
<circle opacity="0.7" cx="274.49" cy="226.498" r="1.49842" fill="white"/>
<defs>
<filter id="filter0_f" x="455" y="36" width="223.899" height="187.937" filterUnits="userSpaceOnUse" color-interpolation-filters="sRGB">
<feFlood flood-opacity="0" result="BackgroundImageFix"/>
<feBlend mode="normal" in="SourceGraphic" in2="BackgroundImageFix" result="shape"/>
<feGaussianBlur stdDeviation="32" result="effect1_foregroundBlur"/>
</filter>
<filter id="filter1_f" x="196" y="157" width="228.076" height="194.717" filterUnits="userSpaceOnUse" color-interpolation-filters="sRGB">
<feFlood flood-opacity="0" result="BackgroundImageFix"/>
<feBlend mode="normal" in="SourceGraphic" in2="BackgroundImageFix" result="shape"/>
<feGaussianBlur stdDeviation="32" result="effect1_foregroundBlur"/>
</filter>
<linearGradient id="paint0_linear" x1="345.426" y1="16" x2="345.426" y2="86.8514" gradientUnits="userSpaceOnUse">
<stop stop-color="#22C532"/>
<stop offset="1" stop-color="#11C3FF"/>
</linearGradient>
<radialGradient id="paint1_radial" cx="0" cy="0" r="1" gradientUnits="userSpaceOnUse" gradientTransform="translate(515.781 -72.6681) rotate(100.466) scale(123.038 88.3514)">
<stop stop-color="#2B2B3A"/>
<stop offset="1" stop-color="#D8D8DF" stop-opacity="0"/>
</radialGradient>
<radialGradient id="paint2_radial" cx="0" cy="0" r="1" gradientUnits="userSpaceOnUse" gradientTransform="translate(107.968 191.458) rotate(5.91921) scale(428.495 84.2333)">
<stop stop-color="#2B2B3A"/>
<stop offset="1" stop-color="#D8D8DF" stop-opacity="0"/>
</radialGradient>
<radialGradient id="paint3_radial" cx="0" cy="0" r="1" gradientUnits="userSpaceOnUse" gradientTransform="translate(342.369 -52.232) rotate(43.5047) scale(271.862 260.146)">
<stop stop-color="#2B2B3A"/>
<stop offset="1" stop-color="#D8D8DF" stop-opacity="0"/>
</radialGradient>
<radialGradient id="paint4_radial" cx="0" cy="0" r="1" gradientUnits="userSpaceOnUse" gradientTransform="translate(153.801 -43.1796) rotate(35.184) scale(563.473 508.54)">
<stop stop-color="#2B2B3A"/>
<stop offset="1" stop-color="#D8D8DF" stop-opacity="0"/>
</radialGradient>
<linearGradient id="paint5_linear" x1="456.058" y1="43" x2="478.595" y2="114.644" gradientUnits="userSpaceOnUse">
<stop stop-color="#1172EB"/>
<stop offset="1" stop-color="#1172EB" stop-opacity="0"/>
</linearGradient>
<linearGradient id="paint6_linear" x1="437.643" y1="116.151" x2="469.459" y2="245.2" gradientUnits="userSpaceOnUse">
<stop stop-color="#1172EB"/>
<stop offset="1" stop-color="#1172EB" stop-opacity="0.15"/>
</linearGradient>
<radialGradient id="paint7_radial" cx="0" cy="0" r="1" gradientUnits="userSpaceOnUse" gradientTransform="translate(107.872 -8.13987) rotate(32.5858) scale(467.154 406.257)">
<stop stop-color="#2B2B3A"/>
<stop offset="1" stop-color="#D8D8DF" stop-opacity="0"/>
</radialGradient>
<radialGradient id="paint8_radial" cx="0" cy="0" r="1" gradientUnits="userSpaceOnUse" gradientTransform="translate(515.781 -73.6681) rotate(66.8273) scale(137.784 98.9403)">
<stop stop-color="#2B2B3A"/>
<stop offset="1" stop-color="#D8D8DF" stop-opacity="0"/>
</radialGradient>
<linearGradient id="paint9_linear" x1="420.5" y1="37.9114" x2="583.455" y2="215.807" gradientUnits="userSpaceOnUse">
<stop stop-color="#1172EB"/>
<stop offset="1" stop-color="#BFDBFF"/>
</linearGradient>
<linearGradient id="paint10_linear" x1="485.66" y1="421.41" x2="339.91" y2="326.338" gradientUnits="userSpaceOnUse">
<stop stop-color="#1A55A4"/>
<stop offset="0.844116" stop-color="#D8D8DF" stop-opacity="0"/>
</linearGradient>
<linearGradient id="paint11_linear" x1="528.739" y1="144.953" x2="528.739" y2="162.653" gradientUnits="userSpaceOnUse">
<stop stop-color="#FFEDF6"/>
<stop offset="1" stop-color="#FFEDF6" stop-opacity="0"/>
</linearGradient>
<linearGradient id="paint12_linear" x1="497.429" y1="421.41" x2="347.313" y2="315.329" gradientUnits="userSpaceOnUse">
<stop stop-color="#1A55A4"/>
<stop offset="0.844116" stop-color="#D8D8DF" stop-opacity="0"/>
</linearGradient>
<linearGradient id="paint13_linear" x1="544.098" y1="133.298" x2="544.098" y2="164.765" gradientUnits="userSpaceOnUse">
<stop stop-color="#FFEDF6"/>
<stop offset="1" stop-color="#FFEDF6" stop-opacity="0"/>
</linearGradient>
<linearGradient id="paint14_linear" x1="516.378" y1="421.41" x2="370.628" y2="326.338" gradientUnits="userSpaceOnUse">
<stop stop-color="#1A55A4"/>
<stop offset="0.844116" stop-color="#D8D8DF" stop-opacity="0"/>
</linearGradient>
<linearGradient id="paint15_linear" x1="559.457" y1="123.309" x2="559.457" y2="166.576" gradientUnits="userSpaceOnUse">
<stop stop-color="#FFEDF6"/>
<stop offset="1" stop-color="#FFEDF6" stop-opacity="0"/>
</linearGradient>
<linearGradient id="paint16_linear" x1="527.397" y1="421.41" x2="377.281" y2="315.329" gradientUnits="userSpaceOnUse">
<stop stop-color="#1A55A4"/>
<stop offset="0.844116" stop-color="#D8D8DF" stop-opacity="0"/>
</linearGradient>
<linearGradient id="paint17_linear" x1="574.067" y1="108.324" x2="574.067" y2="169.291" gradientUnits="userSpaceOnUse">
<stop stop-color="#FFEDF6"/>
<stop offset="1" stop-color="#FFEDF6" stop-opacity="0"/>
</linearGradient>
<linearGradient id="paint18_linear" x1="545.596" y1="421.41" x2="399.847" y2="326.338" gradientUnits="userSpaceOnUse">
<stop stop-color="#1A55A4"/>
<stop offset="0.844116" stop-color="#D8D8DF" stop-opacity="0"/>
</linearGradient>
<linearGradient id="paint19_linear" x1="588.676" y1="93.3403" x2="588.676" y2="172.007" gradientUnits="userSpaceOnUse">
<stop stop-color="#FFEDF6"/>
<stop offset="1" stop-color="#FFEDF6" stop-opacity="0"/>
</linearGradient>
<linearGradient id="paint20_linear" x1="561.33" y1="421.41" x2="415.58" y2="326.338" gradientUnits="userSpaceOnUse">
<stop stop-color="#1A55A4"/>
<stop offset="0.844116" stop-color="#D8D8DF" stop-opacity="0"/>
</linearGradient>
<linearGradient id="paint21_linear" x1="604.409" y1="78.3563" x2="604.409" y2="174.723" gradientUnits="userSpaceOnUse">
<stop stop-color="#FFEDF6"/>
<stop offset="1" stop-color="#FFEDF6" stop-opacity="0"/>
</linearGradient>
<radialGradient id="paint22_radial" cx="0" cy="0" r="1" gradientUnits="userSpaceOnUse" gradientTransform="translate(271.179 122.27) rotate(-173.333) scale(51.5145 35.9858)">
<stop stop-color="#1172EB"/>
<stop offset="1" stop-color="#1172EB" stop-opacity="0.12"/>
</radialGradient>
<linearGradient id="paint23_linear" x1="157.209" y1="151.887" x2="339.249" y2="338.196" gradientUnits="userSpaceOnUse">
<stop stop-color="#22C532"/>
<stop offset="1" stop-color="#BFDBFF"/>
</linearGradient>
<linearGradient id="paint24_linear" x1="310" y1="201" x2="310" y2="295.5" gradientUnits="userSpaceOnUse">
<stop stop-color="#FFEDF6"/>
<stop offset="1" stop-color="#FFEDF6" stop-opacity="0"/>
</linearGradient>
</defs>
</svg>
