<svg width="689" height="320" viewBox="0 0 689 320" fill="none" xmlns="http://www.w3.org/2000/svg">
<path fill-rule="evenodd" clip-rule="evenodd" d="M592.079 13.1174H595.582V16.6206H592.079V13.1174ZM629.446 13.1174H632.949V16.6206H629.446V13.1174ZM670.317 13.1174H666.813V16.6206H670.317V13.1174ZM610.763 13.1174H614.266V16.6206H610.763V13.1174ZM651.633 13.1174H648.13V16.6206H651.633V13.1174ZM685.497 13.1174H689V16.6206H685.497V13.1174ZM632.949 50.4845H629.446V53.9877H632.949V50.4845ZM666.813 50.4845H670.317V53.9877H666.813V50.4845ZM651.633 50.4845H648.13V53.9877H651.633V50.4845ZM685.497 50.4845H689V53.9877H685.497V50.4845ZM670.317 87.8516H666.813V91.3548H670.317V87.8516ZM685.497 87.8516H689V91.3548H685.497V87.8516ZM632.949 31.801H629.446V35.3041H632.949V31.801ZM666.813 31.801H670.317V35.3041H666.813V31.801ZM614.266 31.801H610.763V35.3041H614.266V31.801ZM648.13 31.801H651.633V35.3041H648.13V31.801ZM689 31.801H685.497V35.3041H689V31.801ZM666.813 69.1681H670.317V72.6712H666.813V69.1681ZM651.633 69.1681H648.13V72.6712H651.633V69.1681ZM685.497 69.1681H689V72.6712H685.497V69.1681ZM689 106.535H685.497V110.038H689V106.535Z" fill="#D8D8DF"/>
<path opacity="0.35" fill-rule="evenodd" clip-rule="evenodd" d="M1.86719 254.117C1.03876 254.117 0.367188 254.789 0.367188 255.617V256.121C0.367188 256.949 1.03876 257.621 1.86719 257.621H2.37035C3.19878 257.621 3.87035 256.949 3.87035 256.121V255.617C3.87035 254.789 3.19878 254.117 2.37035 254.117H1.86719ZM76.6014 254.117C75.7729 254.117 75.1014 254.789 75.1014 255.617V256.121C75.1014 256.949 75.7729 257.621 76.6014 257.621H77.1045C77.933 257.621 78.6045 256.949 78.6045 256.121V255.617C78.6045 254.789 77.933 254.117 77.1045 254.117H76.6014ZM112.468 255.617C112.468 254.789 113.14 254.117 113.968 254.117H114.472C115.3 254.117 115.972 254.789 115.972 255.617V256.121C115.972 256.949 115.3 257.621 114.472 257.621H113.968C113.14 257.621 112.468 256.949 112.468 256.121V255.617ZM39.2343 254.117C38.4058 254.117 37.7343 254.789 37.7343 255.617V256.121C37.7343 256.949 38.4058 257.621 39.2343 257.621H39.7374C40.5659 257.621 41.2374 256.949 41.2374 256.121V255.617C41.2374 254.789 40.5659 254.117 39.7374 254.117H39.2343ZM149.836 255.617C149.836 254.789 150.507 254.117 151.336 254.117H151.839C152.667 254.117 153.339 254.789 153.339 255.617V256.121C153.339 256.949 152.667 257.621 151.839 257.621H151.336C150.507 257.621 149.836 256.949 149.836 256.121V255.617ZM95.2849 254.117C94.4565 254.117 93.7849 254.789 93.7849 255.617V256.121C93.7849 256.949 94.4565 257.621 95.2849 257.621H95.7881C96.6165 257.621 97.2881 256.949 97.2881 256.121V255.617C97.2881 254.789 96.6165 254.117 95.7881 254.117H95.2849ZM19.0507 255.617C19.0507 254.789 19.7223 254.117 20.5507 254.117H21.0539C21.8823 254.117 22.5539 254.789 22.5539 255.617V256.121C22.5539 256.949 21.8823 257.621 21.0539 257.621H20.5507C19.7223 257.621 19.0507 256.949 19.0507 256.121V255.617ZM132.652 254.117C131.824 254.117 131.152 254.789 131.152 255.617V256.121C131.152 256.949 131.824 257.621 132.652 257.621H133.155C133.984 257.621 134.655 256.949 134.655 256.121V255.617C134.655 254.789 133.984 254.117 133.155 254.117H132.652ZM56.4178 255.617C56.4178 254.789 57.0894 254.117 57.9178 254.117H58.421C59.2494 254.117 59.921 254.789 59.921 255.617V256.121C59.921 256.949 59.2494 257.621 58.421 257.621H57.9178C57.0894 257.621 56.4178 256.949 56.4178 256.121V255.617ZM170.019 254.117C169.191 254.117 168.519 254.789 168.519 255.617V256.121C168.519 256.949 169.191 257.621 170.019 257.621H170.522C171.351 257.621 172.022 256.949 172.022 256.121V255.617C172.022 254.789 171.351 254.117 170.522 254.117H170.019ZM75.1014 292.985C75.1014 292.156 75.7729 291.485 76.6014 291.485H77.1045C77.933 291.485 78.6045 292.156 78.6045 292.985V293.488C78.6045 294.316 77.933 294.988 77.1045 294.988H76.6014C75.7729 294.988 75.1014 294.316 75.1014 293.488V292.985ZM1.86719 291.485C1.03876 291.485 0.367188 292.156 0.367188 292.985V293.488C0.367188 294.316 1.03876 294.988 1.86719 294.988H2.37035C3.19878 294.988 3.87035 294.316 3.87035 293.488V292.985C3.87035 292.156 3.19878 291.485 2.37035 291.485H1.86719ZM112.468 292.985C112.468 292.156 113.14 291.485 113.968 291.485H114.472C115.3 291.485 115.972 292.156 115.972 292.985V293.488C115.972 294.316 115.3 294.988 114.472 294.988H113.968C113.14 294.988 112.468 294.316 112.468 293.488V292.985ZM39.2343 291.485C38.4058 291.485 37.7343 292.156 37.7343 292.985V293.488C37.7343 294.316 38.4058 294.988 39.2343 294.988H39.7374C40.5659 294.988 41.2374 294.316 41.2374 293.488V292.985C41.2374 292.156 40.5659 291.485 39.7374 291.485H39.2343ZM149.836 292.985C149.836 292.156 150.507 291.485 151.336 291.485H151.839C152.667 291.485 153.339 292.156 153.339 292.985V293.488C153.339 294.316 152.667 294.988 151.839 294.988H151.336C150.507 294.988 149.836 294.316 149.836 293.488V292.985ZM95.2849 291.485C94.4565 291.485 93.7849 292.156 93.7849 292.985V293.488C93.7849 294.316 94.4565 294.988 95.2849 294.988H95.7881C96.6165 294.988 97.2881 294.316 97.2881 293.488V292.985C97.2881 292.156 96.6165 291.485 95.7881 291.485H95.2849ZM19.0507 292.985C19.0507 292.156 19.7223 291.485 20.5507 291.485H21.0539C21.8823 291.485 22.5539 292.156 22.5539 292.985V293.488C22.5539 294.316 21.8823 294.988 21.0539 294.988H20.5507C19.7223 294.988 19.0507 294.316 19.0507 293.488V292.985ZM132.652 291.485C131.824 291.485 131.152 292.156 131.152 292.985V293.488C131.152 294.316 131.824 294.988 132.652 294.988H133.155C133.984 294.988 134.655 294.316 134.655 293.488V292.985C134.655 292.156 133.984 291.485 133.155 291.485H132.652ZM56.4178 292.985C56.4178 292.156 57.0894 291.485 57.9178 291.485H58.421C59.2494 291.485 59.921 292.156 59.921 292.985V293.488C59.921 294.316 59.2494 294.988 58.421 294.988H57.9178C57.0894 294.988 56.4178 294.316 56.4178 293.488V292.985ZM170.019 291.485C169.191 291.485 168.519 292.156 168.519 292.985V293.488C168.519 294.316 169.191 294.988 170.019 294.988H170.522C171.351 294.988 172.022 294.316 172.022 293.488V292.985C172.022 292.156 171.351 291.485 170.522 291.485H170.019ZM75.1014 274.301C75.1014 273.473 75.7729 272.801 76.6014 272.801H77.1045C77.933 272.801 78.6045 273.473 78.6045 274.301V274.804C78.6045 275.633 77.933 276.304 77.1045 276.304H76.6014C75.7729 276.304 75.1014 275.633 75.1014 274.804V274.301ZM1.86719 272.801C1.03876 272.801 0.367188 273.473 0.367188 274.301V274.804C0.367188 275.633 1.03876 276.304 1.86719 276.304H2.37035C3.19878 276.304 3.87035 275.633 3.87035 274.804V274.301C3.87035 273.473 3.19878 272.801 2.37035 272.801H1.86719ZM112.468 274.301C112.468 273.473 113.14 272.801 113.968 272.801H114.472C115.3 272.801 115.972 273.473 115.972 274.301V274.804C115.972 275.633 115.3 276.304 114.472 276.304H113.968C113.14 276.304 112.468 275.633 112.468 274.804V274.301ZM39.2343 272.801C38.4058 272.801 37.7343 273.473 37.7343 274.301V274.804C37.7343 275.633 38.4058 276.304 39.2343 276.304H39.7374C40.5659 276.304 41.2374 275.633 41.2374 274.804V274.301C41.2374 273.473 40.5659 272.801 39.7374 272.801H39.2343ZM149.836 274.301C149.836 273.473 150.507 272.801 151.336 272.801H151.839C152.667 272.801 153.339 273.473 153.339 274.301V274.804C153.339 275.633 152.667 276.304 151.839 276.304H151.336C150.507 276.304 149.836 275.633 149.836 274.804V274.301ZM95.2849 272.801C94.4565 272.801 93.7849 273.473 93.7849 274.301V274.804C93.7849 275.633 94.4565 276.304 95.2849 276.304H95.7881C96.6165 276.304 97.2881 275.633 97.2881 274.804V274.301C97.2881 273.473 96.6165 272.801 95.7881 272.801H95.2849ZM19.0507 274.301C19.0507 273.473 19.7223 272.801 20.5507 272.801H21.0539C21.8823 272.801 22.5539 273.473 22.5539 274.301V274.804C22.5539 275.633 21.8823 276.304 21.0539 276.304H20.5507C19.7223 276.304 19.0507 275.633 19.0507 274.804V274.301ZM132.652 272.801C131.824 272.801 131.152 273.473 131.152 274.301V274.804C131.152 275.633 131.824 276.304 132.652 276.304H133.155C133.984 276.304 134.655 275.633 134.655 274.804V274.301C134.655 273.473 133.984 272.801 133.155 272.801H132.652ZM56.4178 274.301C56.4178 273.473 57.0894 272.801 57.9178 272.801H58.421C59.2494 272.801 59.921 273.473 59.921 274.301V274.804C59.921 275.633 59.2494 276.304 58.421 276.304H57.9178C57.0894 276.304 56.4178 275.633 56.4178 274.804V274.301ZM170.019 272.801C169.191 272.801 168.519 273.473 168.519 274.301V274.804C168.519 275.633 169.191 276.304 170.019 276.304H170.522C171.351 276.304 172.022 275.633 172.022 274.804V274.301C172.022 273.473 171.351 272.801 170.522 272.801H170.019Z" fill="#D8D8DF"/>
<rect x="137.111" y="88.3516" width="4.83861" height="4.83861" stroke="#437CD7"/>
<circle cx="16.3354" cy="91.3547" r="2.33544" fill="#437CD7"/>
<circle cx="77.057" cy="91.3547" r="2.33544" fill="#437CD7"/>
<circle cx="142.335" cy="24.7947" r="2.33544" fill="#437CD7"/>
<circle cx="137.778" cy="159.083" r="2.33544" fill="#437CD7"/>
<circle cx="137.778" cy="224.475" r="2.33544" fill="#437CD7"/>
<path d="M82.0027 154.412V163.754M77.057 159.083H86.3988" stroke="#437CD7"/>
<ellipse cx="542" cy="188.617" rx="2" ry="2.5" fill="#437CD7"/>
<circle cx="602.5" cy="188.276" r="2.5" fill="#437CD7"/>
<circle cx="663.5" cy="188.276" r="2.5" fill="#437CD7"/>
<circle cx="598" cy="253.776" r="2" fill="#437CD7"/>
<path d="M542.142 246.662V256.003M537.196 251.333H546.538" stroke="#437CD7"/>
<path opacity="0.75" d="M232.648 116.228V91.6844C232.648 54.6458 262.674 24.4497 299.834 24.4497H417.559C452.638 24.4497 481.177 52.7121 481.474 87.9657L481.772 118.162C481.772 122.624 482.961 126.938 485.042 130.954L500.055 158.175C502.879 163.233 500.352 169.778 494.704 171.414L486.929 173.829C483.862 174.781 481.772 177.619 481.772 180.831V215.89C481.772 223.179 475.975 228.98 468.691 228.98H445.503C438.517 228.98 432.72 234.633 432.72 241.773V262.151C432.72 267.655 428.261 272.117 422.761 272.117H291.956C286.754 272.117 282.592 267.952 282.592 262.746V241.773C282.592 235.525 277.538 230.468 271.295 230.468H247.81C239.783 230.468 233.391 223.923 233.391 216.039V181.993C233.391 178.939 231.499 176.206 228.642 175.13L216 170.373C212.582 169.034 210.947 165.018 212.73 161.745L229.824 128.128C231.608 124.558 232.648 120.393 232.648 116.228Z" fill="url(#paint0_radial)"/>
<path opacity="0.6" d="M240.351 106.896V82.3522C240.351 45.3136 270.377 15.1174 307.537 15.1174H425.261C460.341 15.1174 488.88 43.3798 489.177 78.6334L489.475 108.83C489.475 113.292 490.664 117.606 492.745 121.622L507.758 148.843C510.582 153.901 508.055 160.446 502.406 162.082L492.913 165.03C490.868 165.665 489.475 167.557 489.475 169.698V206.558C489.475 213.847 483.678 219.648 476.394 219.648H453.206C446.22 219.648 440.423 225.3 440.423 232.44V252.819C440.423 258.323 435.964 262.785 430.464 262.785H299.659C294.457 262.785 290.295 258.62 290.295 253.414V232.44C290.295 226.193 285.241 221.135 278.998 221.135H255.513C247.486 221.135 241.094 214.59 241.094 206.707V170.969C241.094 168.933 239.833 167.111 237.928 166.394L223.703 161.041C220.284 159.702 218.649 155.686 220.433 152.413L237.527 118.796C239.311 115.226 240.351 111.061 240.351 106.896Z" stroke="url(#paint1_linear)" stroke-linecap="round" stroke-dasharray="1.63 3.26"/>
<path opacity="0.6" d="M361.101 264.402V173.176C361.101 172.404 360.1 172.045 359.572 172.608C353.894 178.663 345.542 182.169 336.446 181.083C323.822 179.746 313.574 169.498 312.238 156.874C310.307 140.24 323.228 126.279 339.565 126.279C347.491 126.279 354.566 129.681 359.582 134.947C360.112 135.503 361.101 135.142 361.101 134.374V98.7133C361.101 97.9037 362.2 97.5589 362.708 98.189C368.259 105.066 377.1 109.251 386.795 108.308C399.567 107.12 409.964 96.8722 411.3 84.0995C413.231 67.6138 400.31 53.5045 384.121 53.5045C375.449 53.5045 367.735 57.5797 362.703 63.7919C362.195 64.4198 361.101 64.0747 361.101 63.2667V31.2266" stroke="url(#paint2_linear)" stroke-linecap="round" stroke-dasharray="1.63 3.26"/>
<path opacity="0.6" d="M247 189.117C250 192.117 265.8 195.117 273 189.117" stroke="url(#paint3_linear)" stroke-linecap="round" stroke-dasharray="1.63 3.26"/>
<path opacity="0.6" d="M453 184.117C456 187.117 471.8 190.117 479 184.117" stroke="url(#paint4_linear)" stroke-linecap="round" stroke-dasharray="1.63 3.26"/>
<circle cx="484.814" cy="23.9309" r="23.8134" fill="url(#paint5_linear)"/>
<circle cx="270.814" cy="279.931" r="23.8134" fill="url(#paint6_linear)"/>
<circle opacity="0.6" cx="267.814" cy="285.931" r="23.8134" transform="rotate(120.779 267.814 285.931)" stroke="url(#paint7_linear)" stroke-linecap="round" stroke-dasharray="1.63 3.26"/>
<circle opacity="0.6" cx="489.814" cy="27.9309" r="23.8134" stroke="url(#paint8_linear)" stroke-linecap="round" stroke-dasharray="1.63 3.26"/>
<path d="M263.832 285.117C263.041 285.117 262.563 284.242 262.991 283.577L270.159 272.426C270.553 271.814 271.448 271.814 271.841 272.426L279.01 283.577C279.437 284.242 278.96 285.117 278.168 285.117L263.832 285.117Z" fill="white"/>
<rect x="475.138" y="24.2549" width="14.1421" height="14.1421" rx="1" transform="rotate(-45 475.138 24.2549)" fill="white"/>
<circle opacity="0.75" cx="537" cy="15.1174" r="12" fill="url(#paint9_radial)"/>
<circle opacity="0.75" cx="519.5" cy="54.6174" r="6.5" fill="url(#paint10_radial)"/>
<circle opacity="0.75" cx="218.5" cy="296.617" r="6.5" fill="url(#paint11_radial)"/>
<defs>
<radialGradient id="paint0_radial" cx="0" cy="0" r="1" gradientUnits="userSpaceOnUse" gradientTransform="translate(-47.8909 -135.953) rotate(39.4152) scale(616.516 580.482)">
<stop stop-color="#2B2B3A"/>
<stop offset="1" stop-color="#D8D8DF" stop-opacity="0"/>
</radialGradient>
<linearGradient id="paint1_linear" x1="460.446" y1="31.4114" x2="292.207" y2="208.324" gradientUnits="userSpaceOnUse">
<stop stop-color="#437CD7"/>
<stop offset="1" stop-color="#F0047F" stop-opacity="0"/>
</linearGradient>
<linearGradient id="paint2_linear" x1="377.384" y1="52.964" x2="254.257" y2="101.125" gradientUnits="userSpaceOnUse">
<stop stop-color="#437CD7"/>
<stop offset="1" stop-color="#437CD7"/>
</linearGradient>
<linearGradient id="paint3_linear" x1="264.083" y1="189.44" x2="263.315" y2="194.721" gradientUnits="userSpaceOnUse">
<stop stop-color="#437CD7"/>
<stop offset="1" stop-color="#437CD7"/>
</linearGradient>
<linearGradient id="paint4_linear" x1="470.083" y1="184.44" x2="469.315" y2="189.721" gradientUnits="userSpaceOnUse">
<stop stop-color="#437CD7"/>
<stop offset="1" stop-color="#437CD7"/>
</linearGradient>
<linearGradient id="paint5_linear" x1="461" y1="0.117432" x2="520.984" y2="41.9195" gradientUnits="userSpaceOnUse">
<stop stop-color="#437CD7"/>
<stop offset="0.932292" stop-color="white"/>
</linearGradient>
<linearGradient id="paint6_linear" x1="247" y1="256.117" x2="306.984" y2="297.919" gradientUnits="userSpaceOnUse">
<stop stop-color="#C5E10E"/>
<stop offset="0.932292" stop-color="white"/>
</linearGradient>
<linearGradient id="paint7_linear" x1="283.645" y1="265.251" x2="251.428" y2="294.261" gradientUnits="userSpaceOnUse">
<stop stop-color="#437CD7"/>
<stop offset="1" stop-color="#F0047F" stop-opacity="0"/>
</linearGradient>
<linearGradient id="paint8_linear" x1="505.644" y1="7.25078" x2="473.428" y2="36.2612" gradientUnits="userSpaceOnUse">
<stop stop-color="#437CD7"/>
<stop offset="1" stop-color="#437CD7"/>
</linearGradient>
<radialGradient id="paint9_radial" cx="0" cy="0" r="1" gradientUnits="userSpaceOnUse" gradientTransform="translate(467.5 -84.3672) rotate(55.4656) scale(152.584 109.568)">
<stop stop-color="#2B2B3A"/>
<stop offset="1" stop-color="#D8D8DF" stop-opacity="0"/>
</radialGradient>
<radialGradient id="paint10_radial" cx="0" cy="0" r="1" gradientUnits="userSpaceOnUse" gradientTransform="translate(481.854 0.729899) rotate(55.4656) scale(82.6496 59.3492)">
<stop stop-color="#2B2B3A"/>
<stop offset="1" stop-color="#D8D8DF" stop-opacity="0"/>
</radialGradient>
<radialGradient id="paint11_radial" cx="0" cy="0" r="1" gradientUnits="userSpaceOnUse" gradientTransform="translate(180.854 242.73) rotate(55.4656) scale(82.6496 59.3492)">
<stop stop-color="#2B2B3A"/>
<stop offset="1" stop-color="#D8D8DF" stop-opacity="0"/>
</radialGradient>
</defs>
</svg>
