<svg width="738" height="302" viewBox="0 0 738 302" fill="none" xmlns="http://www.w3.org/2000/svg">
<g opacity="0.6">
<path d="M649.426 168.969C629.891 168.969 614 153.078 614 133.543C614 114.008 629.891 98.1174 649.426 98.1174C668.957 98.1174 684.851 114.008 684.851 133.543C684.851 153.078 668.957 168.969 649.426 168.969ZM649.426 111.186C637.099 111.186 627.068 121.216 627.068 133.543C627.068 145.87 637.099 155.901 649.426 155.901C661.753 155.901 671.783 145.87 671.783 133.543C671.783 121.216 661.753 111.186 649.426 111.186Z" fill="url(#paint0_linear)"/>
</g>
<path d="M492.042 147.163C492.398 147.586 493.029 147.639 493.451 147.283L500.332 141.483C500.754 141.127 500.808 140.496 500.452 140.073C500.096 139.651 499.465 139.597 499.043 139.953L492.926 145.11L487.77 138.993C487.414 138.571 486.783 138.517 486.361 138.873C485.939 139.229 485.885 139.86 486.241 140.282L492.042 147.163ZM429.709 47.07C429.197 47.2754 428.947 47.8575 429.153 48.3702L432.5 56.7248C432.705 57.2375 433.287 57.4866 433.8 57.2812C434.312 57.0759 434.561 56.4938 434.356 55.9811L431.381 48.5548L438.808 45.5799C439.32 45.3746 439.569 44.7925 439.364 44.2798C439.159 43.7671 438.577 43.518 438.064 43.7233L429.709 47.07ZM493.803 146.604C495.789 123.282 485.894 70.7973 430.475 47.079L429.688 48.9177C484.054 72.1856 493.751 123.653 491.81 146.434L493.803 146.604Z" fill="url(#paint1_radial)"/>
<path d="M336.928 51.372C337.134 50.8593 336.885 50.2772 336.372 50.0717L328.018 46.7241C327.505 46.5187 326.923 46.7678 326.717 47.2804C326.512 47.7931 326.761 48.3752 327.274 48.5806L334.7 51.5563L331.724 58.9823C331.519 59.495 331.768 60.0771 332.28 60.2825C332.793 60.4879 333.375 60.2389 333.581 59.7262L336.928 51.372ZM277.752 153.762C278.173 154.12 278.804 154.068 279.161 153.647L284.985 146.786C285.343 146.365 285.291 145.734 284.87 145.376C284.449 145.019 283.818 145.071 283.461 145.492L278.284 151.59L272.185 146.413C271.764 146.056 271.133 146.107 270.775 146.528C270.418 146.95 270.469 147.581 270.89 147.938L277.752 153.762ZM335.607 50.0806C314.117 59.2749 272.468 92.723 277.402 153.081L279.395 152.919C274.554 93.6908 315.409 60.8975 336.393 51.9194L335.607 50.0806Z" fill="url(#paint2_radial)"/>
<path d="M325.94 241.3C325.392 241.369 325.003 241.868 325.072 242.416L326.186 251.347C326.255 251.895 326.755 252.284 327.303 252.216C327.851 252.147 328.239 251.647 328.171 251.099L327.18 243.161L335.118 242.17C335.666 242.102 336.055 241.602 335.987 241.054C335.918 240.506 335.419 240.117 334.871 240.186L325.94 241.3ZM443.834 243.571C443.941 243.029 443.588 242.503 443.047 242.396L434.217 240.65C433.676 240.543 433.15 240.895 433.042 241.437C432.935 241.979 433.288 242.505 433.83 242.612L441.678 244.164L440.126 252.012C440.018 252.554 440.371 253.08 440.913 253.187C441.454 253.294 441.981 252.942 442.088 252.4L443.834 243.571ZM325.45 243.082C343.923 257.455 393.325 277.754 443.409 244.208L442.296 242.546C393.163 275.456 344.723 255.543 326.678 241.503L325.45 243.082Z" fill="url(#paint3_radial)"/>
<circle opacity="0.75" cx="381.5" cy="46.5" r="37.5" fill="url(#paint4_radial)"/>
<circle opacity="0.6" cx="397.5" cy="38.5" r="37.5" stroke="url(#paint5_linear)" stroke-linecap="round" stroke-dasharray="2 4"/>
<rect opacity="0.6" x="452" y="157" width="72" height="71" rx="3" stroke="url(#paint6_linear)" stroke-linecap="round" stroke-dasharray="2 4"/>
<rect opacity="0.75" x="435" y="170" width="72" height="71" rx="3" fill="url(#paint7_radial)"/>
<path opacity="0.75" d="M326.93 227H263.25C260.929 227 259.487 224.477 260.666 222.477L293.629 166.542C294.81 164.538 297.724 164.582 298.843 166.621L329.56 222.556C330.658 224.555 329.211 227 326.93 227Z" fill="url(#paint8_radial)"/>
<path opacity="0.6" d="M310.93 229H247.25C244.929 229 243.487 226.477 244.666 224.477L277.629 168.542C278.81 166.538 281.724 166.582 282.843 168.621L313.56 224.556C314.658 226.555 313.211 229 310.93 229Z" stroke="url(#paint9_linear)" stroke-linecap="round" stroke-dasharray="2 4"/>
<path opacity="0.5" fill-rule="evenodd" clip-rule="evenodd" d="M641.078 13.4114H644.581V16.9145H641.078V13.4114ZM678.445 13.4114H681.948V16.9145H678.445V13.4114ZM719.315 13.4114H715.812V16.9145H719.315V13.4114ZM659.762 13.4114H663.265V16.9145H659.762V13.4114ZM700.632 13.4114H697.129V16.9145H700.632V13.4114ZM734.496 13.4114H737.999V16.9145H734.496V13.4114ZM681.948 50.7785H678.445V54.2816H681.948V50.7785ZM715.812 50.7785H719.315V54.2816H715.812V50.7785ZM700.632 50.7785H697.129V54.2816H700.632V50.7785ZM734.496 50.7785H737.999V54.2816H734.496V50.7785ZM719.315 88.1456H715.812V91.6487H719.315V88.1456ZM734.496 88.1456H737.999V91.6487H734.496V88.1456ZM681.948 32.0949H678.445V35.5981H681.948V32.0949ZM715.812 32.0949H719.315V35.5981H715.812V32.0949ZM663.265 32.0949H659.762V35.5981H663.265V32.0949ZM697.129 32.0949H700.632V35.5981H697.129V32.0949ZM737.999 32.0949H734.496V35.5981H737.999V32.0949ZM715.812 69.462H719.315V72.9652H715.812V69.462ZM700.632 69.462H697.129V72.9652H700.632V69.462ZM734.496 69.462H737.999V72.9652H734.496V69.462ZM737.999 106.829H734.496V110.332H737.999V106.829Z" fill="#ADADB8"/>
<path opacity="0.5" fill-rule="evenodd" clip-rule="evenodd" d="M1.5 255.13C0.671573 255.13 0 255.801 0 256.63V257.133C0 257.961 0.671572 258.633 1.5 258.633H2.00316C2.83159 258.633 3.50316 257.961 3.50316 257.133V256.63C3.50316 255.801 2.83159 255.13 2.00317 255.13H1.5ZM113.601 255.13C112.773 255.13 112.101 255.801 112.101 256.63V257.133C112.101 257.961 112.773 258.633 113.601 258.633H114.104C114.933 258.633 115.604 257.961 115.604 257.133V256.63C115.604 255.801 114.933 255.13 114.104 255.13H113.601ZM37.3671 256.63C37.3671 255.801 38.0386 255.13 38.8671 255.13H39.3702C40.1987 255.13 40.8702 255.801 40.8702 256.63V257.133C40.8702 257.961 40.1987 258.633 39.3702 258.633H38.8671C38.0386 258.633 37.3671 257.961 37.3671 257.133V256.63ZM150.968 255.13C150.14 255.13 149.468 255.801 149.468 256.63V257.133C149.468 257.961 150.14 258.633 150.968 258.633H151.472C152.3 258.633 152.972 257.961 152.972 257.133V256.63C152.972 255.801 152.3 255.13 151.472 255.13H150.968ZM74.7342 256.63C74.7342 255.801 75.4058 255.13 76.2342 255.13H76.7374C77.5658 255.13 78.2374 255.801 78.2374 256.63V257.133C78.2374 257.961 77.5658 258.633 76.7374 258.633H76.2342C75.4058 258.633 74.7342 257.961 74.7342 257.133V256.63ZM188.335 255.13C187.507 255.13 186.835 255.801 186.835 256.63V257.133C186.835 257.961 187.507 258.633 188.335 258.633H188.839C189.667 258.633 190.339 257.961 190.339 257.133V256.63C190.339 255.801 189.667 255.13 188.839 255.13H188.335ZM18.6836 256.63C18.6836 255.801 19.3552 255.13 20.1836 255.13H20.6868C21.5152 255.13 22.1868 255.801 22.1868 256.63V257.133C22.1868 257.961 21.5152 258.633 20.6868 258.633H20.1836C19.3552 258.633 18.6836 257.961 18.6836 257.133V256.63ZM132.285 255.13C131.456 255.13 130.785 255.801 130.785 256.63V257.133C130.785 257.961 131.456 258.633 132.285 258.633H132.788C133.616 258.633 134.288 257.961 134.288 257.133V256.63C134.288 255.801 133.616 255.13 132.788 255.13H132.285ZM56.0507 256.63C56.0507 255.801 56.7222 255.13 57.5507 255.13H58.0538C58.8823 255.13 59.5538 255.801 59.5538 256.63V257.133C59.5538 257.961 58.8823 258.633 58.0538 258.633H57.5507C56.7222 258.633 56.0507 257.961 56.0507 257.133V256.63ZM169.652 255.13C168.823 255.13 168.152 255.801 168.152 256.63V257.133C168.152 257.961 168.823 258.633 169.652 258.633H170.155C170.983 258.633 171.655 257.961 171.655 257.133V256.63C171.655 255.801 170.983 255.13 170.155 255.13H169.652ZM93.4177 256.63C93.4177 255.801 94.0893 255.13 94.9177 255.13H95.4209C96.2493 255.13 96.9209 255.801 96.9209 256.63V257.133C96.9209 257.961 96.2493 258.633 95.4209 258.633H94.9177C94.0893 258.633 93.4177 257.961 93.4177 257.133V256.63ZM207.019 255.13C206.191 255.13 205.519 255.801 205.519 256.63V257.133C205.519 257.961 206.191 258.633 207.019 258.633H207.522C208.351 258.633 209.022 257.961 209.022 257.133V256.63C209.022 255.801 208.351 255.13 207.522 255.13H207.019ZM0 293.997C0 293.168 0.671573 292.497 1.5 292.497H2.00317C2.83159 292.497 3.50316 293.168 3.50316 293.997V294.5C3.50316 295.328 2.83159 296 2.00316 296H1.5C0.671572 296 0 295.328 0 294.5V293.997ZM113.601 292.497C112.773 292.497 112.101 293.168 112.101 293.997V294.5C112.101 295.328 112.773 296 113.601 296H114.104C114.933 296 115.604 295.328 115.604 294.5V293.997C115.604 293.168 114.933 292.497 114.104 292.497H113.601ZM37.3671 293.997C37.3671 293.168 38.0386 292.497 38.8671 292.497H39.3702C40.1987 292.497 40.8702 293.168 40.8702 293.997V294.5C40.8702 295.328 40.1987 296 39.3702 296H38.8671C38.0386 296 37.3671 295.328 37.3671 294.5V293.997ZM150.968 292.497C150.14 292.497 149.468 293.168 149.468 293.997V294.5C149.468 295.328 150.14 296 150.968 296H151.472C152.3 296 152.972 295.328 152.972 294.5V293.997C152.972 293.168 152.3 292.497 151.472 292.497H150.968ZM74.7342 293.997C74.7342 293.168 75.4058 292.497 76.2342 292.497H76.7374C77.5658 292.497 78.2374 293.168 78.2374 293.997V294.5C78.2374 295.328 77.5658 296 76.7374 296H76.2342C75.4058 296 74.7342 295.328 74.7342 294.5V293.997ZM188.335 292.497C187.507 292.497 186.835 293.168 186.835 293.997V294.5C186.835 295.328 187.507 296 188.335 296H188.839C189.667 296 190.339 295.328 190.339 294.5V293.997C190.339 293.168 189.667 292.497 188.839 292.497H188.335ZM18.6836 293.997C18.6836 293.168 19.3552 292.497 20.1836 292.497H20.6868C21.5152 292.497 22.1868 293.168 22.1868 293.997V294.5C22.1868 295.328 21.5152 296 20.6868 296H20.1836C19.3552 296 18.6836 295.328 18.6836 294.5V293.997ZM132.285 292.497C131.456 292.497 130.785 293.168 130.785 293.997V294.5C130.785 295.328 131.456 296 132.285 296H132.788C133.616 296 134.288 295.328 134.288 294.5V293.997C134.288 293.168 133.616 292.497 132.788 292.497H132.285ZM56.0507 293.997C56.0507 293.168 56.7222 292.497 57.5507 292.497H58.0538C58.8823 292.497 59.5538 293.168 59.5538 293.997V294.5C59.5538 295.328 58.8823 296 58.0538 296H57.5507C56.7222 296 56.0507 295.328 56.0507 294.5V293.997ZM169.652 292.497C168.823 292.497 168.152 293.168 168.152 293.997V294.5C168.152 295.328 168.823 296 169.652 296H170.155C170.983 296 171.655 295.328 171.655 294.5V293.997C171.655 293.168 170.983 292.497 170.155 292.497H169.652ZM93.4177 293.997C93.4177 293.168 94.0893 292.497 94.9177 292.497H95.4209C96.2493 292.497 96.9209 293.168 96.9209 293.997V294.5C96.9209 295.328 96.2493 296 95.4209 296H94.9177C94.0893 296 93.4177 295.328 93.4177 294.5V293.997ZM207.019 292.497C206.191 292.497 205.519 293.168 205.519 293.997V294.5C205.519 295.328 206.191 296 207.019 296H207.522C208.351 296 209.022 295.328 209.022 294.5V293.997C209.022 293.168 208.351 292.497 207.522 292.497H207.019ZM0 275.313C0 274.485 0.671573 273.813 1.5 273.813H2.00317C2.83159 273.813 3.50316 274.485 3.50316 275.313V275.816C3.50316 276.645 2.83159 277.316 2.00316 277.316H1.5C0.671572 277.316 0 276.645 0 275.816V275.313ZM113.601 273.813C112.773 273.813 112.101 274.485 112.101 275.313V275.816C112.101 276.645 112.773 277.316 113.601 277.316H114.104C114.933 277.316 115.604 276.645 115.604 275.816V275.313C115.604 274.485 114.933 273.813 114.104 273.813H113.601ZM37.3671 275.313C37.3671 274.485 38.0386 273.813 38.8671 273.813H39.3702C40.1987 273.813 40.8702 274.485 40.8702 275.313V275.816C40.8702 276.645 40.1987 277.316 39.3702 277.316H38.8671C38.0386 277.316 37.3671 276.645 37.3671 275.816V275.313ZM150.968 273.813C150.14 273.813 149.468 274.485 149.468 275.313V275.816C149.468 276.645 150.14 277.316 150.968 277.316H151.472C152.3 277.316 152.972 276.645 152.972 275.816V275.313C152.972 274.485 152.3 273.813 151.472 273.813H150.968ZM74.7342 275.313C74.7342 274.485 75.4058 273.813 76.2342 273.813H76.7374C77.5658 273.813 78.2374 274.485 78.2374 275.313V275.816C78.2374 276.645 77.5658 277.316 76.7374 277.316H76.2342C75.4058 277.316 74.7342 276.645 74.7342 275.816V275.313ZM188.335 273.813C187.507 273.813 186.835 274.485 186.835 275.313V275.816C186.835 276.645 187.507 277.316 188.335 277.316H188.839C189.667 277.316 190.339 276.645 190.339 275.816V275.313C190.339 274.485 189.667 273.813 188.839 273.813H188.335ZM18.6836 275.313C18.6836 274.485 19.3552 273.813 20.1836 273.813H20.6868C21.5152 273.813 22.1868 274.485 22.1868 275.313V275.816C22.1868 276.645 21.5152 277.316 20.6868 277.316H20.1836C19.3552 277.316 18.6836 276.645 18.6836 275.816V275.313ZM132.285 273.813C131.456 273.813 130.785 274.485 130.785 275.313V275.816C130.785 276.645 131.456 277.316 132.285 277.316H132.788C133.616 277.316 134.288 276.645 134.288 275.816V275.313C134.288 274.485 133.616 273.813 132.788 273.813H132.285ZM56.0507 275.313C56.0507 274.485 56.7222 273.813 57.5507 273.813H58.0538C58.8823 273.813 59.5538 274.485 59.5538 275.313V275.816C59.5538 276.645 58.8823 277.316 58.0538 277.316H57.5507C56.7222 277.316 56.0507 276.645 56.0507 275.816V275.313ZM169.652 273.813C168.823 273.813 168.152 274.485 168.152 275.313V275.816C168.152 276.645 168.823 277.316 169.652 277.316H170.155C170.983 277.316 171.655 276.645 171.655 275.816V275.313C171.655 274.485 170.983 273.813 170.155 273.813H169.652ZM93.4177 275.313C93.4177 274.485 94.0893 273.813 94.9177 273.813H95.4209C96.2493 273.813 96.9209 274.485 96.9209 275.313V275.816C96.9209 276.645 96.2493 277.316 95.4209 277.316H94.9177C94.0893 277.316 93.4177 276.645 93.4177 275.816V275.313ZM207.019 273.813C206.191 273.813 205.519 274.485 205.519 275.313V275.816C205.519 276.645 206.191 277.316 207.019 277.316H207.522C208.351 277.316 209.022 276.645 209.022 275.816V275.313C209.022 274.485 208.351 273.813 207.522 273.813H207.019Z" fill="#ADADB8"/>
<rect x="168.652" y="88.6455" width="4.83861" height="4.83861" stroke="#1172EB"/>
<circle cx="47.8765" cy="91.6487" r="2.33544" fill="#1172EB"/>
<circle cx="108.598" cy="91.6487" r="2.33544" fill="#1172EB"/>
<circle cx="218.364" cy="25.0886" r="2.33544" fill="#1172EB"/>
<circle cx="169.319" cy="159.376" r="2.33544" fill="#1172EB"/>
<circle cx="169.319" cy="224.769" r="2.33544" fill="#1172EB"/>
<path d="M113.544 154.706V164.048M108.598 159.377H117.94" stroke="#1172EB"/>
<ellipse cx="591" cy="188.5" rx="2" ry="2.5" fill="#1172EB"/>
<circle cx="651.5" cy="188.5" r="2.5" fill="#1172EB"/>
<circle cx="712.5" cy="188.5" r="2.5" fill="#1172EB"/>
<circle cx="647" cy="254" r="2" fill="#1172EB"/>
<path d="M591.141 246.956V256.298M586.195 251.627H595.537" stroke="#1172EB"/>
<rect x="565.701" y="257.626" width="6.4417" height="6.4417" stroke="#1172EB"/>
<path opacity="0.75" d="M199 198.767V201.359C199 201.629 199.198 201.917 199.468 201.917C200.175 201.917 200.776 202.409 201.031 203.068C201.11 203.273 201.198 203.477 201.294 203.678C201.579 204.274 201.512 205.006 201.034 205.464C200.836 205.662 200.836 205.968 201.034 206.166L202.852 208.002C203.05 208.2 203.356 208.2 203.554 208.002C204.05 207.507 204.816 207.432 205.454 207.721C205.661 207.814 205.87 207.899 206.083 207.976C206.723 208.206 207.209 208.78 207.209 209.46C207.209 209.73 207.425 210 207.695 210H210.287C210.557 210 210.791 209.73 210.791 209.46C210.791 208.756 211.288 208.161 211.946 207.91C212.156 207.831 212.362 207.742 212.565 207.645C213.179 207.351 213.928 207.412 214.41 207.894C214.608 208.092 214.914 208.092 215.112 207.894L216.948 206.058C217.146 205.86 217.146 205.554 216.948 205.356C216.451 204.849 216.38 204.072 216.668 203.424C216.762 203.211 216.848 202.994 216.925 202.774C217.151 202.132 217.726 201.647 218.406 201.647C218.676 201.647 218.892 201.485 218.892 201.215V198.641C218.892 198.371 218.676 198.209 218.406 198.209C217.695 198.209 217.103 197.697 216.855 197.031C216.776 196.819 216.689 196.616 216.593 196.417C216.288 195.788 216.338 195.023 216.822 194.518C217.02 194.32 217.02 194.014 216.822 193.816L215.004 191.998C214.806 191.8 214.5 191.8 214.302 191.998C213.806 192.493 213.04 192.568 212.402 192.279C212.195 192.186 211.986 192.101 211.773 192.024C211.133 191.794 210.647 191.22 210.647 190.54C210.647 190.27 210.413 190 210.143 190H207.569C207.299 190 207.083 190.27 207.083 190.54C207.083 191.244 206.586 191.839 205.927 192.088C205.717 192.167 205.51 192.255 205.307 192.352C204.694 192.645 203.945 192.587 203.464 192.106C203.266 191.908 202.96 191.908 202.762 192.106L200.926 193.924C200.728 194.122 200.728 194.428 200.926 194.626C201.421 195.122 201.494 195.887 201.202 196.523C201.107 196.729 201.021 196.938 200.945 197.153C200.716 197.792 200.147 198.281 199.468 198.281C199.198 198.263 199 198.497 199 198.767ZM204.671 199.991C204.671 197.633 206.579 195.725 208.937 195.725C211.295 195.725 213.203 197.633 213.203 199.991C213.203 202.349 211.295 204.275 208.937 204.275C206.579 204.275 204.671 202.349 204.671 199.991Z" fill="url(#paint10_radial)"/>
<path opacity="0.75" d="M504 54.7669V57.3591C504 57.6292 504.198 57.9172 504.468 57.9172H505.674C505.89 58.8353 506.286 59.8254 506.862 60.6715L506.034 61.4635C505.836 61.6616 505.836 61.9676 506.034 62.1656L507.852 64.0018C508.05 64.1998 508.356 64.1998 508.554 64.0018L509.401 63.1557C510.265 63.6958 511.219 64.0918 512.209 64.2898V65.4599C512.209 65.73 512.425 66 512.695 66H515.287C515.557 66 515.791 65.73 515.791 65.4599V64.2538C516.781 64.0378 517.717 63.6418 518.581 63.0657L519.41 63.8938C519.608 64.0918 519.914 64.0918 520.112 63.8938L521.948 62.0576C522.146 61.8596 522.146 61.5536 521.948 61.3555L521.102 60.4914C521.642 59.6274 522.038 58.6373 522.236 57.6472H523.406C523.676 57.6472 523.892 57.4851 523.892 57.2151V54.6409C523.892 54.3708 523.676 54.2088 523.406 54.2088H522.182C521.966 53.0927 521.57 52.2466 520.994 51.3825L521.822 50.5185C522.02 50.3204 522.02 50.0144 521.822 49.8164L520.004 47.9982C519.806 47.8002 519.5 47.8002 519.302 47.9982L518.455 48.8443C517.591 48.3042 516.637 47.9082 515.647 47.7102V46.5401C515.647 46.27 515.413 46 515.143 46H512.569C512.299 46 512.083 46.27 512.083 46.5401V47.7462C511.093 47.9622 510.139 48.3582 509.293 48.9343L508.464 48.1062C508.266 47.9082 507.96 47.9082 507.762 48.1062L505.926 49.9244C505.728 50.1224 505.728 50.4284 505.926 50.6265L506.772 51.4725C506.232 52.3366 505.836 53.2367 505.638 54.2808H504.468C504.198 54.2628 504 54.4969 504 54.7669ZM509.671 55.991C509.671 53.6328 511.579 51.7246 513.937 51.7246C516.295 51.7246 518.203 53.6328 518.203 55.991C518.203 58.3492 516.295 60.2754 513.937 60.2754C511.579 60.2754 509.671 58.3492 509.671 55.991Z" fill="url(#paint11_radial)"/>
<g opacity="0.16" filter="url(#filter0_f)">
<path d="M301.828 152.608H232.804C229.554 152.608 227 149.977 227 146.804V81.8036C227 78.5536 229.554 76 232.804 76H301.905C305.078 76 307.709 78.5536 307.709 81.8036V146.804C307.631 149.977 305.078 152.608 301.828 152.608Z" fill="#1B56A4"/>
</g>
<path d="M301.828 152.608H232.804C229.554 152.608 227 149.977 227 146.804V81.8036C227 78.5536 229.554 76 232.804 76H301.905C305.078 76 307.709 78.5536 307.709 81.8036V146.804C307.631 149.977 305.078 152.608 301.828 152.608Z" fill="white"/>
<path d="M307.631 86.0596H227V81.8036C227 78.5536 229.554 76 232.804 76H301.905C305.078 76 307.709 78.5536 307.709 81.8036V86.0596H307.631Z" fill="url(#paint12_radial)"/>
<path d="M238.221 81.1072C238.221 82.1131 237.447 82.8869 236.441 82.8869C235.435 82.8869 234.661 82.1131 234.661 81.1072C234.661 80.1012 235.435 79.3274 236.441 79.3274C237.447 79.3274 238.221 80.1012 238.221 81.1072Z" fill="#C6D5E8"/>
<path d="M242.09 82.8093C243.073 82.8093 243.87 82.0125 243.87 81.0295C243.87 80.0466 243.073 79.2498 242.09 79.2498C241.107 79.2498 240.31 80.0466 240.31 81.0295C240.31 82.0125 241.107 82.8093 242.09 82.8093Z" fill="#C6D5E8"/>
<path d="M249.519 81.0295C249.519 82.0355 248.745 82.8093 247.739 82.8093C246.733 82.8093 245.959 82.0355 245.959 81.0295C245.959 80.0236 246.733 79.2498 247.739 79.2498C248.745 79.2498 249.519 80.0236 249.519 81.0295Z" fill="#C6D5E8"/>
<path d="M307.632 92.7917H227V124.054H307.632V92.7917Z" fill="url(#paint13_linear)"/>
<path d="M288.054 100.53H269.792C269.173 100.53 268.631 99.988 268.631 99.369C268.631 98.7499 269.173 98.2083 269.792 98.2083H288.131C288.751 98.2083 289.292 98.7499 289.292 99.369C289.215 99.988 288.673 100.53 288.054 100.53Z" fill="white"/>
<path d="M293.549 133.185H241.084C240.465 133.185 239.924 132.643 239.924 132.024C239.924 131.405 240.465 130.864 241.084 130.864H293.549C294.168 130.864 294.71 131.405 294.71 132.024C294.71 132.643 294.168 133.185 293.549 133.185Z" fill="url(#paint14_linear)"/>
<path d="M293.549 138.679H241.084C240.465 138.679 239.924 138.137 239.924 137.518C239.924 136.899 240.465 136.357 241.084 136.357H293.549C294.168 136.357 294.71 136.899 294.71 137.518C294.71 138.137 294.168 138.679 293.549 138.679Z" fill="url(#paint15_linear)"/>
<path d="M293.549 144.173H241.084C240.465 144.173 239.924 143.631 239.924 143.012C239.924 142.393 240.465 141.852 241.084 141.852H293.549C294.168 141.852 294.71 142.393 294.71 143.012C294.71 143.631 294.168 144.173 293.549 144.173Z" fill="url(#paint16_linear)"/>
<path d="M288.054 104.631H269.792C269.173 104.631 268.631 104.09 268.631 103.471C268.631 102.851 269.173 102.31 269.792 102.31H288.131C288.751 102.31 289.292 102.851 289.292 103.471C289.215 104.09 288.673 104.631 288.054 104.631Z" fill="white"/>
<path d="M276.833 108.655H269.869C269.25 108.655 268.708 108.113 268.708 107.494C268.708 106.875 269.25 106.333 269.869 106.333H276.833C277.452 106.333 277.994 106.875 277.994 107.494C277.994 108.113 277.452 108.655 276.833 108.655Z" fill="white"/>
<path d="M276.833 112.679H269.869C269.25 112.679 268.708 112.137 268.708 111.518C268.708 110.899 269.25 110.357 269.869 110.357H276.833C277.452 110.357 277.994 110.899 277.994 111.518C277.994 112.214 277.452 112.679 276.833 112.679Z" fill="white"/>
<g opacity="0.16" filter="url(#filter1_f)">
<rect x="484" y="170" width="56.0506" height="42.038" rx="6" fill="#1B56A4"/>
</g>
<rect x="484" y="174" width="56.0506" height="42.038" rx="4" fill="url(#paint17_linear)"/>
<path d="M509.443 201.484C507.104 201.484 504.853 200.601 503.175 198.968C501.365 197.291 500.394 194.995 500.35 192.612C500.306 190.184 501.189 187.888 502.866 186.167C504.632 184.313 506.927 183.342 509.443 183.342C511.783 183.342 514.034 184.225 515.711 185.858C519.331 189.345 519.419 195.083 515.976 198.703C514.255 200.513 511.915 201.484 509.443 201.484ZM509.443 186.034C507.678 186.034 506.044 186.741 504.809 187.977C503.617 189.213 502.999 190.846 503.043 192.523C503.087 194.245 503.793 195.834 504.985 197.026C506.177 198.173 507.766 198.835 509.443 198.835C511.209 198.835 512.842 198.129 514.078 196.893C516.506 194.333 516.462 190.272 513.902 187.844C512.666 186.652 511.077 186.034 509.443 186.034Z" fill="white"/>
<path d="M515.925 196.799L514.059 198.739L522.329 206.696L524.196 204.756L515.925 196.799Z" fill="white"/>
<defs>
<filter id="filter0_f" x="163" y="12" width="208.709" height="204.608" filterUnits="userSpaceOnUse" color-interpolation-filters="sRGB">
<feFlood flood-opacity="0" result="BackgroundImageFix"/>
<feBlend mode="normal" in="SourceGraphic" in2="BackgroundImageFix" result="shape"/>
<feGaussianBlur stdDeviation="32" result="effect1_foregroundBlur"/>
</filter>
<filter id="filter1_f" x="420" y="106" width="184.051" height="170.038" filterUnits="userSpaceOnUse" color-interpolation-filters="sRGB">
<feFlood flood-opacity="0" result="BackgroundImageFix"/>
<feBlend mode="normal" in="SourceGraphic" in2="BackgroundImageFix" result="shape"/>
<feGaussianBlur stdDeviation="32" result="effect1_foregroundBlur"/>
</filter>
<linearGradient id="paint0_linear" x1="649.426" y1="98.1174" x2="649.426" y2="168.969" gradientUnits="userSpaceOnUse">
<stop stop-color="#22C532"/>
<stop offset="1" stop-color="#11C3FF"/>
</linearGradient>
<radialGradient id="paint1_radial" cx="0" cy="0" r="1" gradientUnits="userSpaceOnUse" gradientTransform="translate(555.001 307) rotate(-113.261) scale(302.596 158.761)">
<stop stop-color="#2B2B3A"/>
<stop offset="1" stop-color="#D8D8DF" stop-opacity="0"/>
</radialGradient>
<radialGradient id="paint2_radial" cx="0" cy="0" r="1" gradientUnits="userSpaceOnUse" gradientTransform="translate(448.471 -79.6395) rotate(128.652) scale(303.157 158.798)">
<stop stop-color="#2B2B3A"/>
<stop offset="1" stop-color="#D8D8DF" stop-opacity="0"/>
</radialGradient>
<radialGradient id="paint3_radial" cx="0" cy="0" r="1" gradientUnits="userSpaceOnUse" gradientTransform="translate(157.609 207.003) rotate(9.75491) scale(302.596 158.761)">
<stop stop-color="#2B2B3A"/>
<stop offset="1" stop-color="#D8D8DF" stop-opacity="0"/>
</radialGradient>
<radialGradient id="paint4_radial" cx="0" cy="0" r="1" gradientUnits="userSpaceOnUse" gradientTransform="translate(177.5 -116.5) rotate(42.7832) scale(329.051 303.463)">
<stop stop-color="#2B2B3A"/>
<stop offset="1" stop-color="#D8D8DF" stop-opacity="0"/>
</radialGradient>
<linearGradient id="paint5_linear" x1="360" y1="61.5945" x2="433.917" y2="10.1511" gradientUnits="userSpaceOnUse">
<stop stop-color="#1172EB"/>
<stop offset="1" stop-color="#1172EB" stop-opacity="0.31"/>
</linearGradient>
<linearGradient id="paint6_linear" x1="452" y1="214.363" x2="522.31" y2="164.741" gradientUnits="userSpaceOnUse">
<stop stop-color="#1172EB"/>
<stop offset="1" stop-color="#1172EB" stop-opacity="0.13"/>
</linearGradient>
<radialGradient id="paint7_radial" cx="0" cy="0" r="1" gradientUnits="userSpaceOnUse" gradientTransform="translate(268.622 95.1769) rotate(37.8975) scale(280.542 257.258)">
<stop stop-color="#2B2B3A"/>
<stop offset="1" stop-color="#D8D8DF" stop-opacity="0"/>
</radialGradient>
<radialGradient id="paint8_radial" cx="0" cy="0" r="1" gradientUnits="userSpaceOnUse" gradientTransform="translate(81 72) rotate(33.665) scale(316.595 275.297)">
<stop stop-color="#2B2B3A"/>
<stop offset="1" stop-color="#D8D8DF" stop-opacity="0"/>
</radialGradient>
<linearGradient id="paint9_linear" x1="242" y1="216.515" x2="308.506" y2="163.821" gradientUnits="userSpaceOnUse">
<stop stop-color="#1172EB"/>
<stop offset="1" stop-color="#1172EB" stop-opacity="0.11"/>
</linearGradient>
<radialGradient id="paint10_radial" cx="0" cy="0" r="1" gradientUnits="userSpaceOnUse" gradientTransform="translate(151.342 117.096) rotate(55.6103) scale(126.933 90.9709)">
<stop stop-color="#2B2B3A"/>
<stop offset="1" stop-color="#D8D8DF" stop-opacity="0"/>
</radialGradient>
<radialGradient id="paint11_radial" cx="0" cy="0" r="1" gradientUnits="userSpaceOnUse" gradientTransform="translate(543.784 35) rotate(141.516) scale(54.6359 38.2134)">
<stop stop-color="#1172EB"/>
<stop offset="1" stop-color="#BFDBFF"/>
</radialGradient>
<radialGradient id="paint12_radial" cx="0" cy="0" r="1" gradientUnits="userSpaceOnUse" gradientTransform="translate(207.848 90.9624) rotate(-13.1432) scale(121.075 971.398)">
<stop stop-color="#F7F7FA"/>
<stop offset="1" stop-color="#F7F7FA" stop-opacity="0"/>
</radialGradient>
<linearGradient id="paint13_linear" x1="162.961" y1="52.6586" x2="383.208" y2="159.79" gradientUnits="userSpaceOnUse">
<stop stop-color="#B3E24E"/>
<stop offset="1" stop-color="#22C532" stop-opacity="0"/>
</linearGradient>
<linearGradient id="paint14_linear" x1="196.411" y1="127.883" x2="205.304" y2="167.464" gradientUnits="userSpaceOnUse">
<stop stop-color="#1172EB"/>
<stop offset="1" stop-color="#BFDBFF" stop-opacity="0.29"/>
</linearGradient>
<linearGradient id="paint15_linear" x1="196.411" y1="133.377" x2="205.304" y2="172.958" gradientUnits="userSpaceOnUse">
<stop stop-color="#1172EB"/>
<stop offset="1" stop-color="#BFDBFF" stop-opacity="0.29"/>
</linearGradient>
<linearGradient id="paint16_linear" x1="196.411" y1="138.871" x2="205.304" y2="178.452" gradientUnits="userSpaceOnUse">
<stop stop-color="#1172EB"/>
<stop offset="1" stop-color="#BFDBFF" stop-opacity="0.29"/>
</linearGradient>
<linearGradient id="paint17_linear" x1="456.348" y1="152.23" x2="554.265" y2="240.001" gradientUnits="userSpaceOnUse">
<stop stop-color="#1172EB"/>
<stop offset="1" stop-color="white"/>
</linearGradient>
</defs>
</svg>
