<svg width="82" height="22" viewBox="0 0 82 22" fill="none" xmlns="http://www.w3.org/2000/svg">
<g clip-path="url(#clip0_7412:1017)">
<path d="M5.66959 11.223H4.62397V13.9649C5.75479 14.2127 6.45962 14.5148 6.73845 14.8711L6.50609 16.7997H0.23236L0 14.8711C0.201379 14.6077 0.627373 14.3521 1.27798 14.1043V3.48541C0.642864 3.25305 0.21687 2.98971 0 2.69538L0.23236 0.76679H6.38991C8.54312 0.797772 10.1503 1.18891 11.2114 1.94021C12.2725 2.69151 12.8031 4.02758 12.8031 5.94843C12.8031 9.46482 10.4252 11.223 5.66959 11.223ZM6.01814 3.29952H4.62397V8.69028H6.18079C7.23416 8.69028 8.02031 8.48116 8.53925 8.06291C9.05818 7.64466 9.31765 6.92047 9.31765 5.89034C9.31765 4.86021 9.03495 4.17087 8.46954 3.82233C7.90413 3.47379 7.08699 3.29952 6.01814 3.29952ZM14.2205 5.18164C15.0119 4.98957 15.8226 4.88823 16.637 4.87957C17.3806 4.87957 18.0079 4.90281 18.5191 4.94928V14.2205C19.003 14.3759 19.4417 14.6471 19.7971 15.0105L19.5648 16.7997H14.2205L13.9881 15.0105C14.205 14.7162 14.631 14.4528 15.2661 14.2205V7.76084C14.78 7.61011 14.3402 7.33825 13.9881 6.97081L14.2205 5.18164ZM16.8578 3.57835C15.5643 3.57835 14.9175 2.99358 14.9175 1.82403C14.9175 0.654483 15.5643 0.0697088 16.8578 0.0697088C18.1512 0.0697088 18.798 0.654483 18.798 1.82403C18.798 2.99358 18.1512 3.57835 16.8578 3.57835ZM20.7033 5.18164C21.458 5.00722 22.2292 4.91375 23.0037 4.90281C23.6853 4.90281 24.2507 4.9183 24.6999 4.94928V6.08784C25.6651 5.3835 26.8278 5.00136 28.0227 4.99575C29.5717 4.99575 30.6948 5.43724 31.3919 6.32021C32.089 7.20318 32.4375 8.67479 32.4375 10.7351C32.4565 11.7251 32.291 12.71 31.9496 13.6396C31.6817 14.3925 31.2258 15.0644 30.6251 15.5914C29.573 16.5148 28.214 17.012 26.8144 16.9856C26.2054 16.9883 25.5978 16.9259 25.002 16.7997V18.798C25.9159 19.0458 26.5046 19.3324 26.7679 19.6577L26.5356 21.4469H20.7033L20.471 19.6577C20.6723 19.3789 21.0983 19.1155 21.7489 18.8677V7.76084C21.2629 7.61011 20.8231 7.33825 20.471 6.97081L20.7033 5.18164ZM26.582 14.6155C26.9522 14.6213 27.3173 14.5287 27.6398 14.347C27.9624 14.1653 28.2309 13.9011 28.4177 13.5815C28.8669 12.8921 29.0915 11.9395 29.0915 10.7234C29.0915 9.50742 28.9676 8.67479 28.7198 8.22556C28.4719 7.77633 28.0227 7.55172 27.3721 7.55172C26.3807 7.55172 25.5906 7.78408 25.002 8.2488V14.4296C25.5187 14.5579 26.0496 14.6204 26.582 14.6155V14.6155ZM39.2224 16.9856C37.3636 16.9856 35.9655 16.4898 35.0283 15.4984C34.0912 14.507 33.6226 13.0664 33.6226 11.1765C33.5992 10.1672 33.7647 9.16244 34.1105 8.21394C34.3764 7.46995 34.8332 6.80889 35.435 6.29697C36.5065 5.43383 37.8467 4.97342 39.2224 4.99575C40.6631 4.99575 41.7668 5.36365 42.5336 6.09946C43.3004 6.83527 43.6838 8.15585 43.6838 10.0612C43.6838 11.1765 43.1338 11.7342 42.034 11.7342H36.9918C37.0537 12.7101 37.3055 13.3995 37.747 13.8022C38.1884 14.205 38.8894 14.4063 39.8498 14.4063C40.3591 14.4085 40.8666 14.346 41.3602 14.2205C41.7226 14.1398 42.0738 14.0149 42.4058 13.8487L42.7311 13.6628L43.4282 15.5217C43.3006 15.665 43.1648 15.8008 43.0215 15.9283C42.8434 16.091 42.3942 16.3078 41.6738 16.5789C40.8879 16.8612 40.0574 16.9989 39.2224 16.9856V16.9856ZM40.6863 9.6662C40.7201 9.40425 40.7356 9.14027 40.7328 8.87617C40.7148 8.51629 40.5848 8.17102 40.361 7.88864C40.1132 7.5401 39.6833 7.36583 39.0714 7.36583C38.8104 7.34901 38.549 7.39031 38.3059 7.48674C38.0628 7.58317 37.8441 7.73234 37.6656 7.92349C37.3403 8.29527 37.1235 8.92264 37.015 9.80561L40.6863 9.6662ZM44.8223 0.302069C45.6138 0.110005 46.4245 0.0086618 47.2389 0C47.9824 0 48.6098 0.0232368 49.121 0.0697088V14.2205C49.6049 14.3759 50.0436 14.6471 50.399 15.0105L50.1666 16.7997H44.8223L44.59 15.0105C44.8068 14.7162 45.2328 14.4528 45.868 14.2205V2.88127C45.3819 2.73055 44.9421 2.45869 44.59 2.09124L44.8223 0.302069ZM51.6305 5.18164C52.4219 4.98957 53.2327 4.88823 54.047 4.87957C54.7906 4.87957 55.418 4.90281 55.9292 4.94928V14.2205C56.4131 14.3759 56.8518 14.6471 57.2071 15.0105L56.9748 16.7997H51.6305L51.3981 15.0105C51.615 14.7162 52.041 14.4528 52.6761 14.2205V7.76084C52.19 7.61011 51.7503 7.33825 51.3981 6.97081L51.6305 5.18164ZM54.2678 3.57835C52.9743 3.57835 52.3276 2.99358 52.3276 1.82403C52.3276 0.654483 52.9743 0.0697088 54.2678 0.0697088C55.5613 0.0697088 56.208 0.654483 56.208 1.82403C56.208 2.99358 55.5613 3.57835 54.2678 3.57835ZM58.3689 5.18164C59.1236 5.00722 59.8948 4.91375 60.6693 4.90281C61.3509 4.90281 61.9163 4.9183 62.3655 4.94928V6.11108C62.8248 5.74775 63.3493 5.47565 63.9107 5.30944C64.5061 5.10825 65.1296 5.00238 65.758 4.99575C67.2761 4.99575 68.3411 5.35204 68.953 6.06461C69.5648 6.77718 69.8708 8.00869 69.8708 9.75914V14.2205C70.3547 14.3759 70.7934 14.6471 71.1488 15.0105L70.9164 16.7997H65.5721L65.3398 15.0105C65.5566 14.7162 65.9826 14.4528 66.6177 14.2205V9.61972C66.6177 8.78323 66.4822 8.22169 66.2111 7.93511C65.94 7.64853 65.4559 7.50524 64.7589 7.50524C64.0008 7.52617 63.2687 7.78644 62.6676 8.2488V14.2205C63.1515 14.3759 63.5902 14.6471 63.9456 15.0105L63.7132 16.7997H58.3689L58.1366 15.0105C58.3535 14.7162 58.7794 14.4528 59.4146 14.2205V7.76084C58.9285 7.61011 58.4887 7.33825 58.1366 6.97081L58.3689 5.18164ZM77.5387 16.9856C75.6798 16.9856 74.2818 16.4898 73.3446 15.4984C72.4074 14.507 71.9388 13.0664 71.9388 11.1765C71.9154 10.1672 72.0809 9.16245 72.4267 8.21394C72.6927 7.46995 73.1494 6.80889 73.7512 6.29697C74.8228 5.43383 76.1629 4.97342 77.5387 4.99575C78.9793 4.99575 80.083 5.36365 80.8498 6.09946C81.6166 6.83527 82 8.15585 82 10.0612C82 11.1765 81.4501 11.7342 80.3502 11.7342H75.308C75.37 12.7101 75.6217 13.3995 76.0632 13.8022C76.5047 14.205 77.2056 14.4063 78.1661 14.4063C78.6753 14.4085 79.1828 14.346 79.6764 14.2205C80.0388 14.1398 80.39 14.0149 80.722 13.8487L81.0473 13.6628L81.7444 15.5217C81.6169 15.665 81.4811 15.8008 81.3378 15.9283C81.1596 16.091 80.7104 16.3078 79.9901 16.5789C79.2042 16.8612 78.3736 16.9989 77.5387 16.9856V16.9856ZM79.0026 9.6662C79.0363 9.40425 79.0518 9.14027 79.049 8.87617C79.0311 8.51629 78.9011 8.17102 78.6772 7.88864C78.4294 7.5401 77.9995 7.36583 77.3876 7.36583C77.1267 7.34901 76.8652 7.39031 76.6221 7.48674C76.379 7.58317 76.1603 7.73234 75.9819 7.92349C75.6566 8.29527 75.4397 8.92264 75.3313 9.80561L79.0026 9.6662Z" fill="#921F5B"/>
</g>
<defs>
<clipPath id="clip0_7412:1017">
<rect width="82" height="21.4469" fill="white"/>
</clipPath>
</defs>
</svg>
