<svg width="129" height="129" viewBox="0 0 129 129" fill="none" xmlns="http://www.w3.org/2000/svg">
<rect width="2.63265" height="2.63265" rx="1.31633" fill="#DCDCDC"/>
<rect x="56.1633" width="2.63265" height="2.63265" rx="1.31633" fill="#DCDCDC"/>
<rect x="28.0815" width="2.63265" height="2.63265" rx="1.31633" fill="#DCDCDC"/>
<rect x="84.2449" width="2.63265" height="2.63265" rx="1.31633" fill="#DCDCDC"/>
<rect x="112.327" width="2.63265" height="2.63265" rx="1.31633" fill="#DCDCDC"/>
<rect x="14.0408" width="2.63265" height="2.63265" rx="1.31633" fill="#DCDCDC"/>
<rect x="70.2041" width="2.63265" height="2.63265" rx="1.31633" fill="#DCDCDC"/>
<rect x="42.1226" width="2.63265" height="2.63265" rx="1.31633" fill="#DCDCDC"/>
<rect x="98.2856" width="2.63265" height="2.63265" rx="1.31633" fill="#DCDCDC"/>
<rect x="126.367" width="2.63265" height="2.63265" rx="1.31633" fill="#DCDCDC"/>
<rect y="14.041" width="2.63265" height="2.63265" rx="1.31633" fill="#DCDCDC"/>
<rect x="56.1633" y="14.041" width="2.63265" height="2.63265" rx="1.31633" fill="#DCDCDC"/>
<rect x="28.0815" y="14.041" width="2.63265" height="2.63265" rx="1.31633" fill="#DCDCDC"/>
<rect x="84.2449" y="14.041" width="2.63265" height="2.63265" rx="1.31633" fill="#DCDCDC"/>
<rect x="112.327" y="14.041" width="2.63265" height="2.63265" rx="1.31633" fill="#DCDCDC"/>
<rect x="14.0408" y="14.041" width="2.63265" height="2.63265" rx="1.31633" fill="#DCDCDC"/>
<rect x="70.2041" y="14.041" width="2.63265" height="2.63265" rx="1.31633" fill="#DCDCDC"/>
<rect x="42.1226" y="14.041" width="2.63265" height="2.63265" rx="1.31633" fill="#DCDCDC"/>
<rect x="98.2856" y="14.041" width="2.63265" height="2.63265" rx="1.31633" fill="#DCDCDC"/>
<rect x="126.367" y="14.041" width="2.63265" height="2.63265" rx="1.31633" fill="#DCDCDC"/>
<rect y="28.0815" width="2.63265" height="2.63265" rx="1.31633" fill="#DCDCDC"/>
<rect x="56.1633" y="28.0815" width="2.63265" height="2.63265" rx="1.31633" fill="#DCDCDC"/>
<rect x="28.0815" y="28.0815" width="2.63265" height="2.63265" rx="1.31633" fill="#DCDCDC"/>
<rect x="84.2449" y="28.0815" width="2.63265" height="2.63265" rx="1.31633" fill="#DCDCDC"/>
<rect x="112.327" y="28.0815" width="2.63265" height="2.63265" rx="1.31633" fill="#DCDCDC"/>
<rect x="14.0408" y="28.0815" width="2.63265" height="2.63265" rx="1.31633" fill="#DCDCDC"/>
<rect x="70.2041" y="28.0815" width="2.63265" height="2.63265" rx="1.31633" fill="#DCDCDC"/>
<rect x="42.1226" y="28.0815" width="2.63265" height="2.63265" rx="1.31633" fill="#DCDCDC"/>
<rect x="98.2856" y="28.0815" width="2.63265" height="2.63265" rx="1.31633" fill="#DCDCDC"/>
<rect x="126.367" y="28.0815" width="2.63265" height="2.63265" rx="1.31633" fill="#DCDCDC"/>
<rect y="42.1226" width="2.63265" height="2.63265" rx="1.31633" fill="#DCDCDC"/>
<rect x="56.1633" y="42.1226" width="2.63265" height="2.63265" rx="1.31633" fill="#DCDCDC"/>
<rect x="28.0815" y="42.1226" width="2.63265" height="2.63265" rx="1.31633" fill="#DCDCDC"/>
<rect x="84.2449" y="42.1226" width="2.63265" height="2.63265" rx="1.31633" fill="#DCDCDC"/>
<rect x="112.327" y="42.1226" width="2.63265" height="2.63265" rx="1.31633" fill="#DCDCDC"/>
<rect x="14.0408" y="42.1226" width="2.63265" height="2.63265" rx="1.31633" fill="#DCDCDC"/>
<rect x="70.2041" y="42.1226" width="2.63265" height="2.63265" rx="1.31633" fill="#DCDCDC"/>
<rect x="42.1226" y="42.1226" width="2.63265" height="2.63265" rx="1.31633" fill="#DCDCDC"/>
<rect x="98.2856" y="42.1226" width="2.63265" height="2.63265" rx="1.31633" fill="#DCDCDC"/>
<rect x="126.367" y="42.1226" width="2.63265" height="2.63265" rx="1.31633" fill="#DCDCDC"/>
<rect y="56.1631" width="2.63265" height="2.63265" rx="1.31633" fill="#DCDCDC"/>
<rect x="56.1633" y="56.1631" width="2.63265" height="2.63265" rx="1.31633" fill="#DCDCDC"/>
<rect x="28.0815" y="56.1631" width="2.63265" height="2.63265" rx="1.31633" fill="#DCDCDC"/>
<rect x="84.2449" y="56.1631" width="2.63265" height="2.63265" rx="1.31633" fill="#DCDCDC"/>
<rect x="112.327" y="56.1631" width="2.63265" height="2.63265" rx="1.31633" fill="#DCDCDC"/>
<rect x="14.0408" y="56.1631" width="2.63265" height="2.63265" rx="1.31633" fill="#DCDCDC"/>
<rect x="70.2041" y="56.1631" width="2.63265" height="2.63265" rx="1.31633" fill="#DCDCDC"/>
<rect x="42.1226" y="56.1631" width="2.63265" height="2.63265" rx="1.31633" fill="#DCDCDC"/>
<rect x="98.2856" y="56.1631" width="2.63265" height="2.63265" rx="1.31633" fill="#DCDCDC"/>
<rect x="126.367" y="56.1631" width="2.63265" height="2.63265" rx="1.31633" fill="#DCDCDC"/>
<rect y="70.2041" width="2.63265" height="2.63265" rx="1.31633" fill="#DCDCDC"/>
<rect x="56.1633" y="70.2041" width="2.63265" height="2.63265" rx="1.31633" fill="#DCDCDC"/>
<rect x="28.0815" y="70.2041" width="2.63265" height="2.63265" rx="1.31633" fill="#DCDCDC"/>
<rect x="84.2449" y="70.2041" width="2.63265" height="2.63265" rx="1.31633" fill="#DCDCDC"/>
<rect x="112.327" y="70.2041" width="2.63265" height="2.63265" rx="1.31633" fill="#DCDCDC"/>
<rect x="14.0408" y="70.2041" width="2.63265" height="2.63265" rx="1.31633" fill="#DCDCDC"/>
<rect x="70.2041" y="70.2041" width="2.63265" height="2.63265" rx="1.31633" fill="#DCDCDC"/>
<rect x="42.1226" y="70.2041" width="2.63265" height="2.63265" rx="1.31633" fill="#DCDCDC"/>
<rect x="98.2856" y="70.2041" width="2.63265" height="2.63265" rx="1.31633" fill="#DCDCDC"/>
<rect x="126.367" y="70.2041" width="2.63265" height="2.63265" rx="1.31633" fill="#DCDCDC"/>
<rect y="84.2451" width="2.63265" height="2.63265" rx="1.31633" fill="#DCDCDC"/>
<rect y="112.327" width="2.63265" height="2.63265" rx="1.31633" fill="#DCDCDC"/>
<rect x="56.1633" y="84.2451" width="2.63265" height="2.63265" rx="1.31633" fill="#DCDCDC"/>
<rect x="56.1633" y="112.327" width="2.63265" height="2.63265" rx="1.31633" fill="#DCDCDC"/>
<rect x="28.0815" y="84.2451" width="2.63265" height="2.63265" rx="1.31633" fill="#DCDCDC"/>
<rect x="28.0815" y="112.327" width="2.63265" height="2.63265" rx="1.31633" fill="#DCDCDC"/>
<rect x="84.2449" y="84.2451" width="2.63265" height="2.63265" rx="1.31633" fill="#DCDCDC"/>
<rect x="84.2449" y="112.327" width="2.63265" height="2.63265" rx="1.31633" fill="#DCDCDC"/>
<rect x="112.327" y="84.2451" width="2.63265" height="2.63265" rx="1.31633" fill="#DCDCDC"/>
<rect x="112.327" y="112.327" width="2.63265" height="2.63265" rx="1.31633" fill="#DCDCDC"/>
<rect x="14.0408" y="84.2451" width="2.63265" height="2.63265" rx="1.31633" fill="#DCDCDC"/>
<rect x="14.0408" y="112.327" width="2.63265" height="2.63265" rx="1.31633" fill="#DCDCDC"/>
<rect x="70.2041" y="84.2451" width="2.63265" height="2.63265" rx="1.31633" fill="#DCDCDC"/>
<rect x="70.2041" y="112.327" width="2.63265" height="2.63265" rx="1.31633" fill="#DCDCDC"/>
<rect x="42.1226" y="84.2451" width="2.63265" height="2.63265" rx="1.31633" fill="#DCDCDC"/>
<rect x="42.1226" y="112.327" width="2.63265" height="2.63265" rx="1.31633" fill="#DCDCDC"/>
<rect x="98.2856" y="84.2451" width="2.63265" height="2.63265" rx="1.31633" fill="#DCDCDC"/>
<rect x="98.2856" y="112.327" width="2.63265" height="2.63265" rx="1.31633" fill="#DCDCDC"/>
<rect x="126.367" y="84.2451" width="2.63265" height="2.63265" rx="1.31633" fill="#DCDCDC"/>
<rect x="126.367" y="112.327" width="2.63265" height="2.63265" rx="1.31633" fill="#DCDCDC"/>
<rect y="98.2856" width="2.63265" height="2.63265" rx="1.31633" fill="#DCDCDC"/>
<rect y="126.367" width="2.63265" height="2.63265" rx="1.31633" fill="#DCDCDC"/>
<rect x="56.1633" y="98.2856" width="2.63265" height="2.63265" rx="1.31633" fill="#DCDCDC"/>
<rect x="56.1633" y="126.367" width="2.63265" height="2.63265" rx="1.31633" fill="#DCDCDC"/>
<rect x="28.0815" y="98.2856" width="2.63265" height="2.63265" rx="1.31633" fill="#DCDCDC"/>
<rect x="28.0815" y="126.367" width="2.63265" height="2.63265" rx="1.31633" fill="#DCDCDC"/>
<rect x="84.2449" y="98.2856" width="2.63265" height="2.63265" rx="1.31633" fill="#DCDCDC"/>
<rect x="84.2449" y="126.367" width="2.63265" height="2.63265" rx="1.31633" fill="#DCDCDC"/>
<rect x="112.327" y="98.2856" width="2.63265" height="2.63265" rx="1.31633" fill="#DCDCDC"/>
<rect x="112.327" y="126.367" width="2.63265" height="2.63265" rx="1.31633" fill="#DCDCDC"/>
<rect x="14.0408" y="98.2856" width="2.63265" height="2.63265" rx="1.31633" fill="#DCDCDC"/>
<rect x="14.0408" y="126.367" width="2.63265" height="2.63265" rx="1.31633" fill="#DCDCDC"/>
<rect x="70.2041" y="98.2856" width="2.63265" height="2.63265" rx="1.31633" fill="#DCDCDC"/>
<rect x="70.2041" y="126.367" width="2.63265" height="2.63265" rx="1.31633" fill="#DCDCDC"/>
<rect x="42.1226" y="98.2856" width="2.63265" height="2.63265" rx="1.31633" fill="#DCDCDC"/>
<rect x="42.1226" y="126.367" width="2.63265" height="2.63265" rx="1.31633" fill="#DCDCDC"/>
<rect x="98.2856" y="98.2856" width="2.63265" height="2.63265" rx="1.31633" fill="#DCDCDC"/>
<rect x="98.2856" y="126.367" width="2.63265" height="2.63265" rx="1.31633" fill="#DCDCDC"/>
<rect x="126.367" y="98.2856" width="2.63265" height="2.63265" rx="1.31633" fill="#DCDCDC"/>
<rect x="126.367" y="126.367" width="2.63265" height="2.63265" rx="1.31633" fill="#DCDCDC"/>
</svg>
