<svg width="89" height="84" viewBox="0 0 89 84" fill="none" xmlns="http://www.w3.org/2000/svg">
<rect x="0.897949" width="1.71429" height="1.71429" rx="0.857143" fill="#DCDCDC"/>
<rect x="38.8662" width="1.71429" height="1.71429" rx="0.857143" fill="#DCDCDC"/>
<rect x="19.8821" width="1.71429" height="1.71429" rx="0.857143" fill="#DCDCDC"/>
<rect x="57.8503" width="1.71429" height="1.71429" rx="0.857143" fill="#DCDCDC"/>
<rect x="76.8344" width="1.71429" height="1.71429" rx="0.857143" fill="#DCDCDC"/>
<rect x="10.39" width="1.71429" height="1.71429" rx="0.857143" fill="#DCDCDC"/>
<rect x="48.3583" width="1.71429" height="1.71429" rx="0.857143" fill="#DCDCDC"/>
<rect x="29.3741" width="1.71429" height="1.71429" rx="0.857143" fill="#DCDCDC"/>
<rect x="67.3423" width="1.71429" height="1.71429" rx="0.857143" fill="#DCDCDC"/>
<rect x="86.3264" width="1.71429" height="1.71429" rx="0.857143" fill="#DCDCDC"/>
<rect x="0.897949" y="9.14258" width="1.71429" height="1.71429" rx="0.857143" fill="#DCDCDC"/>
<rect x="38.8662" y="9.14258" width="1.71429" height="1.71429" rx="0.857143" fill="#DCDCDC"/>
<rect x="19.8821" y="9.14258" width="1.71429" height="1.71429" rx="0.857143" fill="#DCDCDC"/>
<rect x="57.8503" y="9.14258" width="1.71429" height="1.71429" rx="0.857143" fill="#DCDCDC"/>
<rect x="76.8344" y="9.14258" width="1.71429" height="1.71429" rx="0.857143" fill="#DCDCDC"/>
<rect x="10.39" y="9.14258" width="1.71429" height="1.71429" rx="0.857143" fill="#DCDCDC"/>
<rect x="48.3583" y="9.14258" width="1.71429" height="1.71429" rx="0.857143" fill="#DCDCDC"/>
<rect x="29.3741" y="9.14258" width="1.71429" height="1.71429" rx="0.857143" fill="#DCDCDC"/>
<rect x="67.3423" y="9.14258" width="1.71429" height="1.71429" rx="0.857143" fill="#DCDCDC"/>
<rect x="86.3264" y="9.14258" width="1.71429" height="1.71429" rx="0.857143" fill="#DCDCDC"/>
<rect x="0.897949" y="18.2856" width="1.71429" height="1.71429" rx="0.857143" fill="#DCDCDC"/>
<rect x="38.8662" y="18.2856" width="1.71429" height="1.71429" rx="0.857143" fill="#DCDCDC"/>
<rect x="19.8821" y="18.2856" width="1.71429" height="1.71429" rx="0.857143" fill="#DCDCDC"/>
<rect x="57.8503" y="18.2856" width="1.71429" height="1.71429" rx="0.857143" fill="#DCDCDC"/>
<rect x="76.8344" y="18.2856" width="1.71429" height="1.71429" rx="0.857143" fill="#DCDCDC"/>
<rect x="10.39" y="18.2856" width="1.71429" height="1.71429" rx="0.857143" fill="#DCDCDC"/>
<rect x="48.3583" y="18.2856" width="1.71429" height="1.71429" rx="0.857143" fill="#DCDCDC"/>
<rect x="29.3741" y="18.2856" width="1.71429" height="1.71429" rx="0.857143" fill="#DCDCDC"/>
<rect x="67.3423" y="18.2856" width="1.71429" height="1.71429" rx="0.857143" fill="#DCDCDC"/>
<rect x="86.3264" y="18.2856" width="1.71429" height="1.71429" rx="0.857143" fill="#DCDCDC"/>
<rect x="0.897949" y="27.4282" width="1.71429" height="1.71429" rx="0.857143" fill="#DCDCDC"/>
<rect x="38.8662" y="27.4287" width="1.71429" height="1.71429" rx="0.857143" fill="#DCDCDC"/>
<rect x="19.8821" y="27.4287" width="1.71429" height="1.71429" rx="0.857143" fill="#DCDCDC"/>
<rect x="57.8503" y="27.4287" width="1.71429" height="1.71429" rx="0.857143" fill="#DCDCDC"/>
<rect x="76.8344" y="27.4287" width="1.71429" height="1.71429" rx="0.857143" fill="#DCDCDC"/>
<rect x="10.39" y="27.4287" width="1.71429" height="1.71429" rx="0.857143" fill="#DCDCDC"/>
<rect x="48.3583" y="27.4287" width="1.71429" height="1.71429" rx="0.857143" fill="#DCDCDC"/>
<rect x="29.3741" y="27.4287" width="1.71429" height="1.71429" rx="0.857143" fill="#DCDCDC"/>
<rect x="67.3423" y="27.4287" width="1.71429" height="1.71429" rx="0.857143" fill="#DCDCDC"/>
<rect x="86.3264" y="27.4287" width="1.71429" height="1.71429" rx="0.857143" fill="#DCDCDC"/>
<rect x="0.897949" y="36.5713" width="1.71429" height="1.71429" rx="0.857143" fill="#DCDCDC"/>
<rect x="38.8662" y="36.5713" width="1.71429" height="1.71429" rx="0.857143" fill="#DCDCDC"/>
<rect x="19.8821" y="36.5713" width="1.71429" height="1.71429" rx="0.857143" fill="#DCDCDC"/>
<rect x="57.8503" y="36.5713" width="1.71429" height="1.71429" rx="0.857143" fill="#DCDCDC"/>
<rect x="76.8344" y="36.5713" width="1.71429" height="1.71429" rx="0.857143" fill="#DCDCDC"/>
<rect x="10.39" y="36.5713" width="1.71429" height="1.71429" rx="0.857143" fill="#DCDCDC"/>
<rect x="48.3583" y="36.5713" width="1.71429" height="1.71429" rx="0.857143" fill="#DCDCDC"/>
<rect x="29.3741" y="36.5713" width="1.71429" height="1.71429" rx="0.857143" fill="#DCDCDC"/>
<rect x="67.3423" y="36.5713" width="1.71429" height="1.71429" rx="0.857143" fill="#DCDCDC"/>
<rect x="86.3264" y="36.5713" width="1.71429" height="1.71429" rx="0.857143" fill="#DCDCDC"/>
<rect x="0.897949" y="45.7144" width="1.71429" height="1.71429" rx="0.857143" fill="#DCDCDC"/>
<rect x="38.8662" y="45.7144" width="1.71429" height="1.71429" rx="0.857143" fill="#DCDCDC"/>
<rect x="19.8821" y="45.7144" width="1.71429" height="1.71429" rx="0.857143" fill="#DCDCDC"/>
<rect x="57.8503" y="45.7144" width="1.71429" height="1.71429" rx="0.857143" fill="#DCDCDC"/>
<rect x="76.8344" y="45.7144" width="1.71429" height="1.71429" rx="0.857143" fill="#DCDCDC"/>
<rect x="10.39" y="45.7144" width="1.71429" height="1.71429" rx="0.857143" fill="#DCDCDC"/>
<rect x="48.3583" y="45.7144" width="1.71429" height="1.71429" rx="0.857143" fill="#DCDCDC"/>
<rect x="29.3741" y="45.7144" width="1.71429" height="1.71429" rx="0.857143" fill="#DCDCDC"/>
<rect x="67.3423" y="45.7144" width="1.71429" height="1.71429" rx="0.857143" fill="#DCDCDC"/>
<rect x="86.3264" y="45.7144" width="1.71429" height="1.71429" rx="0.857143" fill="#DCDCDC"/>
<rect x="0.897949" y="54.8574" width="1.71429" height="1.71429" rx="0.857143" fill="#DCDCDC"/>
<rect x="0.897949" y="73.1431" width="1.71429" height="1.71429" rx="0.857143" fill="#DCDCDC"/>
<rect x="38.8662" y="54.8569" width="1.71429" height="1.71429" rx="0.857143" fill="#DCDCDC"/>
<rect x="38.8662" y="73.1431" width="1.71429" height="1.71429" rx="0.857143" fill="#DCDCDC"/>
<rect x="19.8821" y="54.8569" width="1.71429" height="1.71429" rx="0.857143" fill="#DCDCDC"/>
<rect x="19.8821" y="73.1431" width="1.71429" height="1.71429" rx="0.857143" fill="#DCDCDC"/>
<rect x="57.8503" y="54.8569" width="1.71429" height="1.71429" rx="0.857143" fill="#DCDCDC"/>
<rect x="57.8503" y="73.1431" width="1.71429" height="1.71429" rx="0.857143" fill="#DCDCDC"/>
<rect x="76.8344" y="54.8569" width="1.71429" height="1.71429" rx="0.857143" fill="#DCDCDC"/>
<rect x="76.8344" y="73.1431" width="1.71429" height="1.71429" rx="0.857143" fill="#DCDCDC"/>
<rect x="10.39" y="54.8569" width="1.71429" height="1.71429" rx="0.857143" fill="#DCDCDC"/>
<rect x="10.39" y="73.1431" width="1.71429" height="1.71429" rx="0.857143" fill="#DCDCDC"/>
<rect x="48.3583" y="54.8569" width="1.71429" height="1.71429" rx="0.857143" fill="#DCDCDC"/>
<rect x="48.3583" y="73.1431" width="1.71429" height="1.71429" rx="0.857143" fill="#DCDCDC"/>
<rect x="29.3741" y="54.8569" width="1.71429" height="1.71429" rx="0.857143" fill="#DCDCDC"/>
<rect x="29.3741" y="73.1431" width="1.71429" height="1.71429" rx="0.857143" fill="#DCDCDC"/>
<rect x="67.3423" y="54.8569" width="1.71429" height="1.71429" rx="0.857143" fill="#DCDCDC"/>
<rect x="67.3423" y="73.1431" width="1.71429" height="1.71429" rx="0.857143" fill="#DCDCDC"/>
<rect x="86.3264" y="54.8569" width="1.71429" height="1.71429" rx="0.857143" fill="#DCDCDC"/>
<rect x="86.3264" y="73.1431" width="1.71429" height="1.71429" rx="0.857143" fill="#DCDCDC"/>
<rect x="0.897949" y="64" width="1.71429" height="1.71429" rx="0.857143" fill="#DCDCDC"/>
<rect x="0.897949" y="82.2856" width="1.71429" height="1.71429" rx="0.857143" fill="#DCDCDC"/>
<rect x="38.8662" y="64" width="1.71429" height="1.71429" rx="0.857143" fill="#DCDCDC"/>
<rect x="38.8662" y="82.2856" width="1.71429" height="1.71429" rx="0.857143" fill="#DCDCDC"/>
<rect x="19.8821" y="64" width="1.71429" height="1.71429" rx="0.857143" fill="#DCDCDC"/>
<rect x="19.8821" y="82.2856" width="1.71429" height="1.71429" rx="0.857143" fill="#DCDCDC"/>
<rect x="57.8503" y="64" width="1.71429" height="1.71429" rx="0.857143" fill="#DCDCDC"/>
<rect x="57.8503" y="82.2856" width="1.71429" height="1.71429" rx="0.857143" fill="#DCDCDC"/>
<rect x="76.8344" y="64" width="1.71429" height="1.71429" rx="0.857143" fill="#DCDCDC"/>
<rect x="76.8344" y="82.2856" width="1.71429" height="1.71429" rx="0.857143" fill="#DCDCDC"/>
<rect x="10.39" y="64" width="1.71429" height="1.71429" rx="0.857143" fill="#DCDCDC"/>
<rect x="10.39" y="82.2856" width="1.71429" height="1.71429" rx="0.857143" fill="#DCDCDC"/>
<rect x="48.3583" y="64" width="1.71429" height="1.71429" rx="0.857143" fill="#DCDCDC"/>
<rect x="48.3583" y="82.2856" width="1.71429" height="1.71429" rx="0.857143" fill="#DCDCDC"/>
<rect x="29.3741" y="64" width="1.71429" height="1.71429" rx="0.857143" fill="#DCDCDC"/>
<rect x="29.3741" y="82.2856" width="1.71429" height="1.71429" rx="0.857143" fill="#DCDCDC"/>
<rect x="67.3423" y="64" width="1.71429" height="1.71429" rx="0.857143" fill="#DCDCDC"/>
<rect x="67.3423" y="82.2856" width="1.71429" height="1.71429" rx="0.857143" fill="#DCDCDC"/>
<rect x="86.3264" y="64" width="1.71429" height="1.71429" rx="0.857143" fill="#DCDCDC"/>
<rect x="86.3264" y="82.2856" width="1.71429" height="1.71429" rx="0.857143" fill="#DCDCDC"/>
</svg>
