<svg width="18" height="18" viewBox="0 0 18 18" fill="none" xmlns="http://www.w3.org/2000/svg">
<path d="M9 18C13.9706 18 18 13.9706 18 9C18 4.02944 13.9706 0 9 0C4.02944 0 0 4.02944 0 9C0 13.9706 4.02944 18 9 18Z" fill="#6DA544"/>
<path d="M9.00018 3.52197L16.4349 9.00023L9.00018 14.4785L1.56543 9.00023L9.00018 3.52197Z" fill="#FFDA44"/>
<path d="M8.99988 12.1305C10.7288 12.1305 12.1304 10.7289 12.1304 9.00005C12.1304 7.27116 10.7288 5.86963 8.99988 5.86963C7.27095 5.86963 5.86938 7.27116 5.86938 9.00005C5.86938 10.7289 7.27095 12.1305 8.99988 12.1305Z" fill="#F0F0F0"/>
<path d="M7.43481 8.8042C6.89045 8.8042 6.36511 8.88699 5.87061 9.04062C5.89251 10.7506 7.28484 12.1303 9.00004 12.1303C10.0606 12.1303 10.9973 11.6024 11.5636 10.7955C10.5948 9.5827 9.10414 8.8042 7.43481 8.8042Z" fill="#0052B4"/>
<path d="M12.0724 9.59981C12.1101 9.40561 12.1305 9.20525 12.1305 9.00005C12.1305 7.27113 10.7289 5.86963 9.00003 5.86963C7.70999 5.86963 6.60255 6.65013 6.12329 7.76452C6.54693 7.67673 6.98555 7.6305 7.43481 7.6305C9.25302 7.63046 10.8979 8.38625 12.0724 9.59981Z" fill="#0052B4"/>
</svg>
