<svg width="16" height="16" viewBox="0 0 16 16" fill="none" xmlns="http://www.w3.org/2000/svg">
<path d="M0 7.99999C0 3.58173 3.58173 0 8 0C12.4183 0 16 3.58173 16 7.99999C16 12.4183 12.4183 16 8 16C3.58173 16 0 12.4183 0 7.99999Z" fill="url(#paint0_linear)"/>
<path fill-rule="evenodd" clip-rule="evenodd" d="M5.77288 4.9409C5.77288 5.46393 5.37918 5.88243 4.74701 5.88243H4.73541C4.12678 5.88243 3.73328 5.46393 3.73328 4.9409C3.73328 4.4068 4.13874 4 4.75894 4C5.37918 4 5.76111 4.4068 5.77288 4.9409ZM5.65344 6.62593V12.0732H3.84048V6.62593H5.65344ZM12.1917 12.0732L12.1917 8.94989C12.1917 7.27676 11.2973 6.49803 10.1043 6.49803C9.14174 6.49803 8.71077 7.02673 8.47017 7.39763V6.6261H6.65698C6.68088 7.13723 6.65698 12.0733 6.65698 12.0733H8.47017V9.03113C8.47017 8.86833 8.48194 8.70593 8.52987 8.58936C8.66091 8.26413 8.95924 7.92739 9.46011 7.92739C10.1164 7.92739 10.3788 8.42689 10.3788 9.15889V12.0732H12.1917Z" fill="white"/>
<defs>
<linearGradient id="paint0_linear" x1="8" y1="0" x2="8" y2="16" gradientUnits="userSpaceOnUse">
<stop stop-color="#CF0080"/>
<stop offset="1" stop-color="#F35D9C"/>
</linearGradient>
</defs>
</svg>
