<svg width="18" height="15" viewBox="0 0 18 15" fill="none" xmlns="http://www.w3.org/2000/svg">
<path d="M16.1498 3.98422C16.1612 4.14411 16.1612 4.30403 16.1612 4.46393C16.1612 9.34082 12.4493 14.9601 5.66499 14.9601C3.57488 14.9601 1.63326 14.3548 0 13.3041C0.296966 13.3383 0.582471 13.3497 0.890863 13.3497C2.61546 13.3497 4.20305 12.7673 5.47083 11.7736C3.84899 11.7393 2.48985 10.6771 2.02156 9.21521C2.25001 9.24945 2.47842 9.2723 2.71829 9.2723C3.0495 9.2723 3.38074 9.2266 3.6891 9.14669C1.99875 8.80402 0.730936 7.31926 0.730936 5.52611V5.48044C1.22204 5.75455 1.79315 5.92587 2.39844 5.94869C1.40478 5.28623 0.753788 4.15553 0.753788 2.87633C0.753788 2.19107 0.936496 1.56289 1.25631 1.01466C3.07232 3.25325 5.80203 4.71515 8.86293 4.87508C8.80583 4.60097 8.77155 4.31546 8.77155 4.02992C8.77155 1.9969 10.4162 0.34082 12.4607 0.34082C13.5228 0.34082 14.4822 0.786252 15.1561 1.5058C15.9898 1.34591 16.7893 1.03751 17.4975 0.614935C17.2233 1.47156 16.6409 2.1911 15.8756 2.64792C16.618 2.56801 17.3376 2.36238 18 2.07688C17.4975 2.80781 16.8693 3.45881 16.1498 3.98422Z" fill="#1172EB"/>
</svg>
