<svg width="36" height="36" viewBox="0 0 36 36" fill="none" xmlns="http://www.w3.org/2000/svg">
<path fill-rule="evenodd" clip-rule="evenodd" d="M28.539 31.5H7.461C5.826 31.5 4.5 30.174 4.5 28.539V7.461C4.5 5.826 5.826 4.5 7.461 4.5H28.5375C30.174 4.5 31.5 5.826 31.5 7.461V28.5375C31.5 30.174 30.174 31.5 28.539 31.5Z" stroke="#CF0080" stroke-width="2" stroke-linecap="round" stroke-linejoin="round" stroke-dasharray="0.4"/>
<path d="M15.4739 16.5V14.526C15.4739 13.131 16.6049 12 17.9999 12C19.3949 12 20.5259 13.131 20.5259 14.526V16.5" stroke="#CF0080" stroke-width="2" stroke-linecap="round" stroke-linejoin="round"/>
<path fill-rule="evenodd" clip-rule="evenodd" d="M21 24H15C14.172 24 13.5 23.328 13.5 22.5V18C13.5 17.172 14.172 16.5 15 16.5H21C21.828 16.5 22.5 17.172 22.5 18V22.5C22.5 23.328 21.828 24 21 24Z" stroke="#CF0080" stroke-width="2" stroke-linecap="round" stroke-linejoin="round"/>
</svg>
