<svg width="104" height="105" viewBox="0 0 104 105" fill="none" xmlns="http://www.w3.org/2000/svg">
<path opacity="0.6" d="M90.1009 41.3857C93.5244 44.8092 93.5244 50.3597 90.1009 53.7832C86.6774 57.2067 81.1269 57.2067 77.7035 53.7832C74.28 50.3597 74.28 44.8092 77.7035 41.3857C81.1269 37.9623 86.6775 37.9623 90.1009 41.3857" stroke="#00A5FF" stroke-width="4" stroke-linecap="round" stroke-linejoin="round"/>
<path opacity="0.6" d="M26.2967 41.3857C29.7202 44.8092 29.7202 50.3597 26.2967 53.7832C22.8732 57.2067 17.3227 57.2067 13.8993 53.7832C10.4758 50.3597 10.4758 44.8092 13.8993 41.3857C17.3227 37.9623 22.8733 37.9623 26.2967 41.3857" stroke="#00A5FF" stroke-width="4" stroke-linecap="round" stroke-linejoin="round"/>
<path opacity="0.6" d="M99.6666 82.4505V77.7011C99.6666 71.7168 94.8176 66.8678 88.8333 66.8678H85.3623" stroke="#00A5FF" stroke-width="4" stroke-linecap="round" stroke-linejoin="round"/>
<path opacity="0.6" d="M4.33337 82.4505V77.7011C4.33337 71.7168 9.18237 66.8678 15.1667 66.8678H18.6377" stroke="#00A5FF" stroke-width="4" stroke-linecap="round" stroke-linejoin="round"/>
<path d="M61.5448 25.7374C66.8162 31.0088 66.8162 39.5555 61.5448 44.827C56.2734 50.0984 47.7267 50.0984 42.4553 44.827C37.1839 39.5555 37.1839 31.0089 42.4553 25.7374C47.7267 20.466 56.2734 20.466 61.5448 25.7374" stroke="#00A5FF" stroke-width="4" stroke-linecap="round" stroke-linejoin="round"/>
<path d="M75.1358 82.4505V75.5128C75.1358 67.1365 68.3454 60.3461 59.9691 60.3461H44.0268C35.6504 60.3461 28.8601 67.1365 28.8601 75.5128V82.4505" stroke="#00A5FF" stroke-width="4" stroke-linecap="round" stroke-linejoin="round"/>
</svg>
