<svg width="16" height="16" viewBox="0 0 16 16" fill="none" xmlns="http://www.w3.org/2000/svg">
<path d="M10.3848 4.25708H5.61582C4.85423 4.25708 4.23535 4.87596 4.23535 5.63756V10.4058C4.23535 11.1674 4.85419 11.7872 5.61582 11.7872H10.3848C11.1455 11.7872 11.7653 11.1674 11.7653 10.4058V5.63756C11.7653 4.87593 11.1455 4.25708 10.3848 4.25708ZM7.99986 10.5007C6.63332 10.5007 5.52094 9.38829 5.52094 8.02172C5.52094 6.65516 6.63335 5.54278 7.99986 5.54278C9.36728 5.54278 10.4788 6.65516 10.4788 8.02172C10.4788 9.38829 9.36641 10.5007 7.99986 10.5007ZM10.5589 6.05535C10.2351 6.05535 9.97223 5.7926 9.97223 5.46879C9.97223 5.14575 10.2351 4.88214 10.5589 4.88214C10.8818 4.88214 11.1455 5.14575 11.1455 5.46879C11.1455 5.7926 10.8818 6.05535 10.5589 6.05535V6.05535Z" fill="url(#paint0_linear)"/>
<path d="M7.99967 6.59082C7.21108 6.59082 6.56873 7.23232 6.56873 8.02177C6.56873 8.81124 7.21108 9.45361 7.99967 9.45361C8.78913 9.45361 9.43149 8.81124 9.43149 8.02177C9.43149 7.23316 8.78913 6.59082 7.99967 6.59082Z" fill="url(#paint1_linear)"/>
<path d="M8 0C3.58176 0 0 3.58176 0 8C0 12.4182 3.58176 16 8 16C12.4182 16 16 12.4182 16 8C16 3.58179 12.4182 0 8 0V0ZM12.8126 10.4059C12.8126 11.7454 11.7237 12.8343 10.385 12.8343H5.61594C4.27725 12.8343 3.18749 11.7454 3.18749 10.4059V5.6376C3.18749 4.29901 4.27725 3.20925 5.61594 3.20925H10.385C11.7237 3.20925 12.8126 4.29901 12.8126 5.6376V10.4059V10.4059Z" fill="url(#paint2_linear)"/>
<defs>
<linearGradient id="paint0_linear" x1="8.00033" y1="4.25708" x2="8.00033" y2="11.7872" gradientUnits="userSpaceOnUse">
<stop stop-color="#CF0080"/>
<stop offset="1" stop-color="#F35D9C"/>
</linearGradient>
<linearGradient id="paint1_linear" x1="8.00011" y1="6.59082" x2="8.00011" y2="9.45361" gradientUnits="userSpaceOnUse">
<stop stop-color="#CF0080"/>
<stop offset="1" stop-color="#F35D9C"/>
</linearGradient>
<linearGradient id="paint2_linear" x1="8" y1="0" x2="8" y2="16" gradientUnits="userSpaceOnUse">
<stop stop-color="#CF0080"/>
<stop offset="1" stop-color="#F35D9C"/>
</linearGradient>
</defs>
</svg>
