<svg width="16" height="17" viewBox="0 0 16 17" fill="none" xmlns="http://www.w3.org/2000/svg">
<path d="M8 1.5C4.13438 1.5 1 4.63438 1 8.5C1 12.3656 4.13438 15.5 8 15.5C11.8656 15.5 15 12.3656 15 8.5C15 4.63438 11.8656 1.5 8 1.5ZM12 5.46406L11.3625 6.075C11.3063 6.11719 11.2797 6.18594 11.2906 6.25313V10.7484C11.2797 10.8172 11.3063 10.8859 11.3625 10.9266L11.9875 11.5375V11.6734H8.85V11.5437L9.49531 10.9172C9.55938 10.8531 9.55937 10.8344 9.55937 10.7391V7.10156L7.7625 11.6578H7.52031L5.42969 7.10156V10.1562C5.41094 10.2844 5.45625 10.4141 5.54688 10.5063L6.3875 11.5234V11.6594H4V11.5234L4.84062 10.5063C4.88491 10.4605 4.91788 10.405 4.93687 10.3442C4.95586 10.2835 4.96036 10.2191 4.95 10.1562V6.625C4.96094 6.52656 4.92344 6.43125 4.84844 6.36406L4.10156 5.46406V5.32812H6.42188L8.2125 9.25781L9.78906 5.33125H12V5.46406Z" fill="#CF0080"/>
</svg>
