<svg width="16" height="16" viewBox="0 0 16 16" fill="none" xmlns="http://www.w3.org/2000/svg">
<path d="M6.91516 9.62962L9.63105 8.00011L6.91516 6.37061V9.62962Z" fill="url(#paint0_linear)"/>
<path d="M8 0C3.582 0 0 3.5815 0 8C0 12.4185 3.582 16 8 16C12.418 16 16 12.418 16 8C16 3.582 12.418 0 8 0ZM12.344 8.3505C12.344 9.1005 12.257 9.8505 12.257 9.8505C12.257 9.8505 12.172 10.4895 11.912 10.77C11.5815 11.139 11.2115 11.141 11.0415 11.163C9.8255 11.256 8 11.259 8 11.259C8 11.259 5.741 11.237 5.046 11.166C4.8525 11.1275 4.419 11.1385 4.088 10.77C3.8275 10.489 3.743 9.8505 3.743 9.8505C3.743 9.8505 3.656 9.101 3.656 8.3505V7.6475C3.656 6.8975 3.743 6.148 3.743 6.148C3.743 6.148 3.828 5.509 4.088 5.2275C4.4185 4.858 4.7885 4.856 4.9585 4.835C6.174 4.741 7.998 4.741 7.998 4.741H8.002C8.002 4.741 9.826 4.741 11.0415 4.835C11.211 4.856 11.5815 4.858 11.912 5.227C12.1725 5.5085 12.257 6.1475 12.257 6.1475C12.257 6.1475 12.344 6.8975 12.344 7.6475V8.3505V8.3505Z" fill="url(#paint1_linear)"/>
<defs>
<linearGradient id="paint0_linear" x1="8.2731" y1="6.37061" x2="8.2731" y2="9.62962" gradientUnits="userSpaceOnUse">
<stop stop-color="#CF0080"/>
<stop offset="1" stop-color="#F35D9C"/>
</linearGradient>
<linearGradient id="paint1_linear" x1="8" y1="0" x2="8" y2="16" gradientUnits="userSpaceOnUse">
<stop stop-color="#CF0080"/>
<stop offset="1" stop-color="#F35D9C"/>
</linearGradient>
</defs>
</svg>
