<svg width="38" height="33" viewBox="0 0 38 33" fill="none" xmlns="http://www.w3.org/2000/svg">
<path d="M33.3783 4.59596C32.5475 3.77296 31.5611 3.12011 30.4755 2.67468C29.3898 2.22926 28.2262 2 27.051 2C25.8758 2 24.7122 2.22926 23.6265 2.67468C22.5409 3.12011 21.5545 3.77296 20.7237 4.59596L18.9996 6.30316L17.2754 4.59596C15.5973 2.93435 13.3213 2.00086 10.9481 2.00086C8.57494 2.00086 6.29895 2.93435 4.62085 4.59596C2.94275 6.25757 2 8.5112 2 10.8611C2 13.211 2.94275 15.4646 4.62085 17.1262L6.34499 18.8334L18.9996 31.3636L31.6541 18.8334L33.3783 17.1262C34.2094 16.3036 34.8688 15.3269 35.3186 14.2519C35.7685 13.1769 36 12.0247 36 10.8611C36 9.69746 35.7685 8.54524 35.3186 7.47025C34.8688 6.39526 34.2094 5.41857 33.3783 4.59596V4.59596Z" stroke="#00A5FF" stroke-width="3" stroke-linecap="round" stroke-linejoin="round"/>
</svg>
