<svg width="18" height="18" viewBox="0 0 18 18" fill="none" xmlns="http://www.w3.org/2000/svg">
<path d="M8.99996 5.24854C9.92059 5.24854 10.6672 5.9951 10.6672 6.91573C10.6672 7.83636 9.92059 8.58292 8.99996 8.58292C8.07932 8.58292 7.33276 7.83711 7.33276 6.91573C7.33276 5.99435 8.07932 5.24854 8.99996 5.24854" stroke="#CF0080" stroke-width="1.25" stroke-linecap="round" stroke-linejoin="round"/>
<path fill-rule="evenodd" clip-rule="evenodd" d="M15.0026 8.43145C15.0026 11.7088 12.6338 14.7806 9.39022 15.699C9.13662 15.771 8.8635 15.771 8.6099 15.699C5.3663 14.7813 2.99756 11.7088 2.99756 8.43145V5.40919C2.99756 4.79993 3.36596 4.25071 3.9302 4.02036L7.57972 2.52724C8.4906 2.15433 9.51102 2.15433 10.4212 2.52724L14.0707 4.02036C14.6342 4.25071 15.0026 4.79993 15.0026 5.40919V8.43145Z" stroke="#CF0080" stroke-width="1.25" stroke-linecap="round" stroke-linejoin="round"/>
<path d="M12.0013 11.2511C11.9142 11.0313 11.7784 10.8347 11.6051 10.6742V10.6742C11.3117 10.4025 10.9291 10.251 10.5292 10.251C9.86214 10.251 8.13867 10.251 7.47164 10.251C7.07173 10.251 6.68832 10.4025 6.39494 10.6742V10.6742C6.22162 10.8347 6.08657 11.0313 5.99878 11.2511" stroke="#CF0080" stroke-width="1.25" stroke-linecap="round" stroke-linejoin="round"/>
</svg>
