<svg width="104" height="105" viewBox="0 0 104 105" fill="none" xmlns="http://www.w3.org/2000/svg">
<path d="M60.6667 65.1175V60.7841C60.6667 53.6038 54.847 47.7841 47.6667 47.7841H26C18.8197 47.7841 13 53.6038 13 60.7841V65.1175" stroke="#00A5FF" stroke-width="4" stroke-linecap="round" stroke-linejoin="round"/>
<path opacity="0.6" fill-rule="evenodd" clip-rule="evenodd" d="M52 91.1174H21.6667C16.8783 91.1174 13 87.2391 13 82.4508V78.1174H60.6667V82.4508C60.6667 87.2391 56.7883 91.1174 52 91.1174Z" stroke="#00A5FF" stroke-width="4" stroke-linecap="round" stroke-linejoin="round"/>
<path d="M8.66675 65.1174H65.0001" stroke="#00A5FF" stroke-width="4" stroke-linecap="round" stroke-linejoin="round"/>
<path d="M46.2974 47.7841L44.6464 35.3561C44.3041 32.7561 46.3234 30.4507 48.9451 30.4507H86.6668C89.3058 30.4507 91.3294 32.7864 90.9568 35.3951L83.5294 87.3951C83.2218 89.5314 81.3931 91.1174 79.2394 91.1174H69.9964" stroke="#00A5FF" stroke-width="4" stroke-linecap="round" stroke-linejoin="round"/>
<path opacity="0.6" d="M82.9964 13.1174H73.736C71.5867 13.1174 69.7667 14.6904 69.4504 16.8138L67.4224 30.4508" stroke="#00A5FF" stroke-width="4" stroke-linecap="round" stroke-linejoin="round"/>
</svg>
