<svg width="20" height="20" viewBox="0 0 20 20" fill="none" xmlns="http://www.w3.org/2000/svg">
<path fill-rule="evenodd" clip-rule="evenodd" d="M2.5 5.6665V5.6665C2.5 6.1665 2.75 6.58317 3.16667 6.9165L8.16667 10.3332C9.33333 11.0832 10.75 11.0832 11.9167 10.3332L16.9167 6.99984C17.25 6.58317 17.5 6.1665 17.5 5.6665V5.6665C17.5 4.83317 16.8333 4.1665 16 4.1665H4C3.16667 4.1665 2.5 4.83317 2.5 5.6665Z" stroke="#CF0080" stroke-width="1.5" stroke-linecap="round" stroke-linejoin="round"/>
<path d="M2.5 5.83301V14.1663C2.5 15.083 3.25 15.833 4.16667 15.833H15.8333C16.75 15.833 17.5 15.083 17.5 14.1663V5.83301" stroke="#CF0080" stroke-width="1.5" stroke-linecap="round" stroke-linejoin="round"/>
<path d="M2.98999 15.343L8.06832 10.2646" stroke="#CF0080" stroke-width="1.5" stroke-linecap="round" stroke-linejoin="round"/>
<path d="M11.9667 10.2998L17.01 15.3431" stroke="#CF0080" stroke-width="1.5" stroke-linecap="round" stroke-linejoin="round"/>
</svg>
