<svg width="16" height="16" viewBox="0 0 16 16" fill="none" xmlns="http://www.w3.org/2000/svg">
<path d="M8 0C3.58161 0 0 3.58161 0 8C0 12.4184 3.58161 16 8 16C8.11351 16 8.22599 15.9972 8.33835 15.9925V10.1529H7.13158V8.14035H8.33835V6.93233C8.33835 5.29042 9.01835 4.31328 10.9524 4.31328H12.5627V6.32707H11.5564C10.8034 6.32707 10.7531 6.60784 10.7531 7.13283L10.7506 8.14035H12.5739L12.3609 10.1529H10.7506V15.515C13.8139 14.3934 16 11.4519 16 8C16 3.58161 12.4184 0 8 0Z" fill="url(#paint0_linear)"/>
<path d="M10.9525 4.31396C9.01855 4.31396 8.33857 5.2911 8.33857 6.93301V8.14103H7.13184V10.1536H8.33857V15.9932C9.1829 15.958 9.9938 15.7929 10.7508 15.5157V10.1536H12.361L12.574 8.14103H10.7508L10.7533 7.13351C10.7533 6.60852 10.8035 6.32775 11.5565 6.32775H12.5627V4.31396H10.9525Z" fill="white"/>
<defs>
<linearGradient id="paint0_linear" x1="8" y1="0" x2="8" y2="16" gradientUnits="userSpaceOnUse">
<stop stop-color="#CF0080"/>
<stop offset="1" stop-color="#F35D9C"/>
</linearGradient>
</defs>
</svg>
