<svg width="18" height="18" viewBox="0 0 18 18" fill="none" xmlns="http://www.w3.org/2000/svg">
<path fill-rule="evenodd" clip-rule="evenodd" d="M13.8105 4.8105L11.6895 2.6895C11.4083 2.40825 11.0265 2.25 10.629 2.25H5.25C4.42125 2.25 3.75 2.92125 3.75 3.75V14.25C3.75 15.0788 4.42125 15.75 5.25 15.75H12.75C13.5788 15.75 14.25 15.0788 14.25 14.25V5.871C14.25 5.4735 14.0918 5.09175 13.8105 4.8105V4.8105Z" stroke="#CF0080" stroke-width="1.25" stroke-linecap="round" stroke-linejoin="round"/>
<path d="M14.25 6H11.25C10.836 6 10.5 5.664 10.5 5.25V2.25" stroke="#CF0080" stroke-width="1.25" stroke-linecap="round" stroke-linejoin="round"/>
<path d="M7.75488 12.4126H10.2449" stroke="#CF0080" stroke-width="1.25" stroke-linecap="round" stroke-linejoin="round"/>
<path fill-rule="evenodd" clip-rule="evenodd" d="M8.12476 9.56325V8.68725C8.12476 8.44575 8.32051 8.25 8.56201 8.25H9.43801C9.67951 8.25 9.87526 8.44575 9.87526 8.68725V9.56325C9.87526 9.80475 9.67951 10.0005 9.43801 10.0005H8.56201C8.32051 9.99975 8.12476 9.804 8.12476 9.56325Z" stroke="#CF0080" stroke-width="1.25" stroke-linecap="round" stroke-linejoin="round"/>
<path fill-rule="evenodd" clip-rule="evenodd" d="M6 13.0628V12.1868C6 11.9453 6.19575 11.7495 6.43725 11.7495H7.31325C7.55475 11.7495 7.7505 11.9453 7.7505 12.1868V13.0628C7.7505 13.3043 7.55475 13.5 7.31325 13.5H6.43725C6.19575 13.5 6 13.3043 6 13.0628Z" stroke="#CF0080" stroke-width="1.25" stroke-linecap="round" stroke-linejoin="round"/>
<path fill-rule="evenodd" clip-rule="evenodd" d="M10.2502 13.0628V12.1868C10.2502 11.9453 10.446 11.7495 10.6875 11.7495H11.5635C11.805 11.7495 12.0007 11.9453 12.0007 12.1868V13.0628C12 13.3043 11.8042 13.5 11.5627 13.5H10.6867C10.446 13.5 10.2502 13.3043 10.2502 13.0628H10.2502Z" stroke="#CF0080" stroke-width="1.25" stroke-linecap="round" stroke-linejoin="round"/>
<path d="M10.6801 11.7524L9.54761 9.98242" stroke="#CF0080" stroke-width="1.25" stroke-linecap="round" stroke-linejoin="round"/>
<path d="M7.32007 11.7524L8.45257 9.98242" stroke="#CF0080" stroke-width="1.25" stroke-linecap="round" stroke-linejoin="round"/>
</svg>
