<svg width="17" height="17" viewBox="0 0 17 17" fill="none" xmlns="http://www.w3.org/2000/svg">
<path fill-rule="evenodd" clip-rule="evenodd" d="M16.7004 8.75474C16.7003 8.6169 16.7001 8.47894 16.7001 8.34082C16.7001 8.2027 16.7003 8.06474 16.7004 7.9269C16.7016 6.96294 16.7027 6.00496 16.6477 5.039C16.5848 3.75786 16.2913 2.62254 15.348 1.68511C14.4046 0.747688 13.2621 0.456045 11.9729 0.39355C11.0008 0.338874 10.0368 0.340006 9.06675 0.341145C8.92803 0.341308 8.78919 0.341471 8.65019 0.341471C8.51118 0.341471 8.37234 0.341308 8.23362 0.341145C7.26358 0.340006 6.29955 0.338874 5.3275 0.39355C4.03825 0.456045 2.89575 0.747688 1.9524 1.68511C1.00905 2.62254 0.715563 3.75786 0.652673 5.039C0.597651 6.00495 0.59879 6.96292 0.599936 7.92687C0.6001 8.06472 0.600264 8.20269 0.600264 8.34082C0.600264 8.47895 0.6001 8.61692 0.599936 8.75477C0.59879 9.71872 0.597651 10.6767 0.652673 11.6426C0.715563 12.9238 1.00905 14.0591 1.9524 14.9965C2.89575 15.9339 4.03825 16.2256 5.3275 16.2881C6.29957 16.3428 7.26361 16.3416 8.23367 16.3405C8.37237 16.3403 8.5112 16.3402 8.65019 16.3402C8.78918 16.3402 8.928 16.3403 9.0667 16.3405C10.0368 16.3416 11.0008 16.3428 11.9729 16.2881C13.2621 16.2256 14.4046 15.9339 15.348 14.9965C16.2913 14.0591 16.5848 12.9238 16.6477 11.6426C16.7027 10.6767 16.7016 9.7187 16.7004 8.75474ZM8.65075 1.77856C8.48637 1.77856 8.29569 1.77672 8.0864 1.77471C6.8009 1.76231 4.81297 1.74315 3.90255 2.10146C3.53569 2.24729 3.26317 2.42436 2.98016 2.7056C2.69716 2.98684 2.51897 3.25766 2.37223 3.62223C2.01166 4.52696 2.03095 6.50247 2.04341 7.77994C2.04544 7.98793 2.04729 8.17741 2.04729 8.34076C2.04729 8.50411 2.04544 8.6936 2.04341 8.90159C2.03095 10.1791 2.01166 12.1546 2.37223 13.0593C2.51897 13.4239 2.69716 13.6947 2.98016 13.9759C3.26317 14.2572 3.53569 14.4342 3.90255 14.5801C4.81297 14.9384 6.8009 14.9192 8.0864 14.9068H8.08646C8.29574 14.9048 8.48639 14.903 8.65075 14.903C8.81511 14.903 9.00576 14.9048 9.21503 14.9068H9.2151C10.5006 14.9192 12.4885 14.9384 13.3989 14.5801C13.7658 14.4342 14.0383 14.2572 14.3213 13.9759C14.6043 13.6947 14.7825 13.4239 14.9293 13.0593C15.2898 12.1546 15.2705 10.179 15.2581 8.90158C15.2561 8.69359 15.2542 8.50411 15.2542 8.34076C15.2542 8.17742 15.2561 7.98793 15.2581 7.77994C15.2705 6.50248 15.2898 4.52696 14.9293 3.62223C14.7825 3.25766 14.6043 2.98684 14.3213 2.7056C14.0383 2.42436 13.7658 2.24729 13.3989 2.10146C12.4885 1.74315 10.5006 1.76231 9.2151 1.77471C9.0058 1.77672 8.81512 1.77856 8.65075 1.77856ZM12.9478 5.02855C13.4824 5.02855 13.9121 4.60145 13.9121 4.07018C13.9121 3.53891 13.4824 3.11182 12.9478 3.11182C12.4133 3.11182 11.9835 3.53891 11.9835 4.07018C11.9835 4.60145 12.4133 5.02855 12.9478 5.02855ZM12.7803 8.34085C12.7803 10.6116 10.9355 12.4449 8.65053 12.4449C6.36553 12.4449 4.52075 10.6116 4.52075 8.34085C4.52075 6.07009 6.36553 4.23682 8.65053 4.23682C10.9355 4.23682 12.7803 6.07009 12.7803 8.34085ZM11.3337 8.34094C11.3337 6.87221 10.1283 5.67432 8.65035 5.67432C7.17243 5.67432 5.96704 6.87221 5.96704 8.34094C5.96704 9.80966 7.17243 11.0076 8.65035 11.0076C10.1283 11.0076 11.3337 9.80966 11.3337 8.34094Z" fill="#1172EB"/>
</svg>
