<svg width="18" height="18" viewBox="0 0 18 18" fill="none" xmlns="http://www.w3.org/2000/svg">
<path d="M8.99996 5.24854C9.92059 5.24854 10.6672 5.9951 10.6672 6.91573C10.6672 7.83636 9.92059 8.58292 8.99996 8.58292C8.07932 8.58292 7.33276 7.83711 7.33276 6.91573C7.33276 5.99435 8.07932 5.24854 8.99996 5.24854" stroke="#909090" stroke-width="1.25" stroke-linecap="round" stroke-linejoin="round"/>
<path fill-rule="evenodd" clip-rule="evenodd" d="M15.0024 8.43145C15.0024 11.7088 12.6337 14.7806 9.3901 15.699C9.13649 15.771 8.86338 15.771 8.60977 15.699C5.36617 14.7813 2.99744 11.7088 2.99744 8.43145V5.40919C2.99744 4.79993 3.36584 4.25071 3.93008 4.02036L7.5796 2.52724C8.49047 2.15433 9.5109 2.15433 10.421 2.52724L14.0705 4.02036C14.634 4.25071 15.0024 4.79993 15.0024 5.40919V8.43145Z" stroke="#909090" stroke-width="1.25" stroke-linecap="round" stroke-linejoin="round"/>
<path d="M12.0012 11.2511C11.9141 11.0313 11.7783 10.8347 11.605 10.6742V10.6742C11.3116 10.4025 10.929 10.251 10.529 10.251C9.86202 10.251 8.13855 10.251 7.47152 10.251C7.0716 10.251 6.68819 10.4025 6.39482 10.6742V10.6742C6.2215 10.8347 6.08644 11.0313 5.99866 11.2511" stroke="#909090" stroke-width="1.25" stroke-linecap="round" stroke-linejoin="round"/>
</svg>
