<svg width="16" height="17" viewBox="0 0 16 17" fill="none" xmlns="http://www.w3.org/2000/svg">
<g clip-path="url(#clip0_7330:2783)">
<path d="M9.28247 8.36622L7.48567 7.52782C7.32887 7.45502 7.20007 7.53662 7.20007 7.71022V9.28943C7.20007 9.46303 7.32887 9.54462 7.48567 9.47182L9.28167 8.63342C9.43927 8.55982 9.43927 8.43982 9.28247 8.36622ZM8.00007 0.819824C3.75847 0.819824 0.320068 4.25822 0.320068 8.49982C0.320068 12.7414 3.75847 16.1798 8.00007 16.1798C12.2417 16.1798 15.6801 12.7414 15.6801 8.49982C15.6801 4.25822 12.2417 0.819824 8.00007 0.819824ZM8.00007 11.6198C4.06887 11.6198 4.00007 11.2654 4.00007 8.49982C4.00007 5.73422 4.06887 5.37982 8.00007 5.37982C11.9313 5.37982 12.0001 5.73422 12.0001 8.49982C12.0001 11.2654 11.9313 11.6198 8.00007 11.6198Z" fill="#CF0080"/>
</g>
<defs>
<clipPath id="clip0_7330:2783">
<rect width="16" height="16" fill="white" transform="translate(0 0.5)"/>
</clipPath>
</defs>
</svg>
