<svg width="18" height="17" viewBox="0 0 18 17" fill="none" xmlns="http://www.w3.org/2000/svg">
<path fill-rule="evenodd" clip-rule="evenodd" d="M4.28011 2.20458C4.29114 3.24001 3.49702 4.06835 2.22863 4.06835H2.20658C0.982308 4.06835 0.199219 3.24001 0.199219 2.20458C0.199219 1.14736 1.0154 0.34082 2.25069 0.34082C3.49702 0.34082 4.26908 1.14736 4.28011 2.20458ZM4.04813 5.53961V16.3407H0.40842V5.53961H4.04813ZM12.9595 5.28895C11.0264 5.28895 10.1626 6.33519 9.6838 7.07484V5.53964H6.05512C6.05512 5.53964 6.09924 6.55326 6.05512 16.3407H9.6838V10.3135C9.6838 9.98651 9.71689 9.67043 9.80513 9.43065C10.0698 8.7876 10.6654 8.12275 11.6691 8.12275C12.9816 8.12275 13.511 9.11457 13.511 10.5642V16.3407H17.1397V10.15C17.1397 6.83664 15.3529 5.28895 12.9595 5.28895Z" fill="#1172EB"/>
</svg>
