<svg width="16" height="17" viewBox="0 0 16 17" fill="none" xmlns="http://www.w3.org/2000/svg">
<path d="M0 8.34082C0 3.92232 3.582 0.34082 8 0.34082C12.418 0.34082 16 3.92282 16 8.34082C16 12.7588 12.418 16.3408 8 16.3408C3.582 16.3408 0 12.7593 0 8.34082Z" fill="#CF0080"/>
<path fill-rule="evenodd" clip-rule="evenodd" d="M11 6.89575C11 9.52075 9.5 11.3958 6.875 11.3958C5.375 11.3958 4.77375 10.6128 4.25 9.89575M4.25 9.89575C4.26208 9.89367 5.375 9.52075 5.375 9.52075C4.1225 8.2545 4.0275 6.37909 5 5.02075C5.46125 5.87867 6.3225 6.67034 7.25 6.89575C7.28583 5.81242 8.02042 5.02075 9.125 5.02075C9.87708 5.02075 10.3196 5.30742 10.625 5.77075H11.75L11 6.89575" fill="white"/>
</svg>
