<svg id="ezmc8ikfnje1" xmlns="http://www.w3.org/2000/svg" xmlns:xlink="http://www.w3.org/1999/xlink" viewBox="0 0 274 40" shape-rendering="geometricPrecision" text-rendering="geometricPrecision"><defs><linearGradient id="ezmc8ikfnje17-fill" x1="32.077100" y1="25.727500" x2="32.077100" y2="-3.448860" spreadMethod="pad" gradientUnits="userSpaceOnUse"><stop id="ezmc8ikfnje17-fill-0" offset="0%" stop-color="rgb(0,165,255)"/><stop id="ezmc8ikfnje17-fill-1" offset="100%" stop-color="rgb(207,0,128)"/></linearGradient><linearGradient id="ezmc8ikfnje18-fill" x1="1.902470" y1="23.602600" x2="103.856000" y2="-0.008989" spreadMethod="pad" gradientUnits="userSpaceOnUse"><stop id="ezmc8ikfnje18-fill-0" offset="0%" stop-color="rgb(0,165,255)"/><stop id="ezmc8ikfnje18-fill-1" offset="100%" stop-color="rgb(207,0,128)"/></linearGradient><linearGradient id="ezmc8ikfnje19-fill" x1="-0.152983" y1="14.728400" x2="101.800000" y2="-8.883250" spreadMethod="pad" gradientUnits="userSpaceOnUse"><stop id="ezmc8ikfnje19-fill-0" offset="0%" stop-color="rgb(0,165,255)"/><stop id="ezmc8ikfnje19-fill-1" offset="100%" stop-color="rgb(207,0,128)"/></linearGradient><linearGradient id="ezmc8ikfnje20-fill" x1="2.515090" y1="26.251000" x2="104.468000" y2="2.639530" spreadMethod="pad" gradientUnits="userSpaceOnUse"><stop id="ezmc8ikfnje20-fill-0" offset="0%" stop-color="rgb(0,165,255)"/><stop id="ezmc8ikfnje20-fill-1" offset="100%" stop-color="rgb(207,0,128)"/></linearGradient><linearGradient id="ezmc8ikfnje21-fill" x1="4.413560" y1="34.447100" x2="106.367000" y2="10.835500" spreadMethod="pad" gradientUnits="userSpaceOnUse"><stop id="ezmc8ikfnje21-fill-0" offset="0%" stop-color="rgb(0,165,255)"/><stop id="ezmc8ikfnje21-fill-1" offset="100%" stop-color="rgb(207,0,128)"/></linearGradient><linearGradient id="ezmc8ikfnje22-fill" x1="3.407540" y1="30.103600" x2="105.361000" y2="6.492010" spreadMethod="pad" gradientUnits="userSpaceOnUse"><stop id="ezmc8ikfnje22-fill-0" offset="0%" stop-color="rgb(0,165,255)"/><stop id="ezmc8ikfnje22-fill-1" offset="100%" stop-color="rgb(207,0,128)"/></linearGradient><linearGradient id="ezmc8ikfnje36-fill" x1="39.308700" y1="1.110150" x2="4.114300" y2="37.919300" spreadMethod="pad" gradientUnits="userSpaceOnUse"><stop id="ezmc8ikfnje36-fill-0" offset="0%" stop-color="rgb(0,165,255)"/><stop id="ezmc8ikfnje36-fill-1" offset="100%" stop-color="rgb(207,0,128)"/></linearGradient></defs><g id="ezmc8ikfnje2" transform="matrix(1.19087012456263 0 0 1.19087012456263 -0.00000022473040 2.46615171522136)" opacity="0"><g id="ezmc8ikfnje3"><g id="ezmc8ikfnje4" clip-path="url(#ezmc8ikfnje14)"><g id="ezmc8ikfnje5" transform="matrix(1.10329578182906 0 0 1.10329578182906 -0.00000027575084 -0.23798989352059)" opacity="0"><path id="ezmc8ikfnje6" d="M11.725300,20.749300C11.396500,20.563400,11.045100,20.417600,10.676200,20.336400C8.195120,19.790000,7.055300,21.408300,5.403570,23.624700C5.403570,23.624700,3.764040,26.205900,1.807090,25.905600C1.309130,25.829700,-0.186495,25.353900,0.019317,23.614200C0.056816,23.293800,0.156234,22.983100,0.290535,22.689800L8.446280,4.822040C9.055850,3.414900,10.105800,1.437740,12.307000,1.437740C14.566600,1.437740,15.477900,3.145170,16.082200,4.563660L24.123700,21.749700C25.410100,24.289000,22.868800,26.689500,20.766200,25.708300C19.373500,25.058000,13.371800,21.678100,11.725300,20.749300Z" clip-rule="evenodd" fill="rgb(240,4,127)" fill-rule="evenodd" stroke="none" stroke-width="1"/><path id="ezmc8ikfnje7" d="M143.039000,18.379300C143.810000,17.921900,144.413000,17.283800,144.852000,16.464100C145.290000,15.644400,145.508000,14.720900,145.508000,13.691700C145.508000,12.644200,145.290000,11.709300,144.852000,10.890500C144.413000,10.070900,143.810000,9.432750,143.039000,8.976210C142.267000,8.517930,141.386000,8.289230,140.397000,8.289230C139.407000,8.289230,138.527000,8.523170,137.756000,8.989310C136.985000,9.456320,136.379000,10.100500,135.942000,10.919300C135.504000,11.739000,135.285000,12.662500,135.285000,13.691700C135.285000,14.720900,135.504000,15.644400,135.942000,16.464100C136.379000,17.283800,136.985000,17.921900,137.756000,18.379300C138.527000,18.835800,139.407000,19.064500,140.397000,19.064500C141.386000,19.064500,142.267000,18.835800,143.039000,18.379300ZM148.164000,0.306397L148.164000,20.902900C148.164000,21.071400,148.027000,21.208400,147.858000,21.208400L145.815000,21.208400C145.645000,21.208400,145.508000,21.071400,145.508000,20.902900L145.508000,18.207300C144.937000,19.218200,144.171000,19.994200,143.210000,20.537100C142.249000,21.080100,141.130000,21.351600,139.855000,21.351600C138.427000,21.351600,137.166000,21.022500,136.071000,20.365200C134.976000,19.707900,134.124000,18.793900,133.515000,17.621600C132.906000,16.450100,132.602000,15.111100,132.602000,13.605300C132.602000,12.119600,132.906000,10.799700,133.515000,9.647490C134.124000,8.494360,134.976000,7.594380,136.071000,6.945810C137.166000,6.298100,138.417000,5.974250,139.826000,5.974250C141.120000,5.974250,142.254000,6.241360,143.224000,6.774710C144.194000,7.308070,144.956000,8.079730,145.508000,9.089690L145.508000,0.306397C145.508000,0.137924,145.645000,0,145.815000,0L147.858000,0C148.027000,0,148.164000,0.137924,148.164000,0.306397ZM151.208000,6.088550L153.252000,6.088550C153.421000,6.088550,153.558000,6.225600,153.558000,6.394940L153.558000,20.902800C153.558000,21.071300,153.421000,21.208400,153.252000,21.208400L151.208000,21.208400C151.039000,21.208400,150.902000,21.071300,150.902000,20.902800L150.902000,6.394940C150.902000,6.225600,151.039000,6.088550,151.208000,6.088550ZM153.401000,0.542904C153.715000,0.868502,153.872000,1.277030,153.872000,1.772840C153.872000,2.268660,153.715000,2.678060,153.401000,3.001910C153.087000,3.325770,152.691000,3.488130,152.215000,3.488130C151.739000,3.488130,151.344000,3.325770,151.031000,3.001910C150.717000,2.678060,150.559000,2.268660,150.559000,1.772840C150.559000,1.277030,150.717000,0.868502,151.031000,0.542904C151.344000,0.219924,151.739000,0.057560,152.215000,0.057560C152.691000,0.057560,153.087000,0.219924,153.401000,0.542904ZM167.417000,15.907200C167.008000,16.678800,166.441000,17.283700,165.718000,17.721100C164.994000,18.160200,164.166000,18.379300,163.233000,18.379300C161.806000,18.379300,160.644000,17.902600,159.749000,16.949400C158.855000,15.997100,158.398000,14.777600,158.379000,13.291900C158.379000,12.300300,158.588000,11.418600,159.007000,10.647000C159.426000,9.876170,160.001000,9.270370,160.735000,8.832160C161.467000,8.393960,162.300000,8.174860,163.233000,8.174860C164.166000,8.174860,164.994000,8.393960,165.718000,8.832160C166.441000,9.270370,167.008000,9.876170,167.417000,10.647000C167.826000,11.418600,168.031000,12.300300,168.031000,13.291900C168.031000,14.263500,167.826000,15.134600,167.417000,15.907200ZM170.714000,6.394100C170.714000,6.225620,170.578000,6.088570,170.409000,6.088570L168.337000,6.088570C168.168000,6.088570,168.031000,6.225620,168.031000,6.394100L168.031000,8.860970C167.498000,7.947020,166.778000,7.241700,165.875000,6.745880C164.971000,6.250060,163.919000,6.002160,162.720000,6.002160C161.368000,6.002160,160.173000,6.307680,159.135000,6.916970C158.099000,7.527140,157.294000,8.374750,156.723000,9.461540C156.151000,10.547400,155.866000,11.795700,155.866000,13.205500C155.866000,14.634400,156.151000,15.901900,156.723000,17.007000C157.294000,18.112100,158.099000,18.975500,159.135000,19.594400C160.173000,20.212400,161.368000,20.522300,162.720000,20.522300C163.900000,20.522300,164.946000,20.270000,165.860000,19.765500C166.774000,19.260900,167.498000,18.550400,168.031000,17.635500L168.031000,19.750600C168.031000,21.218000,167.564000,22.390300,166.632000,23.266700C165.699000,24.142300,164.452000,24.581300,162.891000,24.581300C161.938000,24.581300,161.063000,24.432900,160.264000,24.138800C159.559000,23.877800,158.876000,23.494600,158.215000,22.990000C158.071000,22.880900,157.865000,22.923700,157.771000,23.078200L156.926000,24.481000C156.844000,24.618000,156.879000,24.797800,157.011000,24.889500C158.869000,26.189300,160.867000,26.838700,163.005000,26.838700C164.547000,26.838700,165.898000,26.548000,167.060000,25.967500C168.221000,25.386200,169.120000,24.552500,169.758000,23.466600C170.396000,22.380700,170.714000,21.114100,170.714000,19.665100L170.714000,6.394100ZM173.888000,6.088550L175.931000,6.088550C176.100000,6.088550,176.237000,6.225600,176.237000,6.394940L176.237000,20.902800C176.237000,21.071300,176.100000,21.208400,175.931000,21.208400L173.888000,21.208400C173.719000,21.208400,173.581000,21.071300,173.581000,20.902800L173.581000,6.394940C173.581000,6.225600,173.719000,6.088550,173.888000,6.088550ZM176.080000,0.542904C176.394000,0.868502,176.551000,1.277030,176.551000,1.772840C176.551000,2.268660,176.394000,2.678060,176.080000,3.001910C175.766000,3.325770,175.370000,3.488130,174.895000,3.488130C174.419000,3.488130,174.024000,3.325770,173.710000,3.001910C173.397000,2.678060,173.239000,2.268660,173.239000,1.772840C173.239000,1.277030,173.397000,0.868502,173.710000,0.542904C174.024000,0.219924,174.419000,0.057560,174.895000,0.057560C175.370000,0.057560,175.766000,0.219924,176.080000,0.542904ZM187.827000,20.338100C187.950000,20.263900,188.002000,20.111200,187.955000,19.975900L187.439000,18.488400C187.379000,18.313800,187.177000,18.233500,187.013000,18.317300C186.291000,18.683100,185.614000,18.865500,184.981000,18.865500C184.372000,18.865500,183.914000,18.684800,183.611000,18.321700C183.305000,17.959400,183.153000,17.359700,183.153000,16.520900L183.153000,8.173150L187.473000,8.173150C187.642000,8.173150,187.779000,8.035230,187.779000,7.866750L187.779000,6.450000C187.779000,6.280660,187.642000,6.142740,187.473000,6.142740L183.153000,6.142740L183.153000,2.850960C183.153000,2.681620,183.017000,2.543700,182.847000,2.543700L180.775000,2.543700C180.605000,2.543700,180.469000,2.681620,180.469000,2.850960L180.469000,6.142740L178.634000,6.142740C178.464000,6.142740,178.327000,6.280660,178.327000,6.450000L178.327000,7.866750C178.327000,8.035230,178.464000,8.173150,178.634000,8.173150L180.469000,8.173150L180.469000,17.007100C180.469000,18.455200,180.840000,19.536800,181.582000,20.250800C182.325000,20.965800,183.296000,21.322800,184.495000,21.322800C185.622000,21.322800,186.733000,20.994600,187.827000,20.338100ZM198.621000,18.221500C199.487000,17.621800,200.006000,16.825700,200.177000,15.835800L200.177000,14.320400L195.751000,14.320400C194.552000,14.320400,193.661000,14.501100,193.081000,14.863400C192.500000,15.224800,192.210000,15.797400,192.210000,16.577800C192.210000,17.359900,192.505000,17.978800,193.095000,18.436200C193.686000,18.893600,194.475000,19.121500,195.466000,19.121500C196.703000,19.121500,197.755000,18.821200,198.621000,18.221500ZM200.206000,20.902200L200.206000,19.093500C199.082000,20.579200,197.322000,21.323000,194.923000,21.323000C193.876000,21.323000,192.958000,21.122200,192.168000,20.722400C191.377000,20.322600,190.768000,19.770000,190.340000,19.064700C189.912000,18.360300,189.698000,17.569400,189.698000,16.693000C189.698000,15.340000,190.197000,14.268000,191.196000,13.476300C192.196000,12.686300,193.590000,12.281300,195.379000,12.262100L200.177000,12.262100L200.177000,11.547200C200.177000,10.481300,199.849000,9.656420,199.192000,9.075060C198.535000,8.493700,197.579000,8.203020,196.322000,8.203020C194.884000,8.203020,193.420000,8.688360,191.930000,9.656420C191.786000,9.750700,191.593000,9.709670,191.503000,9.562150L190.710000,8.259760C190.623000,8.117470,190.666000,7.930660,190.807000,7.841620C191.796000,7.220100,192.716000,6.764440,193.566000,6.474630C194.490000,6.160380,195.589000,6.002380,196.865000,6.002380C198.749000,6.002380,200.206000,6.465030,201.234000,7.389450C202.262000,8.313000,202.785000,9.604050,202.804000,11.261700L202.832000,20.901300C202.832000,21.071600,202.695000,21.208600,202.526000,21.208600L200.512000,21.208600C200.343000,21.208600,200.206000,21.071600,200.206000,20.902200ZM207.694000,0.000226L205.650000,0.000226C205.482000,0.000226,205.344000,0.137273,205.344000,0.306619L205.344000,20.902200C205.344000,21.071600,205.482000,21.208600,205.650000,21.208600L207.694000,21.208600C207.863000,21.208600,208,21.071600,208,20.902200L208,0.306619C208,0.137273,207.863000,0.000226,207.694000,0.000226Z" clip-rule="evenodd" fill="rgb(135,135,160)" fill-rule="evenodd" stroke="none" stroke-width="1"/><path id="ezmc8ikfnje8" d="M45.675200,17.635000C46.341400,17.196800,46.740800,16.644300,46.874300,15.977300L46.874300,14.605100L43.419100,14.605100C42.562700,14.605100,41.928700,14.743000,41.519700,15.019800C41.110700,15.295600,40.905700,15.739000,40.905700,16.348300C40.905700,16.940200,41.119400,17.411600,41.548400,17.763300C41.976600,18.116900,42.562700,18.293200,43.304000,18.293200C44.217900,18.293200,45.008000,18.074100,45.675200,17.635000ZM46.903000,20.930300L46.903000,19.435800C46.388500,20.084400,45.722200,20.579400,44.903400,20.923300C44.085300,21.265500,43.142600,21.436600,42.076900,21.436600C40.458300,21.436600,39.172900,20.994000,38.221400,20.108000C37.269100,19.221100,36.793000,18.063600,36.793000,16.634700C36.793000,15.186500,37.302300,14.057800,38.320900,13.247700C39.339500,12.437700,40.781900,12.023000,42.647300,12.003800L46.874300,12.003800L46.874300,11.718400C46.874300,10.898700,46.602200,10.265800,46.059700,9.817170C45.517300,9.369360,44.722800,9.145020,43.675500,9.145020C42.333300,9.145020,40.905700,9.542200,39.395300,10.333900C39.238300,10.415100,39.043800,10.351400,38.971400,10.190800L37.857800,7.729150C37.789800,7.578140,37.853400,7.399190,38.002600,7.326740C39.120600,6.783780,40.174000,6.379620,41.163000,6.116000C42.228700,5.829680,43.399900,5.686520,44.675700,5.686520C46.731300,5.686520,48.325400,6.172740,49.459100,7.144300C50.591100,8.116730,51.167500,9.469750,51.185900,11.204200L51.214600,20.929400C51.215500,21.099600,51.077700,21.236700,50.908500,21.236700L47.209200,21.236700C47.039100,21.236700,46.903000,21.100500,46.903000,20.930300Z" clip-rule="evenodd" fill="rgb(43,43,58)" fill-rule="evenodd" stroke="none" stroke-width="1"/><path id="ezmc8ikfnje9" d="M61.125000,9.459910C60.020100,9.459910,59.121000,9.837010,58.425900,10.589500C57.730900,11.341900,57.383800,12.337900,57.383800,13.576600C57.383800,14.815300,57.726500,15.820000,58.412000,16.591600C59.097400,17.364200,59.973000,17.749100,61.038700,17.749100C62.528200,17.749100,63.662800,17.228000,64.442400,16.186600C64.540100,16.057400,64.723200,16.026000,64.857500,16.117700L67.391800,17.840800C67.531300,17.935900,67.566200,18.126200,67.472900,18.266800C66.838900,19.227900,65.984300,19.980300,64.909000,20.522400C63.737800,21.113400,62.372100,21.408400,60.811100,21.408400C59.268300,21.408400,57.907000,21.084600,56.727100,20.436900C55.546300,19.789100,54.628000,18.874300,53.971300,17.692400C53.314600,16.511300,52.985800,15.148700,52.985800,13.604500C52.985800,12.042900,53.314600,10.665400,53.971300,9.474750C54.628000,8.283220,55.550600,7.358790,56.741000,6.701480C57.930600,6.044180,59.306700,5.715090,60.867700,5.715090C62.333700,5.715090,63.638400,5.996170,64.779900,6.558330C65.826400,7.073350,66.680200,7.783030,67.343000,8.689130C67.444100,8.827050,67.415400,9.021710,67.276700,9.122090L64.779000,10.924700C64.654300,11.014600,64.479900,10.998900,64.377000,10.883600C63.525900,9.934780,62.441900,9.459910,61.125000,9.459910Z" clip-rule="evenodd" fill="rgb(43,43,58)" fill-rule="evenodd" stroke="none" stroke-width="1"/><path id="ezmc8ikfnje10" d="M79.686700,12.290200C79.648300,11.280200,79.325700,10.470100,78.716100,9.860830C78.106500,9.250660,77.298100,8.945130,76.289100,8.945130C75.336800,8.945130,74.542300,9.246290,73.903900,9.845990C73.266400,10.446600,72.861800,11.261000,72.690900,12.290200L79.686700,12.290200ZM81.900100,7.859220C83.185500,9.289060,83.828200,11.280200,83.828200,13.834300C83.828200,14.133800,83.823900,14.388600,83.815200,14.599000C83.809900,14.763100,83.673900,14.890600,83.509900,14.890600L72.776300,14.890600C73.023100,15.863000,73.499300,16.620700,74.203900,17.163700C74.908600,17.706600,75.755400,17.979000,76.746000,17.979000C77.469000,17.979000,78.164100,17.840200,78.830300,17.564300C79.411100,17.323400,79.940500,16.984700,80.420100,16.549100C80.540500,16.439100,80.725400,16.447000,80.839600,16.563100L82.737300,18.485200C82.852400,18.600500,82.857600,18.789900,82.744200,18.907700C82.003000,19.680300,81.122200,20.280000,80.101800,20.708600C78.987300,21.175600,77.744600,21.408600,76.374500,21.408600C74.755900,21.408600,73.342300,21.084800,72.133600,20.437100C70.924000,19.789400,69.991700,18.874600,69.335100,17.691800C68.678400,16.511600,68.349600,15.148100,68.349600,13.604800C68.349600,12.043100,68.682700,10.665700,69.349000,9.474120C70.015300,8.283460,70.947600,7.359040,72.147500,6.701730C73.346700,6.044420,74.718400,5.715330,76.260300,5.715330C78.734400,5.715330,80.614600,6.430250,81.900100,7.859220Z" clip-rule="evenodd" fill="rgb(43,43,58)" fill-rule="evenodd" stroke="none" stroke-width="1"/><path id="ezmc8ikfnje11" d="M93.654300,9.273980C92.836300,9.016470,92.102900,8.888150,91.455800,8.888150C90.922100,8.888150,90.493900,8.984170,90.170300,9.174460C89.846800,9.364760,89.684600,9.651080,89.684600,10.031700C89.684600,10.451500,89.903500,10.775400,90.341300,11.003200C90.779000,11.231900,91.493300,11.489400,92.483100,11.774900C93.568000,12.099600,94.463600,12.419100,95.167400,12.733300C95.872000,13.046700,96.481600,13.513700,96.995300,14.133500C97.509800,14.752400,97.767100,15.567700,97.767100,16.577700C97.767100,18.101800,97.181000,19.289000,96.009800,20.135700C94.839500,20.984200,93.340400,21.408400,91.512500,21.408400C90.256700,21.408400,89.047100,21.222500,87.885500,20.851500C86.810600,20.507600,85.867000,20.029200,85.054200,19.416400C84.938300,19.330000,84.903400,19.172000,84.965300,19.041100L86.125200,16.626600C86.207100,16.456300,86.422600,16.398700,86.576900,16.509600C87.281100,17.015000,88.055500,17.413900,88.899700,17.706400C89.859900,18.040700,90.769500,18.206500,91.626700,18.206500C92.217100,18.206500,92.688000,18.107000,93.040400,17.907100C93.392700,17.706400,93.568000,17.406100,93.568000,17.006300C93.568000,16.568100,93.344700,16.225000,92.897300,15.977100C92.450000,15.730100,91.731400,15.463000,90.741500,15.177500C89.694200,14.872000,88.823000,14.566500,88.128800,14.262700C87.432900,13.957200,86.838500,13.495400,86.343200,12.875600C85.847800,12.256700,85.601000,11.451000,85.601000,10.460300C85.601000,8.935280,86.172300,7.755090,87.314300,6.916220C88.456700,6.077340,89.903500,5.657470,91.655500,5.657470C92.702000,5.657470,93.749400,5.805870,94.796700,6.100910C95.747300,6.369770,96.620300,6.744250,97.414700,7.224360C97.550800,7.306410,97.597000,7.481870,97.525500,7.623280L96.281900,10.091000C96.204300,10.245500,96.013300,10.303100,95.860700,10.220200C95.117700,9.818680,94.382500,9.503550,93.654300,9.273980Z" clip-rule="evenodd" fill="rgb(43,43,58)" fill-rule="evenodd" stroke="none" stroke-width="1"/><path id="ezmc8ikfnje12" d="M117.786000,10.546100C117.072000,11.328200,116.714000,12.346900,116.714000,13.604800C116.714000,14.862600,117.072000,15.882200,117.786000,16.663500C118.500000,17.444700,119.428000,17.835800,120.570000,17.835800C121.693000,17.835800,122.612000,17.444700,123.327000,16.663500C124.040000,15.882200,124.397000,14.862600,124.397000,13.604800C124.397000,12.346900,124.040000,11.328200,123.327000,10.546100C122.612000,9.764800,121.693000,9.373730,120.570000,9.373730C119.428000,9.373730,118.500000,9.764800,117.786000,10.546100ZM124.868000,6.686890C126.116000,7.335470,127.081000,8.250280,127.766000,9.432210C128.452000,10.613300,128.795000,11.984600,128.795000,13.547100C128.795000,15.091300,128.452000,16.458300,127.766000,17.649900C127.081000,18.840500,126.116000,19.765800,124.868000,20.422200C123.620000,21.079600,122.189000,21.408600,120.570000,21.408600C118.932000,21.408600,117.491000,21.079600,116.244000,20.422200C114.996000,19.765800,114.030000,18.840500,113.345000,17.649900C112.659000,16.458300,112.317000,15.091300,112.317000,13.547100C112.317000,11.984600,112.659000,10.613300,113.345000,9.432210C114.030000,8.250280,114.996000,7.335470,116.244000,6.686890C117.491000,6.040060,118.932000,5.715330,120.570000,5.715330C122.189000,5.715330,123.620000,6.040060,124.868000,6.686890Z" clip-rule="evenodd" fill="rgb(43,43,58)" fill-rule="evenodd" stroke="none" stroke-width="1"/><path id="ezmc8ikfnje13" d="M110.378000,14.134000C109.864000,13.514200,109.255000,13.047200,108.550000,12.733800C107.846000,12.418700,106.951000,12.100100,105.866000,11.775400C104.876000,11.489900,104.162000,11.232400,103.724000,11.003700C103.286000,10.774100,103.067000,10.451100,103.067000,10.032100C103.067000,9.650680,103.229000,9.364370,103.553000,9.174070C103.876000,8.983780,104.305000,8.887750,104.838000,8.887750C105.485000,8.887750,106.218000,9.016950,107.037000,9.274460C107.765000,9.503160,108.500000,9.819160,109.243000,10.220700C109.396000,10.302800,109.587000,10.246000,109.664000,10.090600L110.908000,7.623770C110.980000,7.482360,110.933000,7.306900,110.797000,7.224850C110.003000,6.743870,109.130000,6.369390,108.179000,6.101400C107.132000,5.806350,106.085000,5.657960,105.038000,5.657960C103.286000,5.657960,101.839000,6.077830,100.697000,6.915830C99.555300,7.754710,98.984100,8.935760,98.984100,10.460800C98.984100,11.451500,99.230900,12.257200,99.726200,12.876100C100.222000,13.495900,100.815000,13.957700,101.511000,14.262300C102.206000,14.567000,103.077000,14.872500,104.124000,15.177100C105.114000,15.462600,105.833000,15.729700,106.280000,15.976700C106.726000,16.225500,106.951000,16.568600,106.951000,17.006800C106.951000,17.406600,106.775000,17.706800,106.423000,17.906700C106.071000,18.107500,105.600000,18.207000,105.009000,18.207000C104.152000,18.207000,103.242000,18.041200,102.282000,17.706800C101.438000,17.414400,100.664000,17.015500,99.959900,16.510100C99.847400,16.428900,99.702700,16.438500,99.600700,16.516200C99.600700,16.536300,99.601500,16.556300,99.601500,16.578200C99.601500,17.737400,99.347700,18.791000,98.859400,19.713700C99.572700,20.185100,100.374000,20.564800,101.269000,20.851100C102.430000,21.222900,103.638000,21.408900,104.895000,21.408900C106.723000,21.408900,108.222000,20.984600,109.393000,20.136200C110.564000,19.288600,111.150000,18.102300,111.150000,16.578200C111.150000,15.568200,110.892000,14.752900,110.378000,14.134000Z" clip-rule="evenodd" fill="rgb(43,43,58)" fill-rule="evenodd" stroke="none" stroke-width="1"/></g><clipPath id="ezmc8ikfnje14"><rect id="ezmc8ikfnje15" width="229.485522" height="33.588885" rx="0" ry="0" transform="matrix(1 0 0 1 -0.00000008129263 -2.07088217633201)" fill="rgb(84,131,204)" stroke="none" stroke-width="1"/></clipPath></g></g></g><g id="ezmc8ikfnje16" transform="matrix(1.29611154765776 0 0 1.29611154765776 4.41177395499994 3.34114988029858)" opacity="0"><path id="ezmc8ikfnje17" d="M34.515100,0L29.637200,0L29.637200,26L34.515100,26L34.515100,0Z" fill="url(#ezmc8ikfnje17-fill)" stroke="none" stroke-width="1"/><path id="ezmc8ikfnje18" d="M56.838700,26L51.960800,26L51.960800,13.369300C51.960800,8.642050,48.048100,4.795450,43.239500,4.795450C38.431000,4.795450,34.518300,8.642050,34.518300,13.369300L34.518300,26L29.640400,26L29.640400,13.369300C29.637500,5.997160,35.740600,0,43.239500,0C50.738400,0,56.838700,5.997160,56.838700,13.369300L56.838700,26Z" fill="url(#ezmc8ikfnje18-fill)" stroke="none" stroke-width="1"/><path id="ezmc8ikfnje19" d="M13.599200,26C6.100260,26,0,20.002800,0,12.630700L0,0L4.877900,0L4.877900,12.630700C4.877900,17.358000,8.790620,21.204500,13.599200,21.204500C18.407700,21.204500,22.323300,17.358000,22.323300,12.630700L22.323300,0L27.201200,0L27.201200,12.630700C27.198300,20.002800,21.098100,26,13.599200,26Z" fill="url(#ezmc8ikfnje19-fill)" stroke="none" stroke-width="1"/><path id="ezmc8ikfnje20" d="M64.154600,0L59.276700,0L59.276700,26L64.154600,26L64.154600,0Z" fill="url(#ezmc8ikfnje20-fill)" stroke="none" stroke-width="1"/><path id="ezmc8ikfnje21" d="M100.231000,26C92.940000,26,87.007300,20.167600,87.007300,13C87.007300,5.832390,92.940000,0,100.231000,0C107.522000,0,113.454000,5.832390,113.454000,13C113.454000,20.167600,107.522000,26,100.231000,26ZM100.231000,4.795450C95.627500,4.795450,91.885200,8.477270,91.885200,13C91.885200,17.525600,95.630300,21.204500,100.231000,21.204500C104.834000,21.204500,108.576000,17.522700,108.576000,13C108.576000,8.477270,104.834000,4.795450,100.231000,4.795450Z" fill="url(#ezmc8ikfnje21-fill)" stroke="none" stroke-width="1"/><path id="ezmc8ikfnje22" d="M79.817500,26C72.526600,26,66.594000,20.167600,66.594000,13C66.594000,5.832390,72.523800,0,79.817500,0C82.525200,0,85.131700,0.801136,87.351100,2.315340L84.568200,6.252840C83.169600,5.298300,81.525300,4.792610,79.814600,4.792610C75.211200,4.792610,71.469000,8.474430,71.469000,12.997200C71.469000,17.522700,75.214100,21.201700,79.814600,21.201700C81.525300,21.201700,83.166700,20.696000,84.568200,19.741500L87.351100,23.679000C85.131700,25.198900,82.525200,26,79.817500,26Z" fill="url(#ezmc8ikfnje22-fill)" stroke="none" stroke-width="1"/></g><g id="ezmc8ikfnje23" transform="matrix(1 0 0 1 45.75966944000007 0.20000076500001)"><g id="ezmc8ikfnje24" clip-path="url(#ezmc8ikfnje33)"><g id="ezmc8ikfnje25"><path id="ezmc8ikfnje26" d="M16.428100,11.600000C14.792700,10.672700,12.952900,10.200000,10.890100,10.200000C8.827310,10.200000,6.968930,10.672700,5.333560,11.600000C3.698180,12.527200,2.397310,13.800000,1.430960,15.400000C0.483181,17,0,18.836300,0,20.872700C0,22.890900,0.464595,24.709000,1.393790,26.309000C2.322980,27.909000,3.586670,29.181800,5.166300,30.109000C6.764510,31.036300,8.548550,31.509000,10.574200,31.509000C12.469700,31.509000,14.179400,31.090900,15.684700,30.218100C16.911300,29.527200,17.914800,28.618100,18.713900,27.527200L18.713900,29.854500C18.713900,30.290900,18.862600,30.636300,19.141300,30.909000C19.420100,31.181800,19.791800,31.309000,20.237800,31.309000C20.683800,31.309000,21.036900,31.181800,21.334200,30.909000C21.613000,30.636300,21.761600,30.290900,21.761600,29.854500L21.761600,20.890900C21.743100,18.854500,21.241300,17.018100,20.293500,15.418100C19.345800,13.800000,18.044900,12.545400,16.428100,11.600000ZM14.941400,27.818100C13.752000,28.509000,12.395400,28.854500,10.890100,28.854500C9.403410,28.854500,8.065370,28.509000,6.857430,27.818100C5.649480,27.127200,4.701700,26.181800,3.995520,24.963600C3.289340,23.745400,2.936240,22.400000,2.936240,20.890900C2.936240,19.363600,3.289340,18,3.995520,16.800000C4.701700,15.600000,5.649480,14.654500,6.857430,13.945400C8.065370,13.236300,9.403410,12.890900,10.890100,12.890900C12.395400,12.890900,13.752000,13.236300,14.941400,13.945400C16.130700,14.654500,17.059900,15.600000,17.766100,16.800000C18.453700,18,18.806800,19.363600,18.806800,20.890900C18.806800,22.400000,18.453700,23.763600,17.766100,24.963600C17.059900,26.181800,16.130700,27.127200,14.941400,27.818100Z" fill="rgb(88,88,88)" stroke="none" stroke-width="1"/><path id="ezmc8ikfnje27" d="M42.018000,11.563600C40.382700,10.654500,38.524300,10.200000,36.405700,10.200000C34.324300,10.200000,32.447400,10.654500,30.812000,11.563600C29.176600,12.472700,27.875700,13.727200,26.946600,15.327200C25.998800,16.927200,25.534200,18.781800,25.534200,20.872700C25.534200,22.945400,25.980200,24.781800,26.890800,26.381800C27.782800,27.981800,29.027900,29.254500,30.626100,30.145400C32.224400,31.054500,34.045600,31.509000,36.108400,31.509000C37.929600,31.509000,39.565000,31.090900,40.977300,30.272700C42.389700,29.436300,43.504700,28.290900,44.322400,26.836300L44.322400,28.581800C44.322400,30.272700,43.969300,31.727200,43.281700,32.981800C42.594100,34.236300,41.664900,35.200000,40.475600,35.890900C39.304800,36.581800,37.985300,36.927200,36.517200,36.927200C34.956200,36.927200,33.581000,36.654500,32.391600,36.090900C31.202200,35.527200,30.235900,34.781800,29.474000,33.872700C29.232400,33.563600,28.916400,33.381800,28.489000,33.290900C28.080200,33.218100,27.689900,33.290900,27.355400,33.527200C27.020900,33.763600,26.835000,34.054500,26.779300,34.400000C26.742100,34.763600,26.872200,35.090900,27.151000,35.400000C28.173100,36.709000,29.455400,37.727200,31.016400,38.472700C32.577500,39.218100,34.398700,39.600000,36.461500,39.600000C38.542900,39.600000,40.401200,39.127200,42.018000,38.163600C43.634800,37.200000,44.917100,35.909000,45.846300,34.254500C46.794100,32.600000,47.258700,30.745400,47.258700,28.690900L47.258700,20.872700C47.240100,18.781800,46.756900,16.927200,45.827700,15.327200C44.917100,13.727200,43.634800,12.472700,42.018000,11.563600ZM43.281700,25.018100C42.594100,26.218100,41.664900,27.163600,40.475600,27.836300C39.286200,28.509000,37.929600,28.854500,36.387100,28.854500C34.844700,28.854500,33.469500,28.509000,32.280100,27.836300C31.072200,27.163600,30.143000,26.218100,29.455400,25.018100C28.767800,23.818100,28.433300,22.436300,28.433300,20.890900C28.433300,19.327200,28.767800,17.945400,29.455400,16.745400C30.124400,15.527200,31.072200,14.581800,32.280100,13.909000C33.488100,13.236300,34.844700,12.890900,36.387100,12.890900C37.929600,12.890900,39.286200,13.236300,40.475600,13.909000C41.664900,14.581800,42.594100,15.527200,43.281700,16.745400C43.950800,17.963600,44.303900,19.345400,44.303900,20.890900C44.303900,22.454500,43.969300,23.818100,43.281700,25.018100Z" fill="rgb(88,88,88)" stroke="none" stroke-width="1"/><path id="ezmc8ikfnje28" d="M67.477800,11.581800C65.842400,10.654500,63.984100,10.200000,61.902700,10.200000C59.821300,10.200000,57.944300,10.654500,56.308900,11.581800C54.673600,12.509000,53.372700,13.763600,52.443500,15.363600C51.495700,16.963600,51.031100,18.800000,51.031100,20.872700C51.031100,22.909000,51.495700,24.745400,52.443500,26.345400C53.391300,27.945400,54.673600,29.218100,56.308900,30.127200C57.944300,31.054500,59.821300,31.509000,61.902700,31.509000C63.984100,31.509000,65.842400,31.054500,67.477800,30.127200C69.113200,29.200000,70.395500,27.945400,71.343300,26.345400C72.291000,24.745400,72.774200,22.909000,72.774200,20.872700C72.755600,18.800000,72.272400,16.963600,71.324700,15.363600C70.395500,13.763600,69.113200,12.509000,67.477800,11.581800ZM68.797300,24.981800C68.109700,26.181800,67.180500,27.127200,65.972500,27.818100C64.764600,28.509000,63.408000,28.854500,61.902700,28.854500C60.397400,28.854500,59.040800,28.509000,57.832800,27.818100C56.624900,27.127200,55.695700,26.181800,54.989500,24.981800C54.301900,23.781800,53.948800,22.418100,53.948800,20.890900C53.948800,19.363600,54.301900,17.981800,54.989500,16.781800C55.677100,15.563600,56.624900,14.618100,57.832800,13.927200C59.040800,13.236300,60.397400,12.890900,61.902700,12.890900C63.408000,12.890900,64.764600,13.236300,65.972500,13.927200C67.180500,14.618100,68.109700,15.563600,68.797300,16.781800C69.466300,18,69.819400,19.363600,69.819400,20.890900C69.819400,22.418100,69.466300,23.781800,68.797300,24.981800Z" fill="rgb(88,88,88)" stroke="none" stroke-width="1"/><path id="ezmc8ikfnje29" d="M90.112900,10.672800C89.462400,10.345500,88.533200,10.181900,87.343900,10.181900C85.838600,10.181900,84.463400,10.545500,83.218300,11.254600C82.214700,11.836400,81.359900,12.600100,80.653700,13.545500L80.653700,11.872800C80.653700,11.418200,80.523600,11.054600,80.263500,10.800100C80.003300,10.545500,79.631600,10.418200,79.167000,10.418200C78.702400,10.418200,78.330700,10.545500,78.070600,10.800100C77.810400,11.054600,77.680300,11.418200,77.680300,11.872800L77.680300,29.909200C77.680300,30.363700,77.810400,30.727300,78.070600,30.981900C78.330700,31.236400,78.702400,31.363700,79.167000,31.363700C79.631600,31.363700,80.003300,31.236400,80.263500,30.981900C80.523600,30.727300,80.653700,30.363700,80.653700,29.909200L80.653700,18.454600C80.653700,17.254600,80.988200,16.218200,81.657200,15.345500C82.326300,14.472800,83.218300,13.836400,84.351900,13.418200C85.485500,13.000100,86.786400,12.854600,88.254500,12.981900C88.700500,13.000100,89.090800,13.036400,89.443800,13.054600C89.796900,13.072800,90.094300,13.036400,90.335900,12.909200C90.577500,12.781900,90.763300,12.527300,90.856200,12.145500C91.023500,11.491000,90.763300,11.000100,90.112900,10.672800Z" fill="rgb(88,88,88)" stroke="none" stroke-width="1"/><path id="ezmc8ikfnje30" d="M108.325000,11.600000C106.690000,10.672700,104.850000,10.200000,102.787000,10.200000C100.724000,10.200000,98.865900,10.672700,97.230500,11.600000C95.595200,12.527200,94.294300,13.800000,93.327900,15.400000C92.380200,17,91.897000,18.836300,91.897000,20.872700C91.897000,22.890900,92.361600,24.709000,93.290800,26.309000C94.220000,27.909000,95.483600,29.181800,97.063300,30.109000C98.661500,31.036300,100.446000,31.509000,102.471000,31.509000C104.367000,31.509000,106.076000,31.090900,107.582000,30.218100C108.808000,29.527200,109.812000,28.618100,110.611000,27.527200L110.611000,29.854500C110.611000,30.290900,110.760000,30.636300,111.038000,30.909000C111.317000,31.181800,111.689000,31.309000,112.135000,31.309000C112.581000,31.309000,112.934000,31.181800,113.231000,30.909000C113.510000,30.636300,113.659000,30.290900,113.659000,29.854500L113.659000,20.890900C113.640000,18.854500,113.138000,17.018100,112.191000,15.418100C111.261000,13.800000,109.960000,12.545400,108.325000,11.600000ZM106.838000,27.818100C105.649000,28.509000,104.292000,28.854500,102.787000,28.854500C101.300000,28.854500,99.962400,28.509000,98.754400,27.818100C97.546500,27.127200,96.598700,26.181800,95.892500,24.963600C95.186300,23.745400,94.833200,22.400000,94.833200,20.890900C94.833200,19.363600,95.186300,18,95.892500,16.800000C96.598700,15.600000,97.546500,14.654500,98.754400,13.945400C99.962400,13.236300,101.300000,12.890900,102.787000,12.890900C104.292000,12.890900,105.649000,13.236300,106.838000,13.945400C108.028000,14.654500,108.957000,15.600000,109.663000,16.800000C110.351000,18,110.704000,19.363600,110.704000,20.890900C110.704000,22.400000,110.351000,23.763600,109.663000,24.963600C108.976000,26.181800,108.028000,27.127200,106.838000,27.818100Z" fill="rgb(88,88,88)" stroke="none" stroke-width="1"/><path id="ezmc8ikfnje31" d="M137.706000,7.218180C138.115000,7.218180,138.468000,7.090910,138.728000,6.836360L143.114000,2.509090C143.263000,2.381820,143.374000,2.236360,143.448000,2.054550C143.504000,1.872730,143.541000,1.690910,143.541000,1.527270C143.541000,1.090910,143.393000,0.727273,143.114000,0.436364C142.835000,0.145455,142.463000,0,142.017000,0C141.609000,0,141.256000,0.145455,140.958000,0.418182L136.535000,4.745460C136.294000,5,136.182000,5.327270,136.182000,5.745460C136.182000,6.145460,136.331000,6.509090,136.628000,6.800000C136.925000,7.072730,137.279000,7.218180,137.706000,7.218180Z" fill="rgb(88,88,88)" stroke="none" stroke-width="1"/><path id="ezmc8ikfnje32" d="M146.775000,15.181800C145.957000,13.618100,144.824000,12.400000,143.355000,11.527200C141.887000,10.654500,140.159000,10.200000,138.171000,10.200000C136.164000,10.200000,134.379000,10.654500,132.856000,11.581800C131.313000,12.509000,130.105000,13.763600,129.232000,15.345400C128.358000,16.945400,127.912000,18.781800,127.912000,20.872700C127.912000,22.945400,128.377000,24.781800,129.306000,26.381800C130.235000,27.981800,131.518000,29.254500,133.134000,30.145400C134.770000,31.054500,136.628000,31.509000,138.747000,31.509000C139.973000,31.509000,141.255000,31.272700,142.575000,30.800000C143.913000,30.327200,145.009000,29.727200,145.864000,29.018100C146.180000,28.763600,146.329000,28.454500,146.310000,28.090900C146.292000,27.727200,146.124000,27.400000,145.790000,27.090900C145.530000,26.890900,145.214000,26.800000,144.842000,26.800000C144.470000,26.818100,144.155000,26.927200,143.857000,27.163600C143.281000,27.654500,142.519000,28.054500,141.571000,28.363600C140.624000,28.690900,139.676000,28.836300,138.728000,28.836300C137.167000,28.836300,135.773000,28.490900,134.584000,27.800000C133.376000,27.109000,132.447000,26.163600,131.741000,24.963600C131.202000,24.018100,130.867000,22.963600,130.756000,21.781800L146.552000,21.781800C146.961000,21.781800,147.314000,21.654500,147.574000,21.418100C147.834000,21.181800,147.964000,20.854500,147.964000,20.436300C147.983000,18.509000,147.593000,16.745400,146.775000,15.181800ZM134.249000,13.890900C135.364000,13.200000,136.684000,12.854500,138.171000,12.854500C139.639000,12.854500,140.884000,13.181800,141.943000,13.854500C143.002000,14.527200,143.820000,15.436300,144.396000,16.618100C144.805000,17.472700,145.065000,18.400000,145.177000,19.418100L130.849000,19.418100C130.979000,18.454500,131.257000,17.563600,131.666000,16.763600C132.261000,15.527200,133.134000,14.581800,134.249000,13.890900Z" fill="rgb(88,88,88)" stroke="none" stroke-width="1"/></g><clipPath id="ezmc8ikfnje33"><rect id="ezmc8ikfnje34" width="45.759669" height="39.799999" rx="0" ry="0" transform="matrix(1 0 0 1 -45.75966944125327 0.00000000499410)" opacity="0" fill="rgb(84,131,204)" stroke="none" stroke-width="1"/></clipPath></g></g><g id="ezmc8ikfnje35" transform="matrix(1 0 0 1 212.11560058999999 0)" opacity="0"><path id="ezmc8ikfnje36" d="M29.715500,40L11.168900,40C4.999040,40,0,35.109100,0,29.072700L0,10.927300C0,4.890910,4.999040,0,11.168900,0L29.715500,0C35.885300,0,40.884400,4.890910,40.884400,10.927300L40.884400,29.072700C40.884400,35.109100,35.885300,40,29.715500,40Z" fill="url(#ezmc8ikfnje36-fill)" stroke="none" stroke-width="1"/><g id="ezmc8ikfnje37"><path id="ezmc8ikfnje38" d="M14.625400,11.381800L11.373300,11.381800L11.373300,20.872400L14.625400,20.872400L14.625400,11.381800Z" fill="rgb(255,8,102)" stroke="none" stroke-width="1"/><path id="ezmc8ikfnje39" d="M14.625400,21.890600L11.373300,21.890600L11.373300,28.617900L14.625400,28.617900L14.625400,21.890600Z" fill="rgb(255,203,0)" stroke="none" stroke-width="1"/><path id="ezmc8ikfnje40" d="M29.511100,28.618100L26.258900,28.618100L26.258900,20.236300C26.258900,17.090800,23.657200,14.545300,20.442200,14.545300C17.227200,14.545300,14.625500,17.090800,14.625500,20.236300L14.625500,28.618100L11.373300,28.618100L11.373300,20.236300C11.373300,15.345300,15.443200,11.363500,20.442200,11.363500C25.441200,11.363500,29.511100,15.345300,29.511100,20.236300L29.511100,28.618100Z" fill="rgb(255,255,255)" stroke="none" stroke-width="1"/></g></g><script><![CDATA[!function(t,n){"object"==typeof exports&&"undefined"!=typeof module?module.exports=n():"function"==typeof define&&define.amd?define(n):(t=t||self).__SVGATOR_PLAYER__=n()}(this,(function(){"use strict";function t(n){return(t="function"==typeof Symbol&&"symbol"==typeof Symbol.iterator?function(t){return typeof t}:function(t){return t&&"function"==typeof Symbol&&t.constructor===Symbol&&t!==Symbol.prototype?"symbol":typeof t})(n)}function n(t,n){if(!(t instanceof n))throw new TypeError("Cannot call a class as a function")}function e(t,n){for(var e=0;e<n.length;e++){var r=n[e];r.enumerable=r.enumerable||!1,r.configurable=!0,"value"in r&&(r.writable=!0),Object.defineProperty(t,r.key,r)}}function r(t,n,r){return n&&e(t.prototype,n),r&&e(t,r),t}function i(t){return(i=Object.setPrototypeOf?Object.getPrototypeOf:function(t){return t.__proto__||Object.getPrototypeOf(t)})(t)}function u(t,n){return(u=Object.setPrototypeOf||function(t,n){return t.__proto__=n,t})(t,n)}function o(t,n){return!n||"object"!=typeof n&&"function"!=typeof n?function(t){if(void 0===t)throw new ReferenceError("this hasn't been initialised - super() hasn't been called");return t}(t):n}function a(t){var n=function(){if("undefined"==typeof Reflect||!Reflect.construct)return!1;if(Reflect.construct.sham)return!1;if("function"==typeof Proxy)return!0;try{return Date.prototype.toString.call(Reflect.construct(Date,[],(function(){}))),!0}catch(t){return!1}}();return function(){var e,r=i(t);if(n){var u=i(this).constructor;e=Reflect.construct(r,arguments,u)}else e=r.apply(this,arguments);return o(this,e)}}function l(t,n,e){return(l="undefined"!=typeof Reflect&&Reflect.get?Reflect.get:function(t,n,e){var r=function(t,n){for(;!Object.prototype.hasOwnProperty.call(t,n)&&null!==(t=i(t)););return t}(t,n);if(r){var u=Object.getOwnPropertyDescriptor(r,n);return u.get?u.get.call(e):u.value}})(t,n,e||t)}var f=Math.abs;function s(t){return t}function c(t,n,e){var r=1-e;return 3*e*r*(t*r+n*e)+e*e*e}function h(){var t=arguments.length>0&&void 0!==arguments[0]?arguments[0]:0,n=arguments.length>1&&void 0!==arguments[1]?arguments[1]:0,e=arguments.length>2&&void 0!==arguments[2]?arguments[2]:1,r=arguments.length>3&&void 0!==arguments[3]?arguments[3]:1;return t<0||t>1||e<0||e>1?null:f(t-n)<=1e-5&&f(e-r)<=1e-5?s:function(i){if(i<=0)return t>0?i*n/t:0===n&&e>0?i*r/e:0;if(i>=1)return e<1?1+(i-1)*(r-1)/(e-1):1===e&&t<1?1+(i-1)*(n-1)/(t-1):1;for(var u,o=0,a=1;o<a;){var l=c(t,e,u=(o+a)/2);if(f(i-l)<1e-5)break;l<i?o=u:a=u}return c(n,r,u)}}function v(){return 1}function d(t){return 1===t?1:0}function y(){var t=arguments.length>0&&void 0!==arguments[0]?arguments[0]:1,n=arguments.length>1&&void 0!==arguments[1]?arguments[1]:0;if(1===t){if(0===n)return d;if(1===n)return v}var e=1/t;return function(t){return t>=1?1:(t+=n*e)-t%e}}function g(t){var n=arguments.length>1&&void 0!==arguments[1]?arguments[1]:2;if(Number.isInteger(t))return t;var e=Math.pow(10,n);return Math.round(t*e)/e}var p=Math.PI/180;function m(t,n,e){return t>=.5?e:n}function b(t,n,e){return 0===t||n===e?n:t*(e-n)+n}function w(t,n,e){var r=b(t,n,e);return r<=0?0:r}function x(t,n,e){return 0===t?n:1===t?e:{x:b(t,n.x,e.x),y:b(t,n.y,e.y)}}function k(t,n,e){return 0===t?n:1===t?e:{x:w(t,n.x,e.x),y:w(t,n.y,e.y)}}function A(t,n,e){var r=function(t,n,e){return Math.round(b(t,n,e))}(t,n,e);return r<=0?0:r>=255?255:r}function _(t,n,e){return 0===t?n:1===t?e:{r:A(t,n.r,e.r),g:A(t,n.g,e.g),b:A(t,n.b,e.b),a:b(t,null==n.a?1:n.a,null==e.a?1:e.a)}}function S(t,n,e){if(0===t)return n;if(1===t)return e;var r=n.length;if(r!==e.length)return m(t,n,e);for(var i=[],u=0;u<r;u++)i.push(_(t,n[u],e[u]));return i}function M(t,n,e){var r=n.length;if(r!==e.length)return m(t,n,e);for(var i=new Array(r),u=0;u<r;u++)i[u]=b(t,n[u],e[u]);return i}function O(t,n){for(var e=[],r=0;r<t;r++)e.push(n);return e}function E(t,n){if(--n<=0)return t;var e=(t=Object.assign([],t)).length;do{for(var r=0;r<e;r++)t.push(t[r])}while(--n>0);return t}var B,I=function(){function t(e){n(this,t),this.list=e,this.length=e.length}return r(t,[{key:"setAttribute",value:function(t,n){for(var e=this.list,r=0;r<this.length;r++)e[r].setAttribute(t,n)}},{key:"removeAttribute",value:function(t){for(var n=this.list,e=0;e<this.length;e++)n[e].removeAttribute(t)}},{key:"style",value:function(t,n){for(var e=this.list,r=0;r<this.length;r++)e[r].style[t]=n}}]),t}(),j=/-./g,P=function(t,n){return n.toUpperCase()};function F(t){return"function"==typeof t?t:m}function R(t){return t?"function"==typeof t?t:Array.isArray(t)?function(t){var n=arguments.length>1&&void 0!==arguments[1]?arguments[1]:s;if(!Array.isArray(t))return n;switch(t.length){case 1:return y(t[0])||n;case 2:return y(t[0],t[1])||n;case 4:return h(t[0],t[1],t[2],t[3])||n}return n}(t,null):function(t,n){var e=arguments.length>2&&void 0!==arguments[2]?arguments[2]:s;switch(t){case"linear":return s;case"steps":return y(n.steps||1,n.jump||0)||e;case"bezier":case"cubic-bezier":return h(n.x1||0,n.y1||0,n.x2||0,n.y2||0)||e}return e}(t.type,t.value,null):null}function T(t,n,e){var r=arguments.length>3&&void 0!==arguments[3]&&arguments[3],i=n.length-1;if(t<=n[0].t)return r?[0,0,n[0].v]:n[0].v;if(t>=n[i].t)return r?[i,1,n[i].v]:n[i].v;var u,o=n[0],a=null;for(u=1;u<=i;u++){if(!(t>n[u].t)){a=n[u];break}o=n[u]}return null==a?r?[i,1,n[i].v]:n[i].v:o.t===a.t?r?[u,1,a.v]:a.v:(t=(t-o.t)/(a.t-o.t),o.e&&(t=o.e(t)),r?[u,t,e(t,o.v,a.v)]:e(t,o.v,a.v))}function q(t,n){var e=arguments.length>2&&void 0!==arguments[2]?arguments[2]:null;return t&&t.length?"function"!=typeof n?null:("function"!=typeof e&&(e=null),function(r){var i=T(r,t,n);return null!=i&&e&&(i=e(i)),i}):null}function C(t,n){return t.t-n.t}function V(n,e,r,i,u){var o,a="@"===r[0],l="#"===r[0],f=B[r],s=m;switch(a?(o=r.substr(1),r=o.replace(j,P)):l&&(r=r.substr(1)),t(f)){case"function":if(s=f(i,u,T,R,r,a,e,n),l)return s;break;case"string":s=q(i,F(f));break;case"object":if((s=q(i,F(f.i),f.f))&&"function"==typeof f.u)return f.u(e,s,r,a,n)}return s?function(t,n,e){var r=arguments.length>3&&void 0!==arguments[3]&&arguments[3];if(r)return t instanceof I?function(r){return t.style(n,e(r))}:function(r){return t.style[n]=e(r)};if(Array.isArray(n)){var i=n.length;return function(r){var u=e(r);if(null==u)for(var o=0;o<i;o++)t[o].removeAttribute(n);else for(var a=0;a<i;a++)t[a].setAttribute(n,u)}}return function(r){var i=e(r);null==i?t.removeAttribute(n):t.setAttribute(n,i)}}(e,r,s,a):null}function N(n,e,r,i){if(!i||"object"!==t(i))return null;var u=null,o=null;return Array.isArray(i)?o=function(t){if(!t||!t.length)return null;for(var n=0;n<t.length;n++)t[n].e&&(t[n].e=R(t[n].e));return t.sort(C)}(i):(o=i.keys,u=i.data||null),o?V(n,e,r,o,u):null}function z(t,n,e){if(!e)return null;var r=[];for(var i in e)if(e.hasOwnProperty(i)){var u=N(t,n,i,e[i]);u&&r.push(u)}return r.length?r:null}function D(t,n){if(!n.duration||n.duration<0)return null;var e=function(t,n){if(!n)return null;var e=[];if(Array.isArray(n))for(var r=n.length,i=0;i<r;i++){var u=n[i];if(2===u.length){var o=null;if("string"==typeof u[0])o=t.getElementById(u[0]);else if(Array.isArray(u[0])){o=[];for(var a=0;a<u[0].length;a++)if("string"==typeof u[0][a]){var l=t.getElementById(u[0][a]);l&&o.push(l)}o=o.length?1===o.length?o[0]:new I(o):null}if(o){var f=z(t,o,u[1]);f&&(e=e.concat(f))}}}else for(var s in n)if(n.hasOwnProperty(s)){var c=t.getElementById(s);if(c){var h=z(t,c,n[s]);h&&(e=e.concat(h))}}return e.length?e:null}(t,n.elements);return e?function(t,n){var e=arguments.length>2&&void 0!==arguments[2]?arguments[2]:1/0,r=arguments.length>3&&void 0!==arguments[3]?arguments[3]:1,i=arguments.length>4&&void 0!==arguments[4]&&arguments[4],u=arguments.length>5&&void 0!==arguments[5]?arguments[5]:1,o=t.length,a=r>0?n:0;i&&e%2==0&&(a=n-a);var l=null;return function(f,s){var c=f%n,h=1+(f-c)/n;s*=r,i&&h%2==0&&(s=-s);var v=!1;if(h>e)c=a,v=!0,-1===u&&(c=r>0?0:n);else if(s<0&&(c=n-c),c===l)return!1;l=c;for(var d=0;d<o;d++)t[d](c);return v}}(e,n.duration,n.iterations||1/0,n.direction||1,!!n.alternate,n.fill||1):null}function L(t,n){if(B=n,!t||!t.root||!Array.isArray(t.animations))return null;var e=window.document.getElementById(t.root);if(!e)return null;var r=t.animations.map((function(t){return D(e,t)})).filter((function(t){return!!t}));return r.length?{element:e,animations:r,animationSettings:t.animationSettings,options:t.options||void 0}:null}var U=function(){function t(e,r){var i=arguments.length>2&&void 0!==arguments[2]?arguments[2]:{};n(this,t),this._id=0,this._running=!1,this._rollingBack=!1,this._animations=e,this.duration=r.duration,this.alternate=r.alternate,this.fill=r.fill,this.iterations=r.iterations,this.direction=i.direction||1,this.speed=i.speed||1,this.fps=i.fps||100,this.offset=i.offset||0,this.rollbackStartOffset=0}return r(t,[{key:"_rollback",value:function(){var t=this,n=1/0,e=null;this.rollbackStartOffset=this.offset,this._rollingBack||(this._rollingBack=!0,this._running=!0);this._id=window.requestAnimationFrame((function r(i){if(t._rollingBack){null==e&&(e=i);var u=i-e,o=t.rollbackStartOffset-u,a=Math.round(o*t.speed);if(a>t.duration&&n!=1/0){var l=!!t.alternate&&a/t.duration%2>1,f=a%t.duration;a=(f+=l?t.duration:0)||t.duration}var s=t.fps?1e3/t.fps:0,c=Math.max(0,a);if(c<n-s){t.offset=c,n=c;for(var h=t._animations,v=h.length,d=0;d<v;d++)h[d](c,t.direction)}var y=!1;if(t.iterations>0&&-1===t.fill){var g=t.iterations*t.duration,p=g==a;a=p?0:a,t.offset=p?0:t.offset,y=a>g}a>0&&t.offset>=a&&!y?t._id=window.requestAnimationFrame(r):t.stop()}}))}},{key:"_start",value:function(){var t=this,n=arguments.length>0&&void 0!==arguments[0]?arguments[0]:0,e=-1/0,r=null,i={},u=function u(o){t._running=!0,null==r&&(r=o);var a=Math.round((o-r+n)*t.speed),l=t.fps?1e3/t.fps:0;if(a>e+l&&!t._rollingBack){t.offset=a,e=a;for(var f=t._animations,s=f.length,c=0,h=0;h<s;h++)i[h]?c++:(i[h]=f[h](a,t.direction),i[h]&&c++);if(c===s)return void t._stop()}t._id=window.requestAnimationFrame(u)};this._id=window.requestAnimationFrame(u)}},{key:"_stop",value:function(){this._id&&window.cancelAnimationFrame(this._id),this._running=!1,this._rollingBack=!1}},{key:"play",value:function(){!this._rollingBack&&this._running||(this._rollingBack=!1,this.rollbackStartOffset>this.duration&&(this.offset=this.rollbackStartOffset-(this.rollbackStartOffset-this.offset)%this.duration,this.rollbackStartOffset=0),this._start(this.offset))}},{key:"stop",value:function(){this._stop(),this.offset=0,this.rollbackStartOffset=0;var t=this.direction,n=this._animations;window.requestAnimationFrame((function(){for(var e=0;e<n.length;e++)n[e](0,t)}))}},{key:"reachedToEnd",value:function(){return this.iterations>0&&this.offset>=this.iterations*this.duration}},{key:"restart",value:function(){this._stop(),this.offset=0,this._start()}},{key:"pause",value:function(){this._stop()}},{key:"reverse",value:function(){this.direction=-this.direction}}],[{key:"build",value:function(n,e){return(n=L(n,e))?{el:n.element,options:n.options||{},player:new t(n.animations,n.animationSettings,n.options)}:null}}]),t}();!function(){for(var t=0,n=["ms","moz","webkit","o"],e=0;e<n.length&&!window.requestAnimationFrame;++e)window.requestAnimationFrame=window[n[e]+"RequestAnimationFrame"],window.cancelAnimationFrame=window[n[e]+"CancelAnimationFrame"]||window[n[e]+"CancelRequestAnimationFrame"];window.requestAnimationFrame||(window.requestAnimationFrame=function(n){var e=Date.now(),r=Math.max(0,16-(e-t)),i=window.setTimeout((function(){n(e+r)}),r);return t=e+r,i},window.cancelAnimationFrame=window.clearTimeout)}();var W=function(t,n){var e=!1,r=null;return function(i){e&&clearTimeout(e),e=setTimeout((function(){return function(){for(var i=0,u=window.innerHeight,o=0,a=window.innerWidth,l=t.parentNode;l instanceof Element;){var f=window.getComputedStyle(l);if("visible"!==f.overflowY||"visible"!==f.overflowX){var s=l.getBoundingClientRect();"visible"!==f.overflowY&&(i=Math.max(i,s.top),u=Math.min(u,s.bottom)),"visible"!==f.overflowX&&(o=Math.max(o,s.left),a=Math.min(a,s.right))}if(l===l.parentNode)break;l=l.parentNode}e=!1;var c=t.getBoundingClientRect(),h=Math.min(c.height,Math.max(0,i-c.top)),v=Math.min(c.height,Math.max(0,c.bottom-u)),d=Math.min(c.width,Math.max(0,o-c.left)),y=Math.min(c.width,Math.max(0,c.right-a)),g=(c.height-h-v)/c.height,p=(c.width-d-y)/c.width,m=Math.round(g*p*100);null!==r&&r===m||(r=m,n(m))}()}),100)}},Y=function(){function t(e,r,i){n(this,t),r=Math.max(1,r||1),r=Math.min(r,100),this.el=e,this.onTresholdChange=i&&i.call?i:function(){},this.tresholdPercent=r||1,this.currentVisibility=null,this.visibilityCalculator=W(e,this.onVisibilityUpdate.bind(this)),this.bindScrollWatchers(),this.visibilityCalculator()}return r(t,[{key:"bindScrollWatchers",value:function(){for(var t=this.el.parentNode;t&&(t.addEventListener("scroll",this.visibilityCalculator),t!==t.parentNode&&t!==document);)t=t.parentNode}},{key:"onVisibilityUpdate",value:function(t){var n=this.currentVisibility>=this.tresholdPercent,e=t>=this.tresholdPercent;if(null===this.currentVisibility||n!==e)return this.currentVisibility=t,void this.onTresholdChange(e);this.currentVisibility=t}}]),t}(),G=/\.0+$/g;function H(t){return Number.isInteger(t)?t+"":t.toFixed(6).replace(G,"")}function X(t){var n=arguments.length>1&&void 0!==arguments[1]?arguments[1]:" ";return t&&t.length?t.map(H).join(n):""}function $(t){return H(t.x)+","+H(t.y)}function Q(t){return t?null==t.a||t.a>=1?"rgb("+t.r+","+t.g+","+t.b+")":"rgba("+t.r+","+t.g+","+t.b+","+t.a+")":"transparent"}var Z={f:null,i:k,u:function(t,n){return function(e){var r=n(e);t.setAttribute("rx",H(r.x)),t.setAttribute("ry",H(r.y))}}},J={f:null,i:function(t,n,e){return 0===t?n:1===t?e:{width:w(t,n.width,e.width),height:w(t,n.height,e.height)}},u:function(t,n){return function(e){var r=n(e);t.setAttribute("width",H(r.width)),t.setAttribute("height",H(r.height))}}},K=Math.sin,tt=Math.cos,nt=Math.acos,et=Math.asin,rt=Math.tan,it=Math.atan2,ut=Math.PI/180,ot=180/Math.PI,at=Math.sqrt,lt=function(){function t(){var e=arguments.length>0&&void 0!==arguments[0]?arguments[0]:1,r=arguments.length>1&&void 0!==arguments[1]?arguments[1]:0,i=arguments.length>2&&void 0!==arguments[2]?arguments[2]:0,u=arguments.length>3&&void 0!==arguments[3]?arguments[3]:1,o=arguments.length>4&&void 0!==arguments[4]?arguments[4]:0,a=arguments.length>5&&void 0!==arguments[5]?arguments[5]:0;n(this,t),this.m=[e,r,i,u,o,a],this.i=null,this.w=null,this.s=null}return r(t,[{key:"point",value:function(t,n){var e=this.m;return{x:e[0]*t+e[2]*n+e[4],y:e[1]*t+e[3]*n+e[5]}}},{key:"translateSelf",value:function(){var t=arguments.length>0&&void 0!==arguments[0]?arguments[0]:0,n=arguments.length>1&&void 0!==arguments[1]?arguments[1]:0;if(!t&&!n)return this;var e=this.m;return e[4]+=e[0]*t+e[2]*n,e[5]+=e[1]*t+e[3]*n,this.w=this.s=this.i=null,this}},{key:"rotateSelf",value:function(){var t=arguments.length>0&&void 0!==arguments[0]?arguments[0]:0;if(t%=360){var n=K(t*=ut),e=tt(t),r=this.m,i=r[0],u=r[1];r[0]=i*e+r[2]*n,r[1]=u*e+r[3]*n,r[2]=r[2]*e-i*n,r[3]=r[3]*e-u*n,this.w=this.s=this.i=null}return this}},{key:"scaleSelf",value:function(){var t=arguments.length>0&&void 0!==arguments[0]?arguments[0]:1,n=arguments.length>1&&void 0!==arguments[1]?arguments[1]:1;if(1!==t||1!==n){var e=this.m;e[0]*=t,e[1]*=t,e[2]*=n,e[3]*=n,this.w=this.s=this.i=null}return this}},{key:"skewSelf",value:function(t,n){if(n%=360,(t%=360)||n){var e=this.m,r=e[0],i=e[1],u=e[2],o=e[3];t&&(t=rt(t*ut),e[2]+=r*t,e[3]+=i*t),n&&(n=rt(n*ut),e[0]+=u*n,e[1]+=o*n),this.w=this.s=this.i=null}return this}},{key:"resetSelf",value:function(){var t=arguments.length>0&&void 0!==arguments[0]?arguments[0]:1,n=arguments.length>1&&void 0!==arguments[1]?arguments[1]:0,e=arguments.length>2&&void 0!==arguments[2]?arguments[2]:0,r=arguments.length>3&&void 0!==arguments[3]?arguments[3]:1,i=arguments.length>4&&void 0!==arguments[4]?arguments[4]:0,u=arguments.length>5&&void 0!==arguments[5]?arguments[5]:0,o=this.m;return o[0]=t,o[1]=n,o[2]=e,o[3]=r,o[4]=i,o[5]=u,this.w=this.s=this.i=null,this}},{key:"recomposeSelf",value:function(){var t=arguments.length>0&&void 0!==arguments[0]?arguments[0]:null,n=arguments.length>1&&void 0!==arguments[1]?arguments[1]:null,e=arguments.length>2&&void 0!==arguments[2]?arguments[2]:null,r=arguments.length>3&&void 0!==arguments[3]?arguments[3]:null,i=arguments.length>4&&void 0!==arguments[4]?arguments[4]:null;return this.isIdentity||this.resetSelf(),t&&(t.x||t.y)&&this.translateSelf(t.x,t.y),n&&this.rotateSelf(n),e&&(e.x&&this.skewSelf(e.x,0),e.y&&this.skewSelf(0,e.y)),!r||1===r.x&&1===r.y||this.scaleSelf(r.x,r.y),i&&(i.x||i.y)&&this.translateSelf(i.x,i.y),this}},{key:"decompose",value:function(){var t=arguments.length>0&&void 0!==arguments[0]?arguments[0]:0,n=arguments.length>1&&void 0!==arguments[1]?arguments[1]:0,e=this.m,r=e[0]*e[0]+e[1]*e[1],i=[[e[0],e[1]],[e[2],e[3]]],u=at(r);if(0===u)return{origin:{x:e[4],y:e[5]},translate:{x:t,y:n},scale:{x:0,y:0},skew:{x:0,y:0},rotate:0};i[0][0]/=u,i[0][1]/=u;var o=e[0]*e[3]-e[1]*e[2]<0;o&&(u=-u);var a=i[0][0]*i[1][0]+i[0][1]*i[1][1];i[1][0]-=i[0][0]*a,i[1][1]-=i[0][1]*a;var l=at(i[1][0]*i[1][0]+i[1][1]*i[1][1]);if(0===l)return{origin:{x:e[4],y:e[5]},translate:{x:t,y:n},scale:{x:u,y:0},skew:{x:0,y:0},rotate:0};i[1][0]/=l,i[1][1]/=l,a/=l;var f=0;return i[1][1]<0?(f=nt(i[1][1])*ot,i[0][1]<0&&(f=360-f)):f=et(i[0][1])*ot,o&&(f=-f),a=it(a,at(i[0][0]*i[0][0]+i[0][1]*i[0][1]))*ot,{origin:{x:e[4],y:e[5]},translate:{x:t,y:n},scale:{x:u,y:l},skew:{x:a,y:0},rotate:f}}},{key:"toString",value:function(){return null===this.s&&(this.s="matrix("+this.m.map(st).join(" ")+")"),this.s}},{key:"determinant",get:function(){var t=this.m;return t[0]*t[3]-t[1]*t[2]}},{key:"isIdentity",get:function(){if(null===this.i){var t=this.m;this.i=1===t[0]&&0===t[1]&&0===t[2]&&1===t[3]&&0===t[4]&&0===t[5]}return this.i}}]),t}(),ft=/\.0+$/;function st(t){return Number.isInteger(t)?t:t.toFixed(14).replace(ft,"")}Object.freeze({M:2,L:2,Z:0,H:1,V:1,C:6,Q:4,T:2,S:4,A:7});function ct(t,n,e){return t+(n-t)*e}function ht(t,n,e){var r=arguments.length>3&&void 0!==arguments[3]&&arguments[3],i={x:ct(t.x,n.x,e),y:ct(t.y,n.y,e)};return r&&(i.a=vt(t,n)),i}function vt(t,n){return Math.atan2(n.y-t.y,n.x-t.x)}function dt(t,n,e,r){var i=1-r;return i*i*t+2*i*r*n+r*r*e}function yt(t,n,e,r){return 2*(1-r)*(n-t)+2*r*(e-n)}function gt(t,n,e,r){var i=arguments.length>4&&void 0!==arguments[4]&&arguments[4],u={x:dt(t.x,n.x,e.x,r),y:dt(t.y,n.y,e.y,r)};return i&&(u.a=pt(t,n,e,r)),u}function pt(t,n,e,r){return Math.atan2(yt(t.y,n.y,e.y,r),yt(t.x,n.x,e.x,r))}function mt(t,n,e,r,i){var u=i*i;return i*u*(r-t+3*(n-e))+3*u*(t+e-2*n)+3*i*(n-t)+t}function bt(t,n,e,r,i){var u=1-i;return 3*(u*u*(n-t)+2*u*i*(e-n)+i*i*(r-e))}function wt(t,n,e,r,i){var u=arguments.length>5&&void 0!==arguments[5]&&arguments[5],o={x:mt(t.x,n.x,e.x,r.x,i),y:mt(t.y,n.y,e.y,r.y,i)};return u&&(o.a=xt(t,n,e,r,i)),o}function xt(t,n,e,r,i){return Math.atan2(bt(t.y,n.y,e.y,r.y,i),bt(t.x,n.x,e.x,r.x,i))}function kt(t,n,e){var r=arguments.length>3&&void 0!==arguments[3]&&arguments[3];if(_t(n)){if(St(e))return gt(n,e.start,e,t,r)}else if(_t(e)){if(n.end)return gt(n,n.end,e,t,r)}else{if(n.end)return e.start?wt(n,n.end,e.start,e,t,r):gt(n,n.end,e,t,r);if(e.start)return gt(n,e.start,e,t,r)}return ht(n,e,t,r)}function At(t,n,e){var r=kt(t,n,e,!0);return r.a=function(t){var n=arguments.length>1&&void 0!==arguments[1]&&arguments[1];return n?t+Math.PI:t}(r.a)/p,r}function _t(t){return!t.type||"corner"===t.type}function St(t){return null!=t.start&&!_t(t)}var Mt=new lt;var Ot={f:function(t){return t?t.join(" "):""},i:function(n,e,r){if(0===n)return e;if(1===n)return r;var i=e.length;if(i!==r.length)return m(n,e,r);for(var u,o=new Array(i),a=0;a<i;a++){if((u=t(e[a]))!==t(r[a]))return m(n,e,r);if("number"===u)o[a]=b(n,e[a],r[a]);else{if(e[a]!==r[a])return m(n,e,r);o[a]=e[a]}}return o}},Et={f:null,i:M,u:function(t,n){return function(e){var r=n(e);t.setAttribute("x1",H(r[0])),t.setAttribute("y1",H(r[1])),t.setAttribute("x2",H(r[2])),t.setAttribute("y2",H(r[3]))}}},Bt={f:H,i:b},It={f:H,i:function(t,n,e){var r=b(t,n,e);return r<=0?0:r>=1?1:r}},jt={f:function(t){var n=arguments.length>1&&void 0!==arguments[1]?arguments[1]:" ";return t&&t.length>0&&(t=t.map((function(t){return Math.floor(1e4*t)/1e4}))),X(t,n)},i:function(t,n,e){var r,i,u,o=n.length,a=e.length;if(o!==a)if(0===o)n=O(o=a,0);else if(0===a)a=o,e=O(o,0);else{var l=(u=(r=o)*(i=a)/function(t,n){for(var e;n;)e=n,n=t%n,t=e;return t||1}(r,i))<0?-u:u;n=E(n,Math.floor(l/o)),e=E(e,Math.floor(l/a)),o=a=l}for(var f=[],s=0;s<o;s++)f.push(g(w(t,n[s],e[s]),6));return f}};function Pt(t,n,e,r,i,u,o,a){return n=function(t,n,e){for(var r,i,u,o=t.length-1,a={},l=0;l<=o;l++)(r=t[l]).e&&(r.e=n(r.e)),r.v&&"g"===(i=r.v).t&&i.r&&(u=e.getElementById(i.r))&&(a[i.r]=u.querySelectorAll("stop"));return a}(t,r,a),function(r){var i,u=e(r,t,Ft);return u?"c"===u.t?Q(u.v):"g"===u.t?(n[u.r]&&function(t,n){for(var e=0,r=t.length;e<r;e++)t[e].setAttribute("stop-color",Q(n[e]))}(n[u.r],u.v),(i=u.r)?"url(#"+i+")":"none"):"none":"none"}}function Ft(t,n,e){if(0===t)return n;if(1===t)return e;if(n&&e){var r=n.t;if(r===e.t)switch(n.t){case"c":return{t:r,v:_(t,n.v,e.v)};case"g":if(n.r===e.r)return{t:r,v:S(t,n.v,e.v),r:n.r}}}return m(t,n,e)}var Rt={blur:k,brightness:w,contrast:w,"drop-shadow":function(t,n,e){return 0===t?n:1===t?e:{blur:k(t,n.blur,e.blur),offset:x(t,n.offset,e.offset),color:_(t,n.color,e.color)}},grayscale:w,"hue-rotate":b,invert:w,opacity:w,saturate:w,sepia:w};function Tt(t,n,e){if(0===t)return n;if(1===t)return e;var r=n.length;if(r!==e.length)return m(t,n,e);for(var i,u=[],o=0;o<r;o++){if(n[o].type!==e[o].type)return n;if(!(i=Rt[n[o].type]))return m(t,n,e);u.push({type:n.type,value:i(t,n[o].value,e[o].value)})}return u}var qt={blur:function(t){return t?function(n){t.setAttribute("stdDeviation",$(n))}:null},brightness:function(t,n,e){return(t=Vt(e,n))?function(n){n=H(n),t.map((function(t){return t.setAttribute("slope",n)}))}:null},contrast:function(t,n,e){return(t=Vt(e,n))?function(n){var e=H((1-n)/2);n=H(n),t.map((function(t){t.setAttribute("slope",n),t.setAttribute("intercept",e)}))}:null},"drop-shadow":function(t,n,e){var r=e.getElementById(n+"-blur");if(!r)return null;var i=e.getElementById(n+"-offset");if(!i)return null;var u=e.getElementById(n+"-flood");return u?function(t){r.setAttribute("stdDeviation",$(t.blur)),i.setAttribute("dx",H(t.offset.x)),i.setAttribute("dy",H(t.offset.y)),u.setAttribute("flood-color",Q(t.color))}:null},grayscale:function(t){return t?function(n){t.setAttribute("values",X(function(t){return[.2126+.7874*(t=1-t),.7152-.7152*t,.0722-.0722*t,0,0,.2126-.2126*t,.7152+.2848*t,.0722-.0722*t,0,0,.2126-.2126*t,.7152-.7152*t,.0722+.9278*t,0,0,0,0,0,1,0]}(n)))}:null},"hue-rotate":function(t){return t?function(n){return t.setAttribute("values",H(n))}:null},invert:function(t,n,e){return(t=Vt(e,n))?function(n){n=H(n)+" "+H(1-n),t.map((function(t){return t.setAttribute("tableValues",n)}))}:null},opacity:function(t,n,e){return(t=e.getElementById(n+"-A"))?function(n){return t.setAttribute("tableValues","0 "+H(n))}:null},saturate:function(t){return t?function(n){return t.setAttribute("values",H(n))}:null},sepia:function(t){return t?function(n){return t.setAttribute("values",X(function(t){return[.393+.607*(t=1-t),.769-.769*t,.189-.189*t,0,0,.349-.349*t,.686+.314*t,.168-.168*t,0,0,.272-.272*t,.534-.534*t,.131+.869*t,0,0,0,0,0,1,0]}(n)))}:null}};var Ct=["R","G","B"];function Vt(t,n){var e=Ct.map((function(e){return t.getElementById(n+"-"+e)||null}));return-1!==e.indexOf(null)?null:e}var Nt={fill:Pt,"fill-opacity":It,stroke:Pt,"stroke-opacity":It,"stroke-width":Bt,"stroke-dashoffset":{f:H,i:b},"stroke-dasharray":jt,opacity:It,transform:function(n,e,r,i){if(!(n=function(n,e){if(!n||"object"!==t(n))return null;var r=!1;for(var i in n)n.hasOwnProperty(i)&&(n[i]&&n[i].length?(n[i].forEach((function(t){t.e&&(t.e=e(t.e))})),r=!0):delete n[i]);return r?n:null}(n,i)))return null;var u=function(t,i,u){var o=arguments.length>3&&void 0!==arguments[3]?arguments[3]:null;return n[t]?r(i,n[t],u):e&&e[t]?e[t]:o};return e&&e.a&&n.o?function(t){var e=r(t,n.o,At);return Mt.recomposeSelf(e,u("r",t,b,0)+e.a,u("k",t,x),u("s",t,x),u("t",t,x)).toString()}:function(t){return Mt.recomposeSelf(u("o",t,kt,null),u("r",t,b,0),u("k",t,x),u("s",t,x),u("t",t,x)).toString()}},"#filter":function(t,n,e,r,i,u,o,a){if(!n.items||!t||!t.length)return null;var l=function(t,n){var e=(t=t.map((function(t){return t&&qt[t[0]]?(n.getElementById(t[1]),qt[t[0]](n.getElementById(t[1]),t[1],n)):null}))).length;return function(n){for(var r=0;r<e;r++)t[r]&&t[r](n[r].value)}}(n.items,a);return l?(t=function(t,n){return t.map((function(t){return t.e=n(t.e),t}))}(t,r),function(n){l(e(n,t,Tt))}):null},"#line":Et,points:{f:X,i:M},d:Ot,r:Bt,"#size":J,"#radius":Z,_:function(t,n){if(Array.isArray(t))for(var e=0;e<t.length;e++)this[t[e]]=n;else this[t]=n}};return function(t){!function(t,n){if("function"!=typeof n&&null!==n)throw new TypeError("Super expression must either be null or a function");t.prototype=Object.create(n&&n.prototype,{constructor:{value:t,writable:!0,configurable:!0}}),n&&u(t,n)}(o,t);var e=a(o);function o(){return n(this,o),e.apply(this,arguments)}return r(o,null,[{key:"build",value:function(t){var n=l(i(o),"build",this).call(this,t,Nt),e=n.el,r=n.options,u=n.player;return function(t,n,e){if("click"===e.start){return void n.addEventListener("click",(function(){switch(e.click){case"freeze":return!t._running&&t.reachedToEnd()&&(t.offset=0),t._running?t.pause():t.play();case"restart":return t.offset>0?t.restart():t.play();case"reverse":var n=!t._rollingBack&&t._running,r=t.reachedToEnd();return n||r&&1===t.fill?(t.pause(),r&&(t.offset=t.duration-1),t._rollback()):r?t.restart():t.play();case"none":default:return!t._running&&t.offset?t.restart():t.play()}}))}if("hover"===e.start)return n.addEventListener("mouseenter",(function(){return t.reachedToEnd()?t.restart():t.play()})),void n.addEventListener("mouseleave",(function(){switch(e.hover){case"freeze":return t.pause();case"reset":return t.stop();case"reverse":return t.pause(),t._rollback();case"none":default:return}}));if("scroll"===e.start)return void new Y(n,e.scroll||25,(function(n){n?t.reachedToEnd()?t.restart():t.play():t.pause()}));t.play()}(u,e,r),u}}]),o}(U)}));
__SVGATOR_PLAYER__.build({"root":"ezmc8ikfnje1","animations":[{"duration":8500,"direction":1,"iterations":0,"fill":1,"alternate":false,"elements":{"ezmc8ikfnje2":{"opacity":[{"t":0,"v":0},{"t":500,"v":1},{"t":3000,"v":1,"e":[0.42,0,0.58,1]},{"t":3400,"v":0,"e":[0.42,0,0.58,1]}]},"ezmc8ikfnje5":{"opacity":[{"t":0,"v":0},{"t":500,"v":1},{"t":3000,"v":1,"e":[0.42,0,0.58,1]},{"t":3400,"v":0,"e":[0.42,0,0.58,1]}]},"ezmc8ikfnje15":{"#size":[{"t":1000,"v":{"width":229.48552243556256,"height":33.58888527834834},"e":[0.42,0,0.58,1]},{"t":1500,"v":{"width":40.59356151236208,"height":33.58888527834834},"e":[0.42,0,0.58,1]}]},"ezmc8ikfnje16":{"opacity":[{"t":5000,"v":0,"e":[0.42,0,0.58,1]},{"t":5400,"v":1,"e":[0.42,0,0.58,1]},{"t":8100,"v":1},{"t":8500,"v":0}]},"ezmc8ikfnje23":{"opacity":[{"t":3000,"v":1,"e":[0.42,0,0.58,1]},{"t":3400,"v":0,"e":[0.42,0,0.58,1]}]},"ezmc8ikfnje34":{"#size":[{"t":1600,"v":{"width":45.759669440930665,"height":39.79999922804882},"e":[0.42,0,0.58,1]},{"t":2100,"v":{"width":193.72433118594526,"height":39.79999922804882},"e":[0.42,0,0.58,1]}]},"ezmc8ikfnje35":{"transform":{"data":{"t":{"x":-20.442199705,"y":-20}},"keys":{"o":[{"t":3300,"v":{"x":232.557800295,"y":20.000000000000004,"type":"corner"},"e":[0.42,0,0.58,1]},{"t":4000,"v":{"x":20.442199700000145,"y":20.00000000000001,"type":"corner"},"e":[0.42,0,0.58,1]}]}},"opacity":[{"t":2100,"v":0,"e":[0.42,0,0.58,1]},{"t":2400,"v":1,"e":[0.42,0,0.58,1]},{"t":8100,"v":1},{"t":8500,"v":0}]},"ezmc8ikfnje36":{"opacity":[{"t":4000,"v":1,"e":[0.42,0,0.58,1]},{"t":4900,"v":0,"e":[0.42,0,0.58,1]}]},"ezmc8ikfnje37":{"transform":{"data":{"t":{"x":-20.44220066570542,"y":-19.99079990386962}},"keys":{"o":[{"t":4500,"v":{"x":20.44220066570542,"y":19.99079990386962,"type":"corner"},"e":[0.42,0,0.58,1]},{"t":5100,"v":{"x":60.546462165705435,"y":20.19584293886964,"type":"corner"},"e":[0.42,0,0.58,1]}],"s":[{"t":4500,"v":{"x":1,"y":1},"e":[0.42,0,0.58,1]},{"t":5100,"v":{"x":1.9536462787177553,"y":1.9536462787177553},"e":[0.42,0,0.58,1]}]}},"opacity":[{"t":4700,"v":1,"e":[0.42,0,0.58,1]},{"t":5100,"v":0,"e":[0.42,0,0.58,1]}]}}}],"options":{"start":"load","hover":"freeze","click":"freeze","scroll":25,"exportedIds":"unique","title":"acesso-logo"},"animationSettings":{"duration":8500,"direction":1,"iterations":0,"fill":1,"alternate":false}})]]></script></svg>