<svg width="14" height="16" viewBox="0 0 14 16" fill="none" xmlns="http://www.w3.org/2000/svg">
<path fill-rule="evenodd" clip-rule="evenodd" d="M6.54545 16C6.54545 16 13.0909 11.6364 13.0909 6.54545C13.0909 4.80949 12.4013 3.14463 11.1738 1.91712C9.94628 0.689608 8.28142 0 6.54545 0C4.80949 0 3.14463 0.689608 1.91712 1.91712C0.689608 3.14463 0 4.80949 0 6.54545C0 11.6364 6.54545 16 6.54545 16ZM8.72741 6.54534C8.72741 7.75033 7.75057 8.72716 6.54559 8.72716C5.3406 8.72716 4.36377 7.75033 4.36377 6.54534C4.36377 5.34036 5.3406 4.36353 6.54559 4.36353C7.75057 4.36353 8.72741 5.34036 8.72741 6.54534Z" fill="#CF0080"/>
</svg>
