<svg width="79" height="3" viewBox="0 0 79 3" fill="none" xmlns="http://www.w3.org/2000/svg">
<path d="M0 1.27051C0 0.965169 0.0683594 0.735026 0.205078 0.580078C0.346354 0.420573 0.546875 0.34082 0.806641 0.34082C1.07096 0.34082 1.27604 0.420573 1.42188 0.580078C1.57227 0.735026 1.64746 0.965169 1.64746 1.27051C1.64746 1.56673 1.57227 1.7946 1.42188 1.9541C1.27148 2.11361 1.06641 2.19336 0.806641 2.19336C0.574219 2.19336 0.380534 2.12272 0.225586 1.98145C0.0751953 1.83561 0 1.59863 0 1.27051Z" fill="#F0047F"/>
<path d="M15.3691 1.27051C15.3691 0.965169 15.4375 0.735026 15.5742 0.580078C15.7155 0.420573 15.916 0.34082 16.1758 0.34082C16.4401 0.34082 16.6452 0.420573 16.791 0.580078C16.9414 0.735026 17.0166 0.965169 17.0166 1.27051C17.0166 1.56673 16.9414 1.7946 16.791 1.9541C16.6406 2.11361 16.4355 2.19336 16.1758 2.19336C15.9434 2.19336 15.7497 2.12272 15.5947 1.98145C15.4443 1.83561 15.3691 1.59863 15.3691 1.27051Z" fill="#F0047F"/>
<path d="M30.7383 1.27051C30.7383 0.965169 30.8066 0.735026 30.9434 0.580078C31.0846 0.420573 31.2852 0.34082 31.5449 0.34082C31.8092 0.34082 32.0143 0.420573 32.1602 0.580078C32.3105 0.735026 32.3857 0.965169 32.3857 1.27051C32.3857 1.56673 32.3105 1.7946 32.1602 1.9541C32.0098 2.11361 31.8047 2.19336 31.5449 2.19336C31.3125 2.19336 31.1188 2.12272 30.9639 1.98145C30.8135 1.83561 30.7383 1.59863 30.7383 1.27051Z" fill="#F0047F"/>
<path d="M46.1074 1.27051C46.1074 0.965169 46.1758 0.735026 46.3125 0.580078C46.4538 0.420573 46.6543 0.34082 46.9141 0.34082C47.1784 0.34082 47.3835 0.420573 47.5293 0.580078C47.6797 0.735026 47.7549 0.965169 47.7549 1.27051C47.7549 1.56673 47.6797 1.7946 47.5293 1.9541C47.3789 2.11361 47.1738 2.19336 46.9141 2.19336C46.6816 2.19336 46.488 2.12272 46.333 1.98145C46.1826 1.83561 46.1074 1.59863 46.1074 1.27051Z" fill="#F0047F"/>
<path d="M61.4766 1.27051C61.4766 0.965169 61.5449 0.735026 61.6816 0.580078C61.8229 0.420573 62.0234 0.34082 62.2832 0.34082C62.5475 0.34082 62.7526 0.420573 62.8984 0.580078C63.0488 0.735026 63.124 0.965169 63.124 1.27051C63.124 1.56673 63.0488 1.7946 62.8984 1.9541C62.748 2.11361 62.543 2.19336 62.2832 2.19336C62.0508 2.19336 61.8571 2.12272 61.7021 1.98145C61.5518 1.83561 61.4766 1.59863 61.4766 1.27051Z" fill="#F0047F"/>
<path d="M76.8457 1.27051C76.8457 0.965169 76.9141 0.735026 77.0508 0.580078C77.1921 0.420573 77.3926 0.34082 77.6523 0.34082C77.9167 0.34082 78.1217 0.420573 78.2676 0.580078C78.418 0.735026 78.4932 0.965169 78.4932 1.27051C78.4932 1.56673 78.418 1.7946 78.2676 1.9541C78.1172 2.11361 77.9121 2.19336 77.6523 2.19336C77.4199 2.19336 77.2262 2.12272 77.0713 1.98145C76.9209 1.83561 76.8457 1.59863 76.8457 1.27051Z" fill="#F0047F"/>
</svg>
