<svg width="37" height="32" viewBox="0 0 37 32" fill="none" xmlns="http://www.w3.org/2000/svg">
<path d="M12.8078 14.349H7.8269C7.2339 14.349 6.72977 14.1447 6.31465 13.7358C5.89977 13.327 5.69206 12.8307 5.69206 12.2465V11.546C5.69206 9.99842 6.24806 8.67729 7.35999 7.58221C8.47185 6.48751 9.81353 5.93993 11.3848 5.93993H12.8078C13.1932 5.93993 13.5266 5.80117 13.8084 5.52389C14.09 5.24646 14.2308 4.91809 14.2308 4.53849V1.73516C14.2308 1.35564 14.0899 1.02697 13.8084 0.749532C13.5267 0.472482 13.1933 0.333496 12.8078 0.333496H11.3848C9.84297 0.333496 8.372 0.629415 6.97097 1.22041C5.57009 1.81179 4.35839 2.61118 3.33541 3.61867C2.31249 4.6257 1.50103 5.81912 0.900636 7.19892C0.300238 8.57858 0 10.0276 0 11.546V26.9625C0 28.1311 0.414881 29.1233 1.24503 29.9412C2.07526 30.7586 3.08353 31.1673 4.26937 31.1673H12.8084C13.9941 31.1673 15.0021 30.7586 15.8324 29.9412C16.6624 29.1233 17.0775 28.1311 17.0775 26.9625V18.5537C17.0775 17.3853 16.6624 16.3931 15.8318 15.5752C15.0019 14.7578 13.9936 14.349 12.8078 14.349Z" fill="url(#paint0_linear)"/>
<path d="M35.7556 15.5752C34.9257 14.7578 33.9176 14.349 32.7315 14.349H27.7507C27.158 14.349 26.6534 14.1447 26.239 13.7358C25.8237 13.327 25.6164 12.8307 25.6164 12.2465V11.546C25.6164 9.99842 26.1724 8.67729 27.2838 7.58221C28.3953 6.48751 29.7369 5.93993 31.3089 5.93993H32.7316C33.1171 5.93993 33.4507 5.80117 33.7323 5.52389C34.0136 5.24646 34.155 4.91809 34.155 4.53849V1.73516C34.155 1.35564 34.0137 1.02697 33.7323 0.749532C33.4508 0.472482 33.1171 0.333496 32.7316 0.333496H31.3089C29.7662 0.333496 28.2956 0.629415 26.8942 1.22041C25.4935 1.81179 24.2822 2.61118 23.2592 3.61867C22.2362 4.6257 21.4244 5.81912 20.8242 7.19892C20.224 8.57858 19.9233 10.0276 19.9233 11.546V26.9625C19.9233 28.1311 20.3386 29.1233 21.1685 29.9412C21.9985 30.7586 23.0066 31.1673 24.1926 31.1673H32.7311C33.9171 31.1673 34.9251 30.7586 35.755 29.9412C36.5856 29.1233 37 28.1311 37 26.9625V18.5537C37.0001 17.3853 36.5856 16.3931 35.7556 15.5752Z" fill="url(#paint1_linear)"/>
<defs>
<linearGradient id="paint0_linear" x1="8.53875" y1="0.333496" x2="8.53875" y2="31.1673" gradientUnits="userSpaceOnUse">
<stop stop-color="#22C532"/>
<stop offset="1" stop-color="#11C3FF"/>
</linearGradient>
<linearGradient id="paint1_linear" x1="28.4617" y1="0.333496" x2="28.4617" y2="31.1673" gradientUnits="userSpaceOnUse">
<stop stop-color="#22C532"/>
<stop offset="1" stop-color="#11C3FF"/>
</linearGradient>
</defs>
</svg>
